  0
SECTION
  2
HEADER
  9
$ACADVER
  1
AC1015
  9
$ACADMAINTVER
 70
     6
  9
$DWGCODEPAGE
  3
ANSI_936
  9
$INSBASE
 10
0.0
 20
0.0
 30
0.0
  9
$EXTMIN
 10
0.0
 20
0.0
 30
0.0
  9
$EXTMAX
 10
1189.0
 20
841.0
 30
0.0
  9
$LIMMIN
 10
0.0
 20
0.0
  9
$LIMMAX
 10
1189.0
 20
841.0
  9
$ORTHOMODE
 70
     0
  9
$REGENMODE
 70
     1
  9
$FILLMODE
 70
     1
  9
$QTEXTMODE
 70
     0
  9
$MIRRTEXT
 70
     1
  9
$LTSCALE
 40
1.0
  9
$ATTMODE
 70
     1
  9
$TEXTSIZE
 40
3.5
  9
$TRACEWID
 40
1.0
  9
$TEXTSTYLE
  7
Standard
  9
$CLAYER
  8
0
  9
$CELTYPE
  6
ByLayer
  9
$CECOLOR
 62
   256
  9
$CELTSCALE
 40
1.0
  9
$DISPSILH
 70
     0
  9
$DIMSCALE
 40
1.0
  9
$DIMASZ
 40
4.08
  9
$DIMEXO
 40
0.0
  9
$DIMDLI
 40
3.75
  9
$DIMRND
 40
0.0
  9
$DIMDLE
 40
0.0
  9
$DIMEXE
 40
2.0
  9
$DIMTP
 40
0.0
  9
$DIMTM
 40
0.0
  9
$DIMTXT
 40
3.5
  9
$DIMCEN
 40
2.5
  9
$DIMTSZ
 40
0.0
  9
$DIMTOL
 70
     0
  9
$DIMLIM
 70
     0
  9
$DIMTIH
 70
     1
  9
$DIMTOH
 70
     1
  9
$DIMSE1
 70
     0
  9
$DIMSE2
 70
     0
  9
$DIMTAD
 70
     1
  9
$DIMZIN
 70
     0
  9
$DIMBLK
  1

  9
$DIMASO
 70
     1
  9
$DIMSHO
 70
     1
  9
$DIMPOST
  1

  9
$DIMAPOST
  1

  9
$DIMALT
 70
     0
  9
$DIMALTD
 70
     3
  9
$DIMALTF
 40
0.0393700787
  9
$DIMLFAC
 40
0.5
  9
$DIMTOFL
 70
     1
  9
$DIMTVP
 40
0.0
  9
$DIMTIX
 70
     0
  9
$DIMSOXD
 70
     0
  9
$DIMSAH
 70
     0
  9
$DIMBLK1
  1

  9
$DIMBLK2
  1

  9
$DIMSTYLE
  2
ISO-25
  9
$DIMCLRD
 70
     0
  9
$DIMCLRE
 70
     0
  9
$DIMCLRT
 70
     0
  9
$DIMTFAC
 40
1.0
  9
$DIMGAP
 40
1.524
  9
$DIMJUST
 70
     0
  9
$DIMSD1
 70
     0
  9
$DIMSD2
 70
     0
  9
$DIMTOLJ
 70
     0
  9
$DIMTZIN
 70
     0
  9
$DIMALTZ
 70
     0
  9
$DIMALTTZ
 70
     0
  9
$DIMUPT
 70
     0
  9
$DIMDEC
 70
     2
  9
$DIMTDEC
 70
     2
  9
$DIMALTU
 70
     2
  9
$DIMALTTD
 70
     3
  9
$DIMTXSTY
  7
Standard
  9
$DIMAUNIT
 70
     0
  9
$DIMADEC
 70
     2
  9
$DIMALTRND
 40
0.0
  9
$DIMAZIN
 70
     0
  9
$DIMDSEP
 70
    44
  9
$DIMATFIT
 70
     3
  9
$DIMFRAC
 70
     0
  9
$DIMLDRBLK
  1

  9
$DIMLUNIT
 70
     2
  9
$DIMLWD
 70
    -2
  9
$DIMLWE
 70
    -2
  9
$DIMTMOVE
 70
     0
  9
$LUNITS
 70
     2
  9
$LUPREC
 70
     2
  9
$SKETCHINC
 40
1.0
  9
$FILLETRAD
 40
10.0
  9
$AUNITS
 70
     0
  9
$AUPREC
 70
     2
  9
$MENU
  1
.
  9
$ELEVATION
 40
0.0
  9
$PELEVATION
 40
0.0
  9
$THICKNESS
 40
0.0
  9
$LIMCHECK
 70
     0
  9
$CHAMFERA
 40
0.0
  9
$CHAMFERB
 40
0.0
  9
$CHAMFERC
 40
0.0
  9
$CHAMFERD
 40
0.0
  9
$SKPOLY
 70
     0
  9
$TDCREATE
 40
2459688.463813773
  9
$TDUCREATE
 40
2459688.13048044
  9
$TDUPDATE
 40
2459688.463823623
  9
$TDUUPDATE
 40
2459688.13049029
  9
$TDINDWG
 40
0.0000000116
  9
$TDUSRTIMER
 40
0.0000000116
  9
$USRTIMER
 70
     1
  9
$ANGBASE
 50
0.0
  9
$ANGDIR
 70
     0
  9
$PDMODE
 70
     0
  9
$PDSIZE
 40
-1.0
  9
$PLINEWID
 40
0.0
  9
$SPLFRAME
 70
     0
  9
$SPLINETYPE
 70
     6
  9
$SPLINESEGS
 70
     8
  9
$HANDSEED
  5
32A
  9
$SURFTAB1
 70
     6
  9
$SURFTAB2
 70
     6
  9
$SURFTYPE
 70
     6
  9
$SURFU
 70
     6
  9
$SURFV
 70
     6
  9
$UCSBASE
  2

  9
$UCSNAME
  2

  9
$UCSORG
 10
0.0
 20
0.0
 30
0.0
  9
$UCSXDIR
 10
1.0
 20
0.0
 30
0.0
  9
$UCSYDIR
 10
0.0
 20
1.0
 30
0.0
  9
$UCSORTHOREF
  2

  9
$UCSORTHOVIEW
 70
     0
  9
$UCSORGTOP
 10
0.0
 20
0.0
 30
0.0
  9
$UCSORGBOTTOM
 10
0.0
 20
0.0
 30
0.0
  9
$UCSORGLEFT
 10
0.0
 20
0.0
 30
0.0
  9
$UCSORGRIGHT
 10
0.0
 20
0.0
 30
0.0
  9
$UCSORGFRONT
 10
0.0
 20
0.0
 30
0.0
  9
$UCSORGBACK
 10
0.0
 20
0.0
 30
0.0
  9
$PUCSBASE
  2

  9
$PUCSNAME
  2

  9
$PUCSORG
 10
0.0
 20
0.0
 30
0.0
  9
$PUCSXDIR
 10
1.0
 20
0.0
 30
0.0
  9
$PUCSYDIR
 10
0.0
 20
1.0
 30
0.0
  9
$PUCSORTHOREF
  2

  9
$PUCSORTHOVIEW
 70
     0
  9
$PUCSORGTOP
 10
0.0
 20
0.0
 30
0.0
  9
$PUCSORGBOTTOM
 10
0.0
 20
0.0
 30
0.0
  9
$PUCSORGLEFT
 10
0.0
 20
0.0
 30
0.0
  9
$PUCSORGRIGHT
 10
0.0
 20
0.0
 30
0.0
  9
$PUCSORGFRONT
 10
0.0
 20
0.0
 30
0.0
  9
$PUCSORGBACK
 10
0.0
 20
0.0
 30
0.0
  9
$USERI1
 70
     0
  9
$USERI2
 70
     0
  9
$USERI3
 70
     0
  9
$USERI4
 70
     0
  9
$USERI5
 70
     0
  9
$USERR1
 40
0.0
  9
$USERR2
 40
0.0
  9
$USERR3
 40
0.0
  9
$USERR4
 40
0.0
  9
$USERR5
 40
0.0
  9
$WORLDVIEW
 70
     1
  9
$SHADEDGE
 70
     3
  9
$SHADEDIF
 70
    70
  9
$TILEMODE
 70
     1
  9
$MAXACTVP
 70
    64
  9
$PINSBASE
 10
0.0
 20
0.0
 30
0.0
  9
$PLIMCHECK
 70
     0
  9
$PEXTMIN
 10
1.0000000000E+20
 20
1.0000000000E+20
 30
1.0000000000E+20
  9
$PEXTMAX
 10
-1.0000000000E+20
 20
-1.0000000000E+20
 30
-1.0000000000E+20
  9
$PLIMMIN
 10
0.0
 20
0.0
  9
$PLIMMAX
 10
420.0
 20
297.0
  9
$UNITMODE
 70
     0
  9
$VISRETAIN
 70
     1
  9
$PLINEGEN
 70
     0
  9
$PSLTSCALE
 70
     1
  9
$TREEDEPTH
 70
  3020
  9
$CMLSTYLE
  2
Standard
  9
$CMLJUST
 70
     0
  9
$CMLSCALE
 40
20.0
  9
$PROXYGRAPHICS
 70
     1
  9
$MEASUREMENT
 70
     1
  9
$CELWEIGHT
370
    -1
  9
$ENDCAPS
280
     0
  9
$JOINSTYLE
280
     0
  9
$LWDISPLAY
290
     1
  9
$INSUNITS
 70
     4
  9
$HYPERLINKBASE
  1

  9
$STYLESHEET
  1

  9
$XEDIT
290
     1
  9
$CEPSNTYPE
380
     0
  9
$PSTYLEMODE
290
     1
  9
$FINGERPRINTGUID
  2
{5E3BF5D5-AA5B-4DF7-8C37-ED5B66F0462D}
  9
$VERSIONGUID
  2
{FAEB1C32-E019-11D5-929B-00C0DF256EC4}
  9
$EXTNAMES
290
     1
  9
$PSVPSCALE
 40
0.0
  9
$OLESTARTUP
290
     0
  0
ENDSEC
  0
SECTION
  2
CLASSES
  0
CLASS
  1
ACDBDICTIONARYWDFLT
  2
AcDbDictionaryWithDefault
  3
ObjectDBX Classes
 90
        0
280
     0
281
     0
  0
CLASS
  1
VISUALSTYLE
  2
AcDbVisualStyle
  3
ObjectDBX Classes
 90
     4095
280
     0
281
     0
  0
CLASS
  1
MATERIAL
  2
AcDbMaterial
  3
ObjectDBX Classes
 90
     1153
280
     0
281
     0
  0
CLASS
  1
SCALE
  2
AcDbScale
  3
ObjectDBX Classes
 90
     1153
280
     0
281
     0
  0
CLASS
  1
TABLESTYLE
  2
AcDbTableStyle
  3
ObjectDBX Classes
 90
     4095
280
     0
281
     0
  0
CLASS
  1
MLEADERSTYLE
  2
AcDbMLeaderStyle
  3
ACDB_MLEADERSTYLE_CLASS
 90
     4095
280
     0
281
     0
  0
CLASS
  1
SUN
  2
AcDbSun
  3
SCENEOE
 90
     1153
280
     0
281
     0
  0
CLASS
  1
ACDBPLACEHOLDER
  2
AcDbPlaceHolder
  3
ObjectDBX Classes
 90
        0
280
     0
281
     0
  0
CLASS
  1
LAYOUT
  2
AcDbLayout
  3
ObjectDBX Classes
 90
        0
280
     0
281
     0
  0
ENDSEC
  0
SECTION
  2
TABLES
  0
TABLE
  2
VPORT
  5
8
330
0
100
AcDbSymbolTable
 70
     1
  0
VPORT
  5
29
330
8
100
AcDbSymbolTableRecord
100
AcDbViewportTableRecord
  2
*Active
 70
     0
 10
0.0
 20
0.0
 11
1.0
 21
1.0
 12
594.5
 22
420.5
 13
0.0
 23
0.0
 14
10.0
 24
10.0
 15
10.0
 25
10.0
 16
0.0
 26
0.0
 36
1.0
 17
0.0
 27
0.0
 37
0.0
 40
841.0
 41
1.4137931034
 42
50.0
 43
0.0
 44
0.0
 50
0.0
 51
0.0
 71
     0
 72
  2000
 73
     1
 74
     3
 75
     0
 76
     0
 77
     0
 78
     0
281
     0
 65
     1
110
0.0
120
0.0
130
0.0
111
1.0
121
0.0
131
0.0
112
0.0
122
1.0
132
0.0
 79
     0
146
0.0
  0
ENDTAB
  0
TABLE
  2
LTYPE
  5
5
330
0
100
AcDbSymbolTable
 70
     6
  0
LTYPE
  5
14
330
5
100
AcDbSymbolTableRecord
100
AcDbLinetypeTableRecord
  2
ByBlock
 70
     0
  3

 72
    65
 73
     0
 40
0.0
  0
LTYPE
  5
15
330
5
100
AcDbSymbolTableRecord
100
AcDbLinetypeTableRecord
  2
ByLayer
 70
     0
  3

 72
    65
 73
     0
 40
0.0
  0
LTYPE
  5
16
330
5
100
AcDbSymbolTableRecord
100
AcDbLinetypeTableRecord
  2
Continuous
 70
     0
  3
Solid line
 72
    65
 73
     0
 40
0.0
  0
LTYPE
  5
6E
330
5
100
AcDbSymbolTableRecord
100
AcDbLinetypeTableRecord
  2
HIDDEN
 70
     0
  3
Hidden __ __ __ __ __ __ __ __ __ __ __ __ __ __
 72
    65
 73
     2
 40
1.905
 49
1.27
 74
     0
 49
-0.635
 74
     0
  0
LTYPE
  5
6F
330
5
100
AcDbSymbolTableRecord
100
AcDbLinetypeTableRecord
  2
PHANTOM
 70
     0
  3
Phantom ______  __  __  ______  __  __  ______
 72
    65
 73
     6
 40
12.7
 49
6.35
 74
     0
 49
-1.27
 74
     0
 49
1.27
 74
     0
 49
-1.27
 74
     0
 49
1.27
 74
     0
 49
-1.27
 74
     0
  0
LTYPE
  5
70
330
5
100
AcDbSymbolTableRecord
100
AcDbLinetypeTableRecord
  2
CENTER
 70
     0
  3
Center ____ _ ____ _ ____ _ ____ _ ____ _ ____
 72
    65
 73
     4
 40
10.16
 49
6.35
 74
     0
 49
-1.27
 74
     0
 49
1.27
 74
     0
 49
-1.27
 74
     0
  0
LTYPE
  5
71
330
5
100
AcDbSymbolTableRecord
100
AcDbLinetypeTableRecord
  2
CENTERX2
 70
     0
  3
Center (2x) ________  __  ________  __  _____
 72
    65
 73
     4
 40
20.32
 49
12.7
 74
     0
 49
-2.54
 74
     0
 49
2.54
 74
     0
 49
-2.54
 74
     0
  0
LTYPE
  5
72
330
5
100
AcDbSymbolTableRecord
100
AcDbLinetypeTableRecord
  2
DOT2
 70
     0
  3
Dot (.5x) ........................................
 72
    65
 73
     2
 40
0.635
 49
0.0
 74
     0
 49
-0.635
 74
     0
  0
ENDTAB
  0
TABLE
  2
LAYER
  5
2
330
0
100
AcDbSymbolTable
 70
    18
  0
LAYER
  5
10
330
2
100
AcDbSymbolTableRecord
100
AcDbLayerTableRecord
  2
0
 70
     0
 62
     7
  6
Continuous
370
    -3
390
F
  0
LAYER
  5
73
330
2
100
AcDbSymbolTableRecord
100
AcDbLayerTableRecord
  2
SLD-0
 70
     0
 62
     7
  6
Continuous
370
    -3
390
F
  0
LAYER
  5
74
330
2
100
AcDbSymbolTableRecord
100
AcDbLayerTableRecord
  2
10
 70
     0
 62
     7
  6
Continuous
370
    -3
390
F
  0
LAYER
  5
75
330
2
100
AcDbSymbolTableRecord
100
AcDbLayerTableRecord
  2
5
 70
     0
 62
     7
  6
Continuous
370
    -3
390
F
  0
LAYER
  5
76
330
2
100
AcDbSymbolTableRecord
100
AcDbLayerTableRecord
  2
9
 70
     0
 62
     7
  6
Continuous
370
    -3
390
F
  0
LAYER
  5
77
330
2
100
AcDbSymbolTableRecord
100
AcDbLayerTableRecord
  2
轮廓实线层
 70
     0
 62
     7
  6
Continuous
370
    50
390
F
  0
LAYER
  5
78
330
2
100
AcDbSymbolTableRecord
100
AcDbLayerTableRecord
  2
细线层
 70
     0
 62
     4
  6
Continuous
370
    25
390
F
  0
LAYER
  5
79
330
2
100
AcDbSymbolTableRecord
100
AcDbLayerTableRecord
  2
中心线层
 70
     0
 62
     1
  6
CENTERX2
370
    25
390
F
  0
LAYER
  5
7A
330
2
100
AcDbSymbolTableRecord
100
AcDbLayerTableRecord
  2
虚线层
 70
     0
 62
     6
  6
HIDDEN
370
    25
390
F
  0
LAYER
  5
7B
330
2
100
AcDbSymbolTableRecord
100
AcDbLayerTableRecord
  2
剖面线层
 70
     0
 62
     2
  6
Continuous
370
    25
390
F
  0
LAYER
  5
7C
330
2
100
AcDbSymbolTableRecord
100
AcDbLayerTableRecord
  2
文字层
 70
     0
 62
     3
  6
Continuous
370
    25
390
F
  0
LAYER
  5
7D
330
2
100
AcDbSymbolTableRecord
100
AcDbLayerTableRecord
  2
标注层
 70
     0
 62
     4
  6
Continuous
370
    25
390
F
  0
LAYER
  5
7E
330
2
100
AcDbSymbolTableRecord
100
AcDbLayerTableRecord
  2
符号标注层
 70
     0
 62
    31
  6
Continuous
370
    25
390
F
  0
LAYER
  5
7F
330
2
100
AcDbSymbolTableRecord
100
AcDbLayerTableRecord
  2
双点划线层
 70
     0
 62
     6
  6
PHANTOM
370
    25
390
F
  0
LAYER
  5
80
330
2
100
AcDbSymbolTableRecord
100
AcDbLayerTableRecord
  2
粗实线层
 70
     0
 62
     7
  6
Continuous
370
    25
390
F
  0
LAYER
  5
81
330
2
100
AcDbSymbolTableRecord
100
AcDbLayerTableRecord
  2
细实线层
 70
     0
 62
     7
  6
Continuous
370
    -3
390
F
  0
LAYER
  5
82
330
2
100
AcDbSymbolTableRecord
100
AcDbLayerTableRecord
  2
点划线层
 70
     0
 62
     7
  6
CENTER
370
    -3
390
F
  0
LAYER
  5
83
330
2
100
AcDbSymbolTableRecord
100
AcDbLayerTableRecord
  2
图框
 70
     0
 62
     7
  6
Continuous
370
    -3
390
F
  0
ENDTAB
  0
TABLE
  2
STYLE
  5
3
330
0
100
AcDbSymbolTable
 70
     7
  0
STYLE
  5
11
330
3
100
AcDbSymbolTableRecord
100
AcDbTextStyleTableRecord
  2
Standard
 70
     0
 40
0.0
 41
1.0
 50
0.0
 71
     0
 42
3.5
  3
txt
  4

  0
STYLE
  5
299
330
3
100
AcDbSymbolTableRecord
100
AcDbTextStyleTableRecord
  2
SLDTEXTSTYLE0
 70
     0
 40
0.0
 41
0.7
 50
0.0
 71
     0
 42
3.5
  3
TXT
  4

  0
STYLE
  5
2B0
330
3
100
AcDbSymbolTableRecord
100
AcDbTextStyleTableRecord
  2
SLDTEXTSTYLE1
 70
     0
 40
0.0
 41
0.7
 50
0.0
 71
     0
 42
3.5
  3
TXT
  4
bigfont
  0
STYLE
  5
2C0
330
3
100
AcDbSymbolTableRecord
100
AcDbTextStyleTableRecord
  2
SLDTEXTSTYLE2
 70
     0
 40
0.0
 41
0.6
 50
0.0
 71
     0
 42
3.5
  3
TXT
  4
bigfont
  0
STYLE
  5
2C5
330
3
100
AcDbSymbolTableRecord
100
AcDbTextStyleTableRecord
  2
SLDTEXTSTYLE3
 70
     0
 40
0.0
 41
0.6142857143
 50
0.0
 71
     0
 42
3.5
  3
TXT
  4
bigfont
  0
STYLE
  5
2C7
330
3
100
AcDbSymbolTableRecord
100
AcDbTextStyleTableRecord
  2
SLDTEXTSTYLE4
 70
     0
 40
0.0
 41
0.62
 50
0.0
 71
     0
 42
3.5
  3
TXT
  4
bigfont
  0
STYLE
  5
2D1
330
3
100
AcDbSymbolTableRecord
100
AcDbTextStyleTableRecord
  2
SLDTEXTSTYLE5
 70
     0
 40
0.0
 41
0.5666666667
 50
0.0
 71
     0
 42
3.5
  3
TXT
  4
bigfont
  0
ENDTAB
  0
TABLE
  2
VIEW
  5
6
330
0
100
AcDbSymbolTable
 70
     0
  0
ENDTAB
  0
TABLE
  2
UCS
  5
7
330
0
100
AcDbSymbolTable
 70
     0
  0
ENDTAB
  0
TABLE
  2
APPID
  5
9
330
0
100
AcDbSymbolTable
 70
     1
  0
APPID
  5
12
330
9
100
AcDbSymbolTableRecord
100
AcDbRegAppTableRecord
  2
ACAD
 70
     0
  0
ENDTAB
  0
TABLE
  2
DIMSTYLE
  5
A
330
0
100
AcDbSymbolTable
 70
     3
100
AcDbDimStyleTable
  0
DIMSTYLE
105
27
330
A
100
AcDbSymbolTableRecord
100
AcDbDimStyleTableRecord
  2
ISO-25
 70
     0
 41
2.5
 42
0.625
 43
3.75
 44
1.25
 73
     0
 74
     0
 77
     1
 78
     8
140
2.5
141
2.5
143
0.0393700787
147
0.625
171
     3
172
     1
178
     0
271
     2
272
     2
274
     3
278
    44
283
     0
284
     8
340
11
  0
DIMSTYLE
105
29A
102
{ACAD_REACTORS
330
298
102
}
330
A
100
AcDbSymbolTableRecord
100
AcDbDimStyleTableRecord
  2
SLDDIMSTYLE0
 70
     0
 41
4.08
 44
0.0
 45
0.000000001
 73
     0
 74
     0
 77
     2
 78
    12
 79
     3
140
3.5
144
0.5
147
0.875
173
     1
178
     0
271
     2
272
     2
276
     2
284
    12
340
299
  0
DIMSTYLE
105
2A5
102
{ACAD_REACTORS
330
2A4
102
}
330
A
100
AcDbSymbolTableRecord
100
AcDbDimStyleTableRecord
  2
SLDDIMSTYLE1
 70
     0
 41
4.08
 44
0.0
 45
0.000000001
 73
     0
 74
     0
 77
     2
 78
    12
 79
     3
140
3.5
144
0.5
147
0.875
172
     1
173
     1
178
     0
271
     2
272
     2
276
     2
284
    12
289
     0
340
299
341
2A6
343
2A6
344
2A6
  0
ENDTAB
  0
TABLE
  2
BLOCK_RECORD
  5
1
330
0
100
AcDbSymbolTable
 70
     6
  0
BLOCK_RECORD
  5
1F
330
1
100
AcDbSymbolTableRecord
100
AcDbBlockTableRecord
  2
*Model_Space
340
22
  0
BLOCK_RECORD
  5
1B
330
1
100
AcDbSymbolTableRecord
100
AcDbBlockTableRecord
  2
*Paper_Space
340
1E
  0
BLOCK_RECORD
  5
23
330
1
100
AcDbSymbolTableRecord
100
AcDbBlockTableRecord
  2
*Paper_Space0
340
26
  0
BLOCK_RECORD
  5
29B
330
1
100
AcDbSymbolTableRecord
100
AcDbBlockTableRecord
  2
_D
340
0
  0
BLOCK_RECORD
  5
2A6
330
1
100
AcDbSymbolTableRecord
100
AcDbBlockTableRecord
  2
_None
340
0
  0
BLOCK_RECORD
  5
2A9
330
1
100
AcDbSymbolTableRecord
100
AcDbBlockTableRecord
  2
_D_1
340
0
  0
BLOCK_RECORD
  5
2AD
330
1
100
AcDbSymbolTableRecord
100
AcDbBlockTableRecord
  2
SW_NOTE_0
340
0
102
{BLKREFS
331
2B4
102
}
  0
BLOCK_RECORD
  5
2B5
330
1
100
AcDbSymbolTableRecord
100
AcDbBlockTableRecord
  2
SW_NOTE_1
340
0
102
{BLKREFS
331
2BA
102
}
  0
ENDTAB
  0
ENDSEC
  0
SECTION
  2
BLOCKS
  0
BLOCK
  5
20
330
1F
100
AcDbEntity
  8
0
100
AcDbBlockBegin
  2
*Model_Space
 70
     0
 10
0.0
 20
0.0
 30
0.0
  3
*Model_Space
  1

  0
ENDBLK
  5
21
330
1F
100
AcDbEntity
  8
0
100
AcDbBlockEnd
  0
BLOCK
  5
1C
330
1B
100
AcDbEntity
 67
     1
  8
0
100
AcDbBlockBegin
  2
*Paper_Space
 70
     0
 10
0.0
 20
0.0
 30
0.0
  3
*Paper_Space
  1

  0
ENDBLK
  5
1D
330
1B
100
AcDbEntity
 67
     1
  8
0
100
AcDbBlockEnd
  0
BLOCK
  5
24
330
23
100
AcDbEntity
  8
0
100
AcDbBlockBegin
  2
*Paper_Space0
 70
     0
 10
0.0
 20
0.0
 30
0.0
  3
*Paper_Space0
  1

  0
ENDBLK
  5
25
330
23
100
AcDbEntity
  8
0
100
AcDbBlockEnd
  0
BLOCK
  5
29C
330
29B
100
AcDbEntity
  8
0
100
AcDbBlockBegin
  2
_D
 70
     0
 10
0.0
 20
0.0
 30
0.0
  3
_D
  1

  0
SOLID
  5
29E
330
29B
100
AcDbEntity
  8
10
100
AcDbTrace
 10
332.6454427969
 20
687.0866807618
 30
0.0
 11
336.7254427969
 21
686.5786807618
 31
0.0
 12
336.7254427969
 22
687.5946807618
 32
0.0
 13
336.7254427969
 23
687.5946807618
 33
0.0
  0
SOLID
  5
29F
330
29B
100
AcDbEntity
  8
10
100
AcDbTrace
 10
725.259362396
 20
687.0866807618
 30
0.0
 11
721.179362396
 21
687.5946807618
 31
0.0
 12
721.179362396
 22
686.5786807618
 32
0.0
 13
721.179362396
 23
686.5786807618
 33
0.0
  0
LINE
  5
2A0
330
29B
100
AcDbEntity
  8
10
100
AcDbLine
 10
332.6454427969
 20
665.0365169299
 30
0.0
 11
332.6454427969
 21
689.0866807618
 31
0.0
  0
LINE
  5
2A1
330
29B
100
AcDbEntity
  8
10
100
AcDbLine
 10
725.259362396
 20
665.0365169299
 30
0.0
 11
725.259362396
 21
689.0866807618
 31
0.0
  0
LINE
  5
2A2
330
29B
100
AcDbEntity
  8
10
100
AcDbLine
 10
332.6454427969
 20
687.0866807618
 30
0.0
 11
725.259362396
 21
687.0866807618
 31
0.0
  0
MTEXT
  5
2A3
330
29B
100
AcDbEntity
  8
10
100
AcDbMText
 10
521.7095150165
 20
691.5984180838
 30
0.0
 40
3.5
 41
0.0
 71
     1
 72
     1
  1
196.31
  7
SLDTEXTSTYLE0
 73
     1
 44
1.0
  0
ENDBLK
  5
29D
330
29B
100
AcDbEntity
  8
0
100
AcDbBlockEnd
  0
BLOCK
  5
2A7
330
2A6
100
AcDbEntity
  8
0
100
AcDbBlockBegin
  2
_None
 70
     0
 10
0.0
 20
0.0
 30
0.0
  3
_None
  1

  0
ENDBLK
  5
2A8
330
2A6
100
AcDbEntity
  8
0
100
AcDbBlockEnd
  0
BLOCK
  5
2AA
330
2A9
100
AcDbEntity
  8
0
100
AcDbBlockBegin
  2
_D_1
 70
     0
 10
0.0
 20
0.0
 30
0.0
  3
_D_1
  1

  0
MTEXT
  5
2AC
330
2A9
100
AcDbEntity
  8
0
  6
Continuous
 62
     7
370
    18
100
AcDbMText
 10
156.969443224
 20
618.9088531704
 30
0.0
 40
3.5
 41
0.0
 71
     1
 72
     1
  1
2
  7
SLDTEXTSTYLE0
 73
     1
 44
1.0
  0
ENDBLK
  5
2AB
330
2A9
100
AcDbEntity
  8
0
100
AcDbBlockEnd
  0
BLOCK
  5
2AE
330
2AD
100
AcDbEntity
  8
0
100
AcDbBlockBegin
  2
SW_NOTE_0
 70
     0
 10
0.0
 20
0.0
 30
0.0
  3
SW_NOTE_0
  1

  0
MTEXT
  5
2B1
330
2AD
100
AcDbEntity
  8
10
 62
     0
100
AcDbMText
 10
0.0
 20
24.5567404427
 30
0.0
 40
19.05
 41
0.0
 71
     1
 72
     1
  1
这7\M+195D01.7mm\M+18CFA\M+18143图纸\M+18AC5\M+1939E\M+19349这\M+196CA\M+190A5\M+18A4F
  7
SLDTEXTSTYLE1
 73
     1
 44
1.0
  0
MTEXT
  5
2B2
330
2AD
100
AcDbEntity
  8
10
 62
     0
100
AcDbMText
 10
0.0
 20
-0.8432592504
 30
0.0
 40
19.05
 41
0.0
 71
     1
 72
     1
  1
\M+196CA\M+19681\M+18DBB\M+18143\M+18AC5\M+19573\M+1939E\M+19349\M+193DF\M+196CA\M+190A5\M+193E0侧\M+1908F\M+188D3\M+18143
  7
SLDTEXTSTYLE1
 73
     1
 44
1.0
  0
MTEXT
  5
2B3
330
2AD
100
AcDbEntity
  8
10
 62
     0
100
AcDbMText
 10
0.0
 20
-26.2432589434
 30
0.0
 40
19.05
 41
0.0
 71
     1
 72
     1
  1
\M+190D8\M+19456\M+1914F\M+190E6\M+19D99\M+19D7B\M+1968C\M+18143\M+18DC4\M+190D8\M+18142
  7
SLDTEXTSTYLE1
 73
     1
 44
1.0
  0
ENDBLK
  5
2AF
330
2AD
100
AcDbEntity
  8
0
100
AcDbBlockEnd
  0
BLOCK
  5
2B6
330
2B5
100
AcDbEntity
  8
0
100
AcDbBlockBegin
  2
SW_NOTE_1
 70
     0
 10
0.0
 20
0.0
 30
0.0
  3
SW_NOTE_1
  1

  0
MTEXT
  5
2B8
330
2B5
100
AcDbEntity
  8
10
 62
     0
100
AcDbMText
 10
0.0
 20
24.5567404427
 30
0.0
 40
19.05
 41
0.0
 71
     1
 72
     1
  1
这\M+195D0\M+190A50.7mm\M+18CFA\M+18143\M+198F4为垫\M+18D82层\M+18143\M+19DD9\M+18EF9\M+19681\M+18DBB\M+18143
  7
SLDTEXTSTYLE1
 73
     1
 44
1.0
  0
MTEXT
  5
2B9
330
2B5
100
AcDbEntity
  8
10
 62
     0
100
AcDbMText
 10
0.0
 20
-2.3432604276
 30
0.0
 40
19.05
 41
0.0
 71
     1
 72
     1
  1
\M+19573\M+19776\M+1968C,\M+190D8\M+19456\M+1914F\M+194632边\M+19349\M+1968C\M+19373\M+19D99\M+19D7B\M+18142
  7
SLDTEXTSTYLE1
 73
     1
 44
1.0
  0
ENDBLK
  5
2B7
330
2B5
100
AcDbEntity
  8
0
100
AcDbBlockEnd
  0
ENDSEC
  0
SECTION
  2
ENTITIES
  0
LINE
  5
84
330
1F
100
AcDbEntity
  8
10
100
AcDbLine
 10
637.519438396
 20
524.907935848
 30
0.0
 11
433.1994383956
 21
524.907935848
 31
0.0
  0
LINE
  5
85
330
1F
100
AcDbEntity
  8
10
100
AcDbLine
 10
332.6454427969
 20
577.2971158484
 30
0.0
 11
332.6454427969
 21
618.6971158484
 31
0.0
  0
LINE
  5
86
330
1F
100
AcDbEntity
  8
0
  6
Continuous
 62
   179
370
    25
100
AcDbLine
 10
448.279362396
 20
571.1971158484
 30
0.0
 11
508.766490021
 21
571.1971158484
 31
0.0
  0
LINE
  5
87
330
1F
100
AcDbEntity
  8
0
  6
Continuous
 62
   179
370
    25
100
AcDbLine
 10
448.279362396
 20
581.1971158484
 30
0.0
 11
508.766490021
 21
581.1971158484
 31
0.0
  0
LINE
  5
88
330
1F
100
AcDbEntity
  8
0
  6
Continuous
 62
   179
370
    25
100
AcDbLine
 10
508.766490021
 20
575.1971158484
 30
0.0
 11
448.279362396
 21
575.1971158484
 31
0.0
  0
LINE
  5
89
330
1F
100
AcDbEntity
  8
SLD-0
  6
Continuous
 62
   179
370
    25
100
AcDbLine
 10
407.0543058344
 20
679.1615169299
 30
0.0
 11
407.0543058344
 21
679.0365169299
 31
0.0
  0
LINE
  5
8A
330
1F
100
AcDbEntity
  8
SLD-0
  6
Continuous
 62
   179
370
    25
100
AcDbLine
 10
332.6454427969
 20
665.0365169299
 30
0.0
 11
332.6454427969
 21
646.4365169299
 31
0.0
  0
LINE
  5
8B
330
1F
100
AcDbEntity
  8
SLD-0
  6
Continuous
 62
   179
370
    25
100
AcDbLine
 10
721.659362396
 20
679.0365169299
 30
0.0
 11
336.2454427969
 21
679.0365169299
 31
0.0
  0
LINE
  5
8C
330
1F
100
AcDbEntity
  8
10
100
AcDbLine
 10
721.659362396
 20
665.0365169299
 30
0.0
 11
725.259362396
 21
665.0365169299
 31
0.0
  0
LINE
  5
8D
330
1F
100
AcDbEntity
  8
10
100
AcDbLine
 10
649.1454427969
 20
632.2365169299
 30
0.0
 11
649.1454427969
 21
635.8365169299
 31
0.0
  0
LINE
  5
8E
330
1F
100
AcDbEntity
  8
10
100
AcDbLine
 10
280.3698355816
 20
497.2971158484
 30
0.0
 11
280.3698355816
 21
452.1399158484
 31
0.0
  0
LINE
  5
8F
330
1F
100
AcDbEntity
  8
10
100
AcDbLine
 10
336.2454427969
 20
635.8365169299
 30
0.0
 11
409.1454427969
 21
635.8365169299
 31
0.0
  0
LINE
  5
90
330
1F
100
AcDbEntity
  8
10
100
AcDbLine
 10
247.5698355816
 20
618.4971158484
 30
0.0
 11
247.5698355816
 21
615.0971158484
 31
0.0
  0
LINE
  5
91
330
1F
100
AcDbEntity
  8
10
100
AcDbLine
 10
266.1698355816
 20
618.4971158484
 30
0.0
 11
266.1698355816
 21
615.0971158484
 31
0.0
  0
LINE
  5
92
330
1F
100
AcDbEntity
  8
10
100
AcDbLine
 10
649.1454427969
 20
635.8365169299
 30
0.0
 11
721.659362396
 21
635.8365169299
 31
0.0
  0
LINE
  5
93
330
1F
100
AcDbEntity
  8
10
100
AcDbLine
 10
409.1454427969
 20
615.0971158484
 30
0.0
 11
489.1454427969
 21
615.0971158484
 31
0.0
  0
LINE
  5
94
330
1F
100
AcDbEntity
  8
10
100
AcDbLine
 10
489.1454427969
 20
615.0971158484
 30
0.0
 11
489.1454427969
 21
618.4971158484
 31
0.0
  0
LINE
  5
95
330
1F
100
AcDbEntity
  8
10
100
AcDbLine
 10
569.1454427969
 20
615.0971158484
 30
0.0
 11
569.1454427969
 21
618.4971158484
 31
0.0
  0
LINE
  5
96
330
1F
100
AcDbEntity
  8
10
100
AcDbLine
 10
569.1454427969
 20
615.0971158484
 30
0.0
 11
649.1454427969
 21
615.0971158484
 31
0.0
  0
LINE
  5
97
330
1F
100
AcDbEntity
  8
SLD-0
  6
Continuous
 62
   179
370
    25
100
AcDbLine
 10
261.5559159824
 20
452.1399158484
 30
0.0
 11
261.5559159824
 21
412.1399158484
 31
0.0
  0
LINE
  5
98
330
1F
100
AcDbEntity
  8
SLD-0
  6
Continuous
 62
   179
370
    25
100
AcDbLine
 10
261.5559159824
 20
412.1399158484
 30
0.0
 11
276.7698355816
 21
412.1399158484
 31
0.0
  0
LINE
  5
99
330
1F
100
AcDbEntity
  8
10
100
AcDbLine
 10
408.759362396
 20
375.4971158484
 30
0.0
 11
648.759362396
 21
375.4971158484
 31
0.0
  0
LINE
  5
9A
330
1F
100
AcDbEntity
  8
SLD-0
  6
Continuous
 62
   179
370
    25
100
AcDbLine
 10
233.5698355816
 20
376.0971158484
 30
0.0
 11
233.5698355816
 21
618.4971158484
 31
0.0
  0
LINE
  5
9B
330
1F
100
AcDbEntity
  8
10
100
AcDbLine
 10
770.9605989812
 20
375.4971158484
 30
0.0
 11
784.9605989812
 21
375.4971158484
 31
0.0
  0
LINE
  5
9C
330
1F
100
AcDbEntity
  8
10
100
AcDbLine
 10
280.3698355816
 20
394.1399158484
 30
0.0
 11
280.3698355816
 21
375.4971158484
 31
0.0
  0
LINE
  5
9D
330
1F
100
AcDbEntity
  8
SLD-0
  6
Continuous
 62
   179
370
    25
100
AcDbLine
 10
261.5559159824
 20
452.1399158484
 30
0.0
 11
280.1698355816
 21
452.1399158484
 31
0.0
  0
LINE
  5
9E
330
1F
100
AcDbEntity
  8
10
100
AcDbLine
 10
409.1454427969
 20
615.0971158484
 30
0.0
 11
409.1454427969
 21
618.4971158484
 31
0.0
  0
LINE
  5
9F
330
1F
100
AcDbEntity
  8
10
100
AcDbLine
 10
721.659362396
 20
381.0971158484
 30
0.0
 11
648.759362396
 21
381.0971158484
 31
0.0
  0
LINE
  5
A0
330
1F
100
AcDbEntity
  8
0
  6
Continuous
 62
   179
370
    25
100
AcDbLine
 10
721.659362396
 20
296.0449427093
 30
0.0
 11
336.2454427969
 21
296.0449427093
 31
0.0
  0
LINE
  5
A1
330
1F
100
AcDbEntity
  8
10
100
AcDbLine
 10
648.759362396
 20
381.0971158484
 30
0.0
 11
648.759362396
 21
375.4971158484
 31
0.0
  0
LINE
  5
A2
330
1F
100
AcDbEntity
  8
10
100
AcDbLine
 10
649.1454427969
 20
615.0971158484
 30
0.0
 11
649.1454427969
 21
618.4971158484
 31
0.0
  0
LINE
  5
A3
330
1F
100
AcDbEntity
  8
10
100
AcDbLine
 10
648.759362396
 20
342.8449427093
 30
0.0
 11
648.759362396
 21
339.2449427093
 31
0.0
  0
LINE
  5
A4
330
1F
100
AcDbEntity
  8
10
100
AcDbLine
 10
489.1454427969
 20
632.2365169299
 30
0.0
 11
409.1454427969
 21
632.2365169299
 31
0.0
  0
LINE
  5
A5
330
1F
100
AcDbEntity
  8
10
100
AcDbLine
 10
649.1454427969
 20
632.2365169299
 30
0.0
 11
569.1454427969
 21
632.2365169299
 31
0.0
  0
LINE
  5
A6
330
1F
100
AcDbEntity
  8
10
100
AcDbLine
 10
569.1454427969
 20
632.2365169299
 30
0.0
 11
569.1454427969
 21
635.8365169299
 31
0.0
  0
LINE
  5
A7
330
1F
100
AcDbEntity
  8
10
100
AcDbLine
 10
489.1454427969
 20
618.6971158484
 30
0.0
 11
569.1454427969
 21
618.6971158484
 31
0.0
  0
LINE
  5
A8
330
1F
100
AcDbEntity
  8
10
100
AcDbLine
 10
409.1454427969
 20
632.2365169299
 30
0.0
 11
409.1454427969
 21
635.8365169299
 31
0.0
  0
LINE
  5
A9
330
1F
100
AcDbEntity
  8
0
  6
Continuous
 62
   179
370
    25
100
AcDbLine
 10
508.766490021
 20
565.1971158484
 30
0.0
 11
448.279362396
 21
565.1971158484
 31
0.0
  0
LINE
  5
AA
330
1F
100
AcDbEntity
  8
SLD-0
  6
Continuous
 62
   179
370
    25
100
AcDbLine
 10
433.1994383956
 20
524.907935848
 30
0.0
 11
433.219438396
 21
524.907935848
 31
0.0
  0
LINE
  5
AB
330
1F
100
AcDbEntity
  8
SLD-0
  6
Continuous
 62
   179
370
    25
100
AcDbLine
 10
425.199438396
 20
509.2851158484
 30
0.0
 11
425.199438396
 21
516.9079358484
 31
0.0
  0
LINE
  5
AC
330
1F
100
AcDbEntity
  8
SLD-0
  6
Continuous
 62
   179
370
    25
100
AcDbLine
 10
394.602338453
 20
509.2851158484
 30
0.0
 11
425.199438396
 21
509.2851158484
 31
0.0
  0
LINE
  5
AD
330
1F
100
AcDbEntity
  8
SLD-0
  6
Continuous
 62
   179
370
    25
100
AcDbLine
 10
425.2050823964
 20
431.9372638484
 30
0.0
 11
394.602338453
 21
431.9372638484
 31
0.0
  0
LINE
  5
AE
330
1F
100
AcDbEntity
  8
SLD-0
  6
Continuous
 62
   179
370
    25
100
AcDbLine
 10
425.2050823964
 20
418.9079358478
 30
0.0
 11
425.2050823964
 21
431.9372638484
 31
0.0
  0
LINE
  5
AF
330
1F
100
AcDbEntity
  8
SLD-0
  6
Continuous
 62
   179
370
    25
100
AcDbLine
 10
436.2050823964
 20
410.9079358482
 30
0.0
 11
433.205082396
 21
410.9079358482
 31
0.0
  0
LINE
  5
B0
330
1F
100
AcDbEntity
  8
SLD-0
  6
Continuous
 62
   179
370
    25
100
AcDbLine
 10
436.2050823964
 20
381.7677878482
 30
0.0
 11
436.2050823964
 21
410.9079358482
 31
0.0
  0
LINE
  5
B1
330
1F
100
AcDbEntity
  8
SLD-0
  6
Continuous
 62
   179
370
    25
100
AcDbLine
 10
546.219438396
 20
381.7677878482
 30
0.0
 11
436.2050823964
 21
381.7677878482
 31
0.0
  0
LINE
  5
B2
330
1F
100
AcDbEntity
  8
SLD-0
  6
Continuous
 62
   179
370
    25
100
AcDbLine
 10
546.219438396
 20
385.7677878482
 30
0.0
 11
546.219438396
 21
381.7677878482
 31
0.0
  0
LINE
  5
B3
330
1F
100
AcDbEntity
  8
SLD-0
  6
Continuous
 62
   179
370
    25
100
AcDbLine
 10
632.559362396
 20
385.7677878482
 30
0.0
 11
546.219438396
 21
385.7677878482
 31
0.0
  0
LINE
  5
B4
330
1F
100
AcDbEntity
  8
SLD-0
  6
Continuous
 62
   179
370
    25
100
AcDbLine
 10
632.559362396
 20
397.7971158486
 30
0.0
 11
632.559362396
 21
385.7677878482
 31
0.0
  0
LINE
  5
B5
330
1F
100
AcDbEntity
  8
SLD-0
  6
Continuous
 62
   179
370
    25
100
AcDbLine
 10
637.519438396
 20
397.7971158486
 30
0.0
 11
632.559362396
 21
397.7971158486
 31
0.0
  0
LINE
  5
B6
330
1F
100
AcDbEntity
  8
SLD-0
  6
Continuous
 62
   179
370
    25
100
AcDbLine
 10
637.519438396
 20
524.907935848
 30
0.0
 11
637.519438396
 21
397.7971158486
 31
0.0
  0
LINE
  5
B7
330
1F
100
AcDbEntity
  8
0
  6
Continuous
 62
   179
370
    25
100
AcDbLine
 10
448.279362396
 20
561.1971158484
 30
0.0
 11
508.766490021
 21
561.1971158484
 31
0.0
  0
LINE
  5
B8
330
1F
100
AcDbEntity
  8
0
  6
Continuous
 62
   179
370
    25
100
AcDbLine
 10
508.766490021
 20
595.1971158484
 30
0.0
 11
448.279362396
 21
595.1971158484
 31
0.0
  0
LINE
  5
B9
330
1F
100
AcDbEntity
  8
0
  6
Continuous
 62
   179
370
    25
100
AcDbLine
 10
508.766490021
 20
585.1971158484
 30
0.0
 11
448.279362396
 21
585.1971158484
 31
0.0
  0
LINE
  5
BA
330
1F
100
AcDbEntity
  8
0
  6
Continuous
 62
   179
370
    25
100
AcDbLine
 10
448.279362396
 20
551.1971158484
 30
0.0
 11
508.766490021
 21
551.1971158484
 31
0.0
  0
LINE
  5
BB
330
1F
100
AcDbEntity
  8
10
100
AcDbLine
 10
725.259362396
 20
618.6971158484
 30
0.0
 11
649.1454427969
 21
618.6971158484
 31
0.0
  0
LINE
  5
BC
330
1F
100
AcDbEntity
  8
10
100
AcDbLine
 10
489.1454427969
 20
632.2365169299
 30
0.0
 11
489.1454427969
 21
635.8365169299
 31
0.0
  0
LINE
  5
BD
330
1F
100
AcDbEntity
  8
10
100
AcDbLine
 10
489.1454427969
 20
635.8365169299
 30
0.0
 11
569.1454427969
 21
635.8365169299
 31
0.0
  0
LINE
  5
BE
330
1F
100
AcDbEntity
  8
10
100
AcDbLine
 10
408.759362396
 20
342.8449427093
 30
0.0
 11
408.759362396
 21
339.2449427093
 31
0.0
  0
LINE
  5
BF
330
1F
100
AcDbEntity
  8
10
100
AcDbLine
 10
408.759362396
 20
339.2449427093
 30
0.0
 11
648.759362396
 21
339.2449427093
 31
0.0
  0
LINE
  5
C0
330
1F
100
AcDbEntity
  8
10
100
AcDbLine
 10
408.759362396
 20
381.0971158484
 30
0.0
 11
408.759362396
 21
375.4971158484
 31
0.0
  0
LINE
  5
C1
330
1F
100
AcDbEntity
  8
10
100
AcDbLine
 10
408.759362396
 20
381.0971158484
 30
0.0
 11
336.2454427969
 21
381.0971158484
 31
0.0
  0
LINE
  5
C2
330
1F
100
AcDbEntity
  8
10
100
AcDbLine
 10
276.7698355816
 20
537.2971158484
 30
0.0
 11
276.7698355816
 21
497.2971158484
 31
0.0
  0
LINE
  5
C3
330
1F
100
AcDbEntity
  8
10
100
AcDbLine
 10
336.2454427969
 20
577.2971158484
 30
0.0
 11
336.2454427969
 21
537.2971158484
 31
0.0
  0
LINE
  5
C4
330
1F
100
AcDbEntity
  8
10
100
AcDbLine
 10
280.3698355816
 20
394.1399158484
 30
0.0
 11
276.7698355816
 21
394.1399158484
 31
0.0
  0
LINE
  5
C5
330
1F
100
AcDbEntity
  8
10
100
AcDbLine
 10
280.3698355816
 20
497.2971158484
 30
0.0
 11
276.7698355816
 21
497.2971158484
 31
0.0
  0
LINE
  5
C6
330
1F
100
AcDbEntity
  8
10
100
AcDbLine
 10
280.3698355816
 20
577.2971158484
 30
0.0
 11
276.7698355816
 21
577.2971158484
 31
0.0
  0
LINE
  5
C7
330
1F
100
AcDbEntity
  8
10
100
AcDbLine
 10
276.7698355816
 20
577.2971158484
 30
0.0
 11
276.7698355816
 21
618.6971158484
 31
0.0
  0
LINE
  5
C8
330
1F
100
AcDbEntity
  8
10
100
AcDbLine
 10
332.6454427969
 20
394.1399158484
 30
0.0
 11
332.6454427969
 21
412.1399158484
 31
0.0
  0
LINE
  5
C9
330
1F
100
AcDbEntity
  8
SLD-0
  6
Continuous
 62
   179
370
    25
100
AcDbLine
 10
385.21328104
 20
502.1394206938
 30
0.0
 11
387.2340069822
 21
498.6394206937
 31
0.0
  0
LINE
  5
CA
330
1F
100
AcDbEntity
  8
SLD-0
  6
Continuous
 62
   179
370
    25
100
AcDbLine
 10
381.1718291558
 20
502.1394206938
 30
0.0
 11
385.21328104
 21
502.1394206938
 31
0.0
  0
LINE
  5
CB
330
1F
100
AcDbEntity
  8
SLD-0
  6
Continuous
 62
   179
370
    25
100
AcDbLine
 10
379.1511032137
 20
498.6394206938
 30
0.0
 11
381.1718291558
 21
502.1394206938
 31
0.0
  0
LINE
  5
CC
330
1F
100
AcDbEntity
  8
SLD-0
  6
Continuous
 62
   179
370
    25
100
AcDbLine
 10
381.1718291558
 20
495.1394206938
 30
0.0
 11
379.1511032137
 21
498.6394206938
 31
0.0
  0
LINE
  5
CD
330
1F
100
AcDbEntity
  8
SLD-0
  6
Continuous
 62
   179
370
    25
100
AcDbLine
 10
385.2132810401
 20
495.1394206938
 30
0.0
 11
381.1718291558
 21
495.1394206938
 31
0.0
  0
LINE
  5
CE
330
1F
100
AcDbEntity
  8
SLD-0
  6
Continuous
 62
   179
370
    25
100
AcDbLine
 10
387.2340069822
 20
498.6394206937
 30
0.0
 11
385.2132810401
 21
495.1394206938
 31
0.0
  0
LINE
  5
CF
330
1F
100
AcDbEntity
  8
SLD-0
  6
Continuous
 62
   179
370
    25
100
AcDbLine
 10
368.8831540212
 20
502.1394206938
 30
0.0
 11
372.9246059054
 21
502.1394206938
 31
0.0
  0
LINE
  5
D0
330
1F
100
AcDbEntity
  8
SLD-0
  6
Continuous
 62
   179
370
    25
100
AcDbLine
 10
366.8624280791
 20
498.6394206938
 30
0.0
 11
368.8831540212
 21
502.1394206938
 31
0.0
  0
LINE
  5
D1
330
1F
100
AcDbEntity
  8
SLD-0
  6
Continuous
 62
   179
370
    25
100
AcDbLine
 10
368.8831540212
 20
495.1394206938
 30
0.0
 11
366.8624280791
 21
498.6394206938
 31
0.0
  0
LINE
  5
D2
330
1F
100
AcDbEntity
  8
SLD-0
  6
Continuous
 62
   179
370
    25
100
AcDbLine
 10
372.9246059055
 20
495.1394206938
 30
0.0
 11
368.8831540212
 21
495.1394206938
 31
0.0
  0
LINE
  5
D3
330
1F
100
AcDbEntity
  8
SLD-0
  6
Continuous
 62
   179
370
    25
100
AcDbLine
 10
374.9453318476
 20
498.6394206937
 30
0.0
 11
372.9246059055
 21
495.1394206938
 31
0.0
  0
LINE
  5
D4
330
1F
100
AcDbEntity
  8
SLD-0
  6
Continuous
 62
   179
370
    25
100
AcDbLine
 10
372.9246059054
 20
502.1394206938
 30
0.0
 11
374.9453318476
 21
498.6394206937
 31
0.0
  0
LINE
  5
D5
330
1F
100
AcDbEntity
  8
SLD-0
  6
Continuous
 62
   179
370
    25
100
AcDbLine
 10
664.1457202425
 20
487.9209142306
 30
0.0
 11
666.4551213192
 21
491.9209142306
 31
0.0
  0
LINE
  5
D6
330
1F
100
AcDbEntity
  8
SLD-0
  6
Continuous
 62
   179
370
    25
100
AcDbLine
 10
666.4551213192
 20
483.9209142306
 30
0.0
 11
664.1457202425
 21
487.9209142306
 31
0.0
  0
LINE
  5
D7
330
1F
100
AcDbEntity
  8
SLD-0
  6
Continuous
 62
   179
370
    25
100
AcDbLine
 10
671.0739234729
 20
483.9209142306
 30
0.0
 11
666.4551213192
 21
483.9209142306
 31
0.0
  0
LINE
  5
D8
330
1F
100
AcDbEntity
  8
SLD-0
  6
Continuous
 62
   179
370
    25
100
AcDbLine
 10
673.3833245496
 20
487.9209142305
 30
0.0
 11
671.0739234729
 21
483.9209142306
 31
0.0
  0
LINE
  5
D9
330
1F
100
AcDbEntity
  8
SLD-0
  6
Continuous
 62
   179
370
    25
100
AcDbLine
 10
671.0739234728
 20
491.9209142306
 30
0.0
 11
673.3833245496
 21
487.9209142305
 31
0.0
  0
LINE
  5
DA
330
1F
100
AcDbEntity
  8
SLD-0
  6
Continuous
 62
   179
370
    25
100
AcDbLine
 10
666.4551213192
 20
491.9209142306
 30
0.0
 11
671.0739234728
 21
491.9209142306
 31
0.0
  0
LINE
  5
DB
330
1F
100
AcDbEntity
  8
SLD-0
  6
Continuous
 62
   179
370
    25
100
AcDbLine
 10
672.4551213192
 20
473.5286093852
 30
0.0
 11
670.1457202425
 21
477.5286093852
 31
0.0
  0
LINE
  5
DC
330
1F
100
AcDbEntity
  8
SLD-0
  6
Continuous
 62
   179
370
    25
100
AcDbLine
 10
677.0739234729
 20
473.5286093852
 30
0.0
 11
672.4551213192
 21
473.5286093852
 31
0.0
  0
LINE
  5
DD
330
1F
100
AcDbEntity
  8
SLD-0
  6
Continuous
 62
   179
370
    25
100
AcDbLine
 10
679.3833245496
 20
477.5286093851
 30
0.0
 11
677.0739234729
 21
473.5286093852
 31
0.0
  0
LINE
  5
DE
330
1F
100
AcDbEntity
  8
SLD-0
  6
Continuous
 62
   179
370
    25
100
AcDbLine
 10
677.0739234728
 20
481.5286093852
 30
0.0
 11
679.3833245496
 21
477.5286093851
 31
0.0
  0
LINE
  5
DF
330
1F
100
AcDbEntity
  8
SLD-0
  6
Continuous
 62
   179
370
    25
100
AcDbLine
 10
672.4551213192
 20
481.5286093852
 30
0.0
 11
677.0739234728
 21
481.5286093852
 31
0.0
  0
LINE
  5
E0
330
1F
100
AcDbEntity
  8
SLD-0
  6
Continuous
 62
   179
370
    25
100
AcDbLine
 10
670.1457202425
 20
477.5286093852
 30
0.0
 11
672.4551213192
 21
481.5286093852
 31
0.0
  0
LINE
  5
E1
330
1F
100
AcDbEntity
  8
SLD-0
  6
Continuous
 62
   179
370
    25
100
AcDbLine
 10
689.0739234729
 20
473.5286093852
 30
0.0
 11
684.4551213192
 21
473.5286093852
 31
0.0
  0
LINE
  5
E2
330
1F
100
AcDbEntity
  8
SLD-0
  6
Continuous
 62
   179
370
    25
100
AcDbLine
 10
691.3833245496
 20
477.5286093851
 30
0.0
 11
689.0739234729
 21
473.5286093852
 31
0.0
  0
LINE
  5
E3
330
1F
100
AcDbEntity
  8
SLD-0
  6
Continuous
 62
   179
370
    25
100
AcDbLine
 10
689.0739234728
 20
481.5286093852
 30
0.0
 11
691.3833245496
 21
477.5286093851
 31
0.0
  0
LINE
  5
E4
330
1F
100
AcDbEntity
  8
SLD-0
  6
Continuous
 62
   179
370
    25
100
AcDbLine
 10
684.4551213192
 20
481.5286093852
 30
0.0
 11
689.0739234728
 21
481.5286093852
 31
0.0
  0
LINE
  5
E5
330
1F
100
AcDbEntity
  8
SLD-0
  6
Continuous
 62
   179
370
    25
100
AcDbLine
 10
682.1457202425
 20
477.5286093852
 30
0.0
 11
684.4551213192
 21
481.5286093852
 31
0.0
  0
LINE
  5
E6
330
1F
100
AcDbEntity
  8
SLD-0
  6
Continuous
 62
   179
370
    25
100
AcDbLine
 10
684.4551213192
 20
473.5286093852
 30
0.0
 11
682.1457202425
 21
477.5286093852
 31
0.0
  0
LINE
  5
E7
330
1F
100
AcDbEntity
  8
SLD-0
  6
Continuous
 62
   179
370
    25
100
AcDbLine
 10
697.3833245496
 20
487.9209142305
 30
0.0
 11
695.0739234729
 21
483.9209142306
 31
0.0
  0
LINE
  5
E8
330
1F
100
AcDbEntity
  8
SLD-0
  6
Continuous
 62
   179
370
    25
100
AcDbLine
 10
695.0739234728
 20
491.9209142306
 30
0.0
 11
697.3833245496
 21
487.9209142305
 31
0.0
  0
LINE
  5
E9
330
1F
100
AcDbEntity
  8
SLD-0
  6
Continuous
 62
   179
370
    25
100
AcDbLine
 10
690.4551213192
 20
491.9209142306
 30
0.0
 11
695.0739234728
 21
491.9209142306
 31
0.0
  0
LINE
  5
EA
330
1F
100
AcDbEntity
  8
SLD-0
  6
Continuous
 62
   179
370
    25
100
AcDbLine
 10
688.1457202425
 20
487.9209142306
 30
0.0
 11
690.4551213192
 21
491.9209142306
 31
0.0
  0
LINE
  5
EB
330
1F
100
AcDbEntity
  8
SLD-0
  6
Continuous
 62
   179
370
    25
100
AcDbLine
 10
690.4551213192
 20
483.9209142306
 30
0.0
 11
688.1457202425
 21
487.9209142306
 31
0.0
  0
LINE
  5
EC
330
1F
100
AcDbEntity
  8
SLD-0
  6
Continuous
 62
   179
370
    25
100
AcDbLine
 10
695.0739234729
 20
483.9209142306
 30
0.0
 11
690.4551213192
 21
483.9209142306
 31
0.0
  0
LINE
  5
ED
330
1F
100
AcDbEntity
  8
SLD-0
  6
Continuous
 62
   179
370
    25
100
AcDbLine
 10
689.0739234728
 20
502.313219076
 30
0.0
 11
691.3833245496
 21
498.3132190759
 31
0.0
  0
LINE
  5
EE
330
1F
100
AcDbEntity
  8
SLD-0
  6
Continuous
 62
   179
370
    25
100
AcDbLine
 10
684.4551213192
 20
502.313219076
 30
0.0
 11
689.0739234728
 21
502.313219076
 31
0.0
  0
LINE
  5
EF
330
1F
100
AcDbEntity
  8
SLD-0
  6
Continuous
 62
   179
370
    25
100
AcDbLine
 10
682.1457202425
 20
498.313219076
 30
0.0
 11
684.4551213192
 21
502.313219076
 31
0.0
  0
LINE
  5
F0
330
1F
100
AcDbEntity
  8
SLD-0
  6
Continuous
 62
   179
370
    25
100
AcDbLine
 10
684.4551213192
 20
494.313219076
 30
0.0
 11
682.1457202425
 21
498.313219076
 31
0.0
  0
LINE
  5
F1
330
1F
100
AcDbEntity
  8
SLD-0
  6
Continuous
 62
   179
370
    25
100
AcDbLine
 10
689.0739234729
 20
494.313219076
 30
0.0
 11
684.4551213192
 21
494.313219076
 31
0.0
  0
LINE
  5
F2
330
1F
100
AcDbEntity
  8
SLD-0
  6
Continuous
 62
   179
370
    25
100
AcDbLine
 10
691.3833245496
 20
498.3132190759
 30
0.0
 11
689.0739234729
 21
494.313219076
 31
0.0
  0
LINE
  5
F3
330
1F
100
AcDbEntity
  8
SLD-0
  6
Continuous
 62
   179
370
    25
100
AcDbLine
 10
672.4551213192
 20
502.313219076
 30
0.0
 11
677.0739234728
 21
502.313219076
 31
0.0
  0
LINE
  5
F4
330
1F
100
AcDbEntity
  8
SLD-0
  6
Continuous
 62
   179
370
    25
100
AcDbLine
 10
670.1457202425
 20
498.313219076
 30
0.0
 11
672.4551213192
 21
502.313219076
 31
0.0
  0
LINE
  5
F5
330
1F
100
AcDbEntity
  8
SLD-0
  6
Continuous
 62
   179
370
    25
100
AcDbLine
 10
672.4551213192
 20
494.313219076
 30
0.0
 11
670.1457202425
 21
498.313219076
 31
0.0
  0
LINE
  5
F6
330
1F
100
AcDbEntity
  8
SLD-0
  6
Continuous
 62
   179
370
    25
100
AcDbLine
 10
677.0739234729
 20
494.313219076
 30
0.0
 11
672.4551213192
 21
494.313219076
 31
0.0
  0
LINE
  5
F7
330
1F
100
AcDbEntity
  8
SLD-0
  6
Continuous
 62
   179
370
    25
100
AcDbLine
 10
679.3833245496
 20
498.3132190759
 30
0.0
 11
677.0739234729
 21
494.313219076
 31
0.0
  0
LINE
  5
F8
330
1F
100
AcDbEntity
  8
SLD-0
  6
Continuous
 62
   179
370
    25
100
AcDbLine
 10
677.0739234728
 20
502.313219076
 30
0.0
 11
679.3833245496
 21
498.3132190759
 31
0.0
  0
LINE
  5
F9
330
1F
100
AcDbEntity
  8
SLD-0
  6
Continuous
 62
   179
370
    25
100
AcDbLine
 10
360.7180905117
 20
487.9971158484
 30
0.0
 11
362.7388164538
 21
491.4971158484
 31
0.0
  0
LINE
  5
FA
330
1F
100
AcDbEntity
  8
SLD-0
  6
Continuous
 62
   179
370
    25
100
AcDbLine
 10
362.7388164538
 20
484.4971158484
 30
0.0
 11
360.7180905117
 21
487.9971158484
 31
0.0
  0
LINE
  5
FB
330
1F
100
AcDbEntity
  8
SLD-0
  6
Continuous
 62
   179
370
    25
100
AcDbLine
 10
366.7802683383
 20
484.4971158484
 30
0.0
 11
362.7388164538
 21
484.4971158484
 31
0.0
  0
LINE
  5
FC
330
1F
100
AcDbEntity
  8
SLD-0
  6
Continuous
 62
   179
370
    25
100
AcDbLine
 10
368.8009942804
 20
487.9971158483
 30
0.0
 11
366.7802683383
 21
484.4971158484
 31
0.0
  0
LINE
  5
FD
330
1F
100
AcDbEntity
  8
SLD-0
  6
Continuous
 62
   179
370
    25
100
AcDbLine
 10
366.7802683382
 20
491.4971158484
 30
0.0
 11
368.8009942804
 21
487.9971158483
 31
0.0
  0
LINE
  5
FE
330
1F
100
AcDbEntity
  8
SLD-0
  6
Continuous
 62
   179
370
    25
100
AcDbLine
 10
362.7388164538
 20
491.4971158484
 30
0.0
 11
366.7802683382
 21
491.4971158484
 31
0.0
  0
LINE
  5
FF
330
1F
100
AcDbEntity
  8
SLD-0
  6
Continuous
 62
   179
370
    25
100
AcDbLine
 10
368.8831540212
 20
473.854811003
 30
0.0
 11
366.8624280791
 21
477.354811003
 31
0.0
  0
LINE
  5
100
330
1F
100
AcDbEntity
  8
SLD-0
  6
Continuous
 62
   179
370
    25
100
AcDbLine
 10
372.9246059055
 20
473.854811003
 30
0.0
 11
368.8831540212
 21
473.854811003
 31
0.0
  0
LINE
  5
101
330
1F
100
AcDbEntity
  8
SLD-0
  6
Continuous
 62
   179
370
    25
100
AcDbLine
 10
374.9453318476
 20
477.3548110029
 30
0.0
 11
372.9246059055
 21
473.854811003
 31
0.0
  0
LINE
  5
102
330
1F
100
AcDbEntity
  8
SLD-0
  6
Continuous
 62
   179
370
    25
100
AcDbLine
 10
372.9246059054
 20
480.854811003
 30
0.0
 11
374.9453318476
 21
477.3548110029
 31
0.0
  0
LINE
  5
103
330
1F
100
AcDbEntity
  8
SLD-0
  6
Continuous
 62
   179
370
    25
100
AcDbLine
 10
368.8831540212
 20
480.854811003
 30
0.0
 11
372.9246059054
 21
480.854811003
 31
0.0
  0
LINE
  5
104
330
1F
100
AcDbEntity
  8
SLD-0
  6
Continuous
 62
   179
370
    25
100
AcDbLine
 10
366.8624280791
 20
477.354811003
 30
0.0
 11
368.8831540212
 21
480.854811003
 31
0.0
  0
LINE
  5
105
330
1F
100
AcDbEntity
  8
SLD-0
  6
Continuous
 62
   179
370
    25
100
AcDbLine
 10
372.7180905117
 20
487.9971158484
 30
0.0
 11
374.7388164538
 21
491.4971158484
 31
0.0
  0
LINE
  5
106
330
1F
100
AcDbEntity
  8
SLD-0
  6
Continuous
 62
   179
370
    25
100
AcDbLine
 10
374.7388164538
 20
484.4971158484
 30
0.0
 11
372.7180905117
 21
487.9971158484
 31
0.0
  0
LINE
  5
107
330
1F
100
AcDbEntity
  8
SLD-0
  6
Continuous
 62
   179
370
    25
100
AcDbLine
 10
378.7802683383
 20
484.4971158484
 30
0.0
 11
374.7388164538
 21
484.4971158484
 31
0.0
  0
LINE
  5
108
330
1F
100
AcDbEntity
  8
SLD-0
  6
Continuous
 62
   179
370
    25
100
AcDbLine
 10
380.8009942804
 20
487.9971158483
 30
0.0
 11
378.7802683383
 21
484.4971158484
 31
0.0
  0
LINE
  5
109
330
1F
100
AcDbEntity
  8
SLD-0
  6
Continuous
 62
   179
370
    25
100
AcDbLine
 10
378.7802683382
 20
491.4971158484
 30
0.0
 11
380.8009942804
 21
487.9971158483
 31
0.0
  0
LINE
  5
10A
330
1F
100
AcDbEntity
  8
SLD-0
  6
Continuous
 62
   179
370
    25
100
AcDbLine
 10
374.7388164538
 20
491.4971158484
 30
0.0
 11
378.7802683382
 21
491.4971158484
 31
0.0
  0
LINE
  5
10B
330
1F
100
AcDbEntity
  8
SLD-0
  6
Continuous
 62
   179
370
    25
100
AcDbLine
 10
676.1457202425
 20
487.9209142306
 30
0.0
 11
678.4551213192
 21
491.9209142306
 31
0.0
  0
LINE
  5
10C
330
1F
100
AcDbEntity
  8
SLD-0
  6
Continuous
 62
   179
370
    25
100
AcDbLine
 10
678.4551213192
 20
483.9209142306
 30
0.0
 11
676.1457202425
 21
487.9209142306
 31
0.0
  0
LINE
  5
10D
330
1F
100
AcDbEntity
  8
SLD-0
  6
Continuous
 62
   179
370
    25
100
AcDbLine
 10
683.0739234729
 20
483.9209142306
 30
0.0
 11
678.4551213192
 21
483.9209142306
 31
0.0
  0
LINE
  5
10E
330
1F
100
AcDbEntity
  8
SLD-0
  6
Continuous
 62
   179
370
    25
100
AcDbLine
 10
685.3833245496
 20
487.9209142305
 30
0.0
 11
683.0739234729
 21
483.9209142306
 31
0.0
  0
LINE
  5
10F
330
1F
100
AcDbEntity
  8
SLD-0
  6
Continuous
 62
   179
370
    25
100
AcDbLine
 10
683.0739234728
 20
491.9209142306
 30
0.0
 11
685.3833245496
 21
487.9209142305
 31
0.0
  0
LINE
  5
110
330
1F
100
AcDbEntity
  8
SLD-0
  6
Continuous
 62
   179
370
    25
100
AcDbLine
 10
678.4551213192
 20
491.9209142306
 30
0.0
 11
683.0739234728
 21
491.9209142306
 31
0.0
  0
LINE
  5
111
330
1F
100
AcDbEntity
  8
SLD-0
  6
Continuous
 62
   179
370
    25
100
AcDbLine
 10
385.2132810401
 20
473.854811003
 30
0.0
 11
381.1718291558
 21
473.854811003
 31
0.0
  0
LINE
  5
112
330
1F
100
AcDbEntity
  8
SLD-0
  6
Continuous
 62
   179
370
    25
100
AcDbLine
 10
387.2340069822
 20
477.3548110029
 30
0.0
 11
385.2132810401
 21
473.854811003
 31
0.0
  0
LINE
  5
113
330
1F
100
AcDbEntity
  8
SLD-0
  6
Continuous
 62
   179
370
    25
100
AcDbLine
 10
385.21328104
 20
480.854811003
 30
0.0
 11
387.2340069822
 21
477.3548110029
 31
0.0
  0
LINE
  5
114
330
1F
100
AcDbEntity
  8
SLD-0
  6
Continuous
 62
   179
370
    25
100
AcDbLine
 10
381.1718291558
 20
480.854811003
 30
0.0
 11
385.21328104
 21
480.854811003
 31
0.0
  0
LINE
  5
115
330
1F
100
AcDbEntity
  8
SLD-0
  6
Continuous
 62
   179
370
    25
100
AcDbLine
 10
379.1511032137
 20
477.354811003
 30
0.0
 11
381.1718291558
 21
480.854811003
 31
0.0
  0
LINE
  5
116
330
1F
100
AcDbEntity
  8
SLD-0
  6
Continuous
 62
   179
370
    25
100
AcDbLine
 10
381.1718291558
 20
473.854811003
 30
0.0
 11
379.1511032137
 21
477.354811003
 31
0.0
  0
LINE
  5
117
330
1F
100
AcDbEntity
  8
SLD-0
  6
Continuous
 62
   179
370
    25
100
AcDbLine
 10
393.3783445496
 20
487.9971158483
 30
0.0
 11
391.3576186075
 21
484.4971158484
 31
0.0
  0
LINE
  5
118
330
1F
100
AcDbEntity
  8
SLD-0
  6
Continuous
 62
   179
370
    25
100
AcDbLine
 10
391.3576186074
 20
491.4971158484
 30
0.0
 11
393.3783445496
 21
487.9971158483
 31
0.0
  0
LINE
  5
119
330
1F
100
AcDbEntity
  8
SLD-0
  6
Continuous
 62
   179
370
    25
100
AcDbLine
 10
387.316166723
 20
491.4971158484
 30
0.0
 11
391.3576186074
 21
491.4971158484
 31
0.0
  0
LINE
  5
11A
330
1F
100
AcDbEntity
  8
SLD-0
  6
Continuous
 62
   179
370
    25
100
AcDbLine
 10
385.2954407809
 20
487.9971158484
 30
0.0
 11
387.316166723
 21
491.4971158484
 31
0.0
  0
LINE
  5
11B
330
1F
100
AcDbEntity
  8
SLD-0
  6
Continuous
 62
   179
370
    25
100
AcDbLine
 10
387.316166723
 20
484.4971158484
 30
0.0
 11
385.2954407809
 21
487.9971158484
 31
0.0
  0
LINE
  5
11C
330
1F
100
AcDbEntity
  8
SLD-0
  6
Continuous
 62
   179
370
    25
100
AcDbLine
 10
391.3576186075
 20
484.4971158484
 30
0.0
 11
387.316166723
 21
484.4971158484
 31
0.0
  0
LINE
  5
11D
330
1F
100
AcDbEntity
  8
10
100
AcDbLine
 10
336.2454427969
 20
452.9399158484
 30
0.0
 11
336.2454427969
 21
452.2486994342
 31
0.0
  0
LINE
  5
11E
330
1F
100
AcDbEntity
  8
SLD-0
  6
Continuous
 62
   179
370
    25
100
AcDbLine
 10
351.0706427969
 20
412.8311322626
 30
0.0
 11
351.0706427969
 21
452.2486994342
 31
0.0
  0
LINE
  5
11F
330
1F
100
AcDbEntity
  8
10
100
AcDbLine
 10
332.6454427969
 20
665.0365169299
 30
0.0
 11
336.2454427969
 21
665.0365169299
 31
0.0
  0
LINE
  5
120
330
1F
100
AcDbEntity
  8
10
100
AcDbLine
 10
332.6454427969
 20
497.2971158484
 30
0.0
 11
332.6454427969
 21
537.2971158484
 31
0.0
  0
LINE
  5
121
330
1F
100
AcDbEntity
  8
10
100
AcDbLine
 10
247.5698355816
 20
618.6971158484
 30
0.0
 11
233.5698355816
 21
618.6971158484
 31
0.0
  0
LINE
  5
122
330
1F
100
AcDbEntity
  8
10
100
AcDbLine
 10
725.259362396
 20
618.6971158484
 30
0.0
 11
725.259362396
 21
577.2971158484
 31
0.0
  0
LINE
  5
123
330
1F
100
AcDbEntity
  8
10
100
AcDbLine
 10
336.2454427969
 20
394.1399158484
 30
0.0
 11
336.2454427969
 21
381.0971158484
 31
0.0
  0
LINE
  5
124
330
1F
100
AcDbEntity
  8
10
  6
Continuous
 62
   179
370
    25
100
AcDbLine
 10
407.0543058344
 20
295.9199427093
 30
0.0
 11
407.0543058344
 21
296.0449427093
 31
0.0
  0
LINE
  5
125
330
1F
100
AcDbEntity
  8
10
100
AcDbLine
 10
266.1698355816
 20
375.4971158484
 30
0.0
 11
280.3698355816
 21
375.4971158484
 31
0.0
  0
LINE
  5
126
330
1F
100
AcDbEntity
  8
10
100
AcDbLine
 10
332.8454427969
 20
394.1399158484
 30
0.0
 11
336.2454427969
 21
394.1399158484
 31
0.0
  0
LINE
  5
127
330
1F
100
AcDbEntity
  8
10
100
AcDbLine
 10
332.8454427969
 20
497.2971158484
 30
0.0
 11
336.2454427969
 21
497.2971158484
 31
0.0
  0
LINE
  5
128
330
1F
100
AcDbEntity
  8
10
100
AcDbLine
 10
725.259362396
 20
328.6449427093
 30
0.0
 11
725.259362396
 21
310.0449427093
 31
0.0
  0
LINE
  5
129
330
1F
100
AcDbEntity
  8
10
100
AcDbLine
 10
803.5605989812
 20
375.4971158484
 30
0.0
 11
817.5605989812
 21
375.4971158484
 31
0.0
  0
LINE
  5
12A
330
1F
100
AcDbEntity
  8
10
100
AcDbLine
 10
332.8454427969
 20
537.2971158484
 30
0.0
 11
336.2454427969
 21
537.2971158484
 31
0.0
  0
LINE
  5
12B
330
1F
100
AcDbEntity
  8
10
100
AcDbLine
 10
332.8454427969
 20
577.2971158484
 30
0.0
 11
336.2454427969
 21
577.2971158484
 31
0.0
  0
LINE
  5
12C
330
1F
100
AcDbEntity
  8
10
  6
Continuous
 62
     7
370
    18
100
AcDbLine
 10
648.759362396
 20
342.8449427093
 30
0.0
 11
721.659362396
 21
342.8449427093
 31
0.0
  0
LINE
  5
12D
330
1F
100
AcDbEntity
  8
10
100
AcDbLine
 10
332.6454427969
 20
310.0449427093
 30
0.0
 11
332.6454427969
 21
328.6449427093
 31
0.0
  0
LINE
  5
12E
330
1F
100
AcDbEntity
  8
10
100
AcDbLine
 10
770.7605989812
 20
497.2971158484
 30
0.0
 11
770.7605989812
 21
457.2971158484
 31
0.0
  0
LINE
  5
12F
330
1F
100
AcDbEntity
  8
10
100
AcDbLine
 10
803.946679382
 20
618.6971158484
 30
0.0
 11
817.946679382
 21
618.6971158484
 31
0.0
  0
LINE
  5
130
330
1F
100
AcDbEntity
  8
SLD-0
  6
Continuous
 62
   179
370
    25
100
AcDbLine
 10
817.5605989812
 20
618.4971158484
 30
0.0
 11
817.5605989812
 21
376.0971158484
 31
0.0
  0
LINE
  5
131
330
1F
100
AcDbEntity
  8
SLD-0
  6
Continuous
 62
   179
370
    25
100
AcDbLine
 10
793.3605989812
 20
482.7466958484
 30
0.0
 11
784.3605989812
 21
482.7466958484
 31
0.0
  0
LINE
  5
132
330
1F
100
AcDbEntity
  8
SLD-0
  6
Continuous
 62
   179
370
    25
100
AcDbLine
 10
784.3605989812
 20
482.7466958484
 30
0.0
 11
784.3605989812
 21
462.3466958484
 31
0.0
  0
LINE
  5
133
330
1F
100
AcDbEntity
  8
SLD-0
  6
Continuous
 62
   179
370
    25
100
AcDbLine
 10
784.3605989812
 20
462.3466958484
 30
0.0
 11
793.3605989812
 21
462.3466958484
 31
0.0
  0
LINE
  5
134
330
1F
100
AcDbEntity
  8
SLD-0
  6
Continuous
 62
   179
370
    25
100
AcDbLine
 10
793.3605989812
 20
462.3466958484
 30
0.0
 11
793.3605989812
 21
482.7466958484
 31
0.0
  0
LINE
  5
135
330
1F
100
AcDbEntity
  8
10
  6
Continuous
 62
   179
370
    25
100
AcDbLine
 10
407.0543058344
 20
354.0238876614
 30
0.0
 11
407.0543058344
 21
354.1488876614
 31
0.0
  0
LINE
  5
136
330
1F
100
AcDbEntity
  8
SLD-0
  6
Continuous
 62
   179
370
    25
100
AcDbLine
 10
793.9605989812
 20
450.7466958484
 30
0.0
 11
784.9605989812
 21
450.7466958484
 31
0.0
  0
LINE
  5
137
330
1F
100
AcDbEntity
  8
SLD-0
  6
Continuous
 62
   179
370
    25
100
AcDbLine
 10
784.9605989812
 20
450.7466958484
 30
0.0
 11
784.9605989812
 21
430.3466958484
 31
0.0
  0
LINE
  5
138
330
1F
100
AcDbEntity
  8
SLD-0
  6
Continuous
 62
   179
370
    25
100
AcDbLine
 10
784.9605989812
 20
430.3466958484
 30
0.0
 11
793.9605989812
 21
430.3466958484
 31
0.0
  0
LINE
  5
139
330
1F
100
AcDbEntity
  8
SLD-0
  6
Continuous
 62
   179
370
    25
100
AcDbLine
 10
793.9605989812
 20
430.3466958484
 30
0.0
 11
793.9605989812
 21
450.7466958484
 31
0.0
  0
LINE
  5
13A
330
1F
100
AcDbEntity
  8
SLD-0
  6
Continuous
 62
   179
370
    25
100
AcDbLine
 10
793.3605989812
 20
421.2141358484
 30
0.0
 11
779.7605989812
 21
421.2141358484
 31
0.0
  0
LINE
  5
13B
330
1F
100
AcDbEntity
  8
SLD-0
  6
Continuous
 62
   179
370
    25
100
AcDbLine
 10
779.7605989812
 20
421.2141358484
 30
0.0
 11
779.7605989812
 21
387.2141358484
 31
0.0
  0
LINE
  5
13C
330
1F
100
AcDbEntity
  8
SLD-0
  6
Continuous
 62
   179
370
    25
100
AcDbLine
 10
779.7605989812
 20
387.2141358484
 30
0.0
 11
793.3605989812
 21
387.2141358484
 31
0.0
  0
LINE
  5
13D
330
1F
100
AcDbEntity
  8
SLD-0
  6
Continuous
 62
   179
370
    25
100
AcDbLine
 10
793.3605989812
 20
387.2141358484
 30
0.0
 11
793.3605989812
 21
421.2141358484
 31
0.0
  0
LINE
  5
13E
330
1F
100
AcDbEntity
  8
10
  6
Continuous
 62
     7
370
    18
100
AcDbLine
 10
336.2454427969
 20
342.8449427093
 30
0.0
 11
408.759362396
 21
342.8449427093
 31
0.0
  0
LINE
  5
13F
330
1F
100
AcDbEntity
  8
10
100
AcDbLine
 10
280.3698355816
 20
537.2971158484
 30
0.0
 11
276.7698355816
 21
537.2971158484
 31
0.0
  0
LINE
  5
140
330
1F
100
AcDbEntity
  8
10
100
AcDbLine
 10
336.2454427969
 20
497.2971158484
 30
0.0
 11
336.2454427969
 21
452.9399158484
 31
0.0
  0
LINE
  5
141
330
1F
100
AcDbEntity
  8
10
100
AcDbLine
 10
276.7698355816
 20
412.1399158484
 30
0.0
 11
276.7698355816
 21
394.1399158484
 31
0.0
  0
LINE
  5
142
330
1F
100
AcDbEntity
  8
10
100
AcDbLine
 10
332.6454427969
 20
310.0449427093
 30
0.0
 11
336.2454427969
 21
310.0449427093
 31
0.0
  0
LINE
  5
143
330
1F
100
AcDbEntity
  8
10
100
AcDbLine
 10
774.3605989812
 20
417.2971158484
 30
0.0
 11
774.3605989812
 21
457.2971158484
 31
0.0
  0
LINE
  5
144
330
1F
100
AcDbEntity
  8
10
100
AcDbLine
 10
721.659362396
 20
577.2971158484
 30
0.0
 11
721.659362396
 21
537.2971158484
 31
0.0
  0
LINE
  5
145
330
1F
100
AcDbEntity
  8
10
100
AcDbLine
 10
725.259362396
 20
457.2971158484
 30
0.0
 11
721.659362396
 21
457.2971158484
 31
0.0
  0
LINE
  5
146
330
1F
100
AcDbEntity
  8
10
100
AcDbLine
 10
725.259362396
 20
417.2971158484
 30
0.0
 11
721.659362396
 21
417.2971158484
 31
0.0
  0
LINE
  5
147
330
1F
100
AcDbEntity
  8
10
100
AcDbLine
 10
721.659362396
 20
577.2971158484
 30
0.0
 11
725.259362396
 21
577.2971158484
 31
0.0
  0
LINE
  5
148
330
1F
100
AcDbEntity
  8
10
100
AcDbLine
 10
725.259362396
 20
537.2971158484
 30
0.0
 11
721.659362396
 21
537.2971158484
 31
0.0
  0
LINE
  5
149
330
1F
100
AcDbEntity
  8
10
100
AcDbLine
 10
721.659362396
 20
497.2971158484
 30
0.0
 11
725.259362396
 21
497.2971158484
 31
0.0
  0
LINE
  5
14A
330
1F
100
AcDbEntity
  8
10
100
AcDbLine
 10
774.3605989812
 20
577.2971158484
 30
0.0
 11
770.7605989812
 21
577.2971158484
 31
0.0
  0
LINE
  5
14B
330
1F
100
AcDbEntity
  8
10
100
AcDbLine
 10
774.3605989812
 20
537.2971158484
 30
0.0
 11
770.7605989812
 21
537.2971158484
 31
0.0
  0
LINE
  5
14C
330
1F
100
AcDbEntity
  8
10
100
AcDbLine
 10
721.659362396
 20
417.2971158484
 30
0.0
 11
721.659362396
 21
381.0971158484
 31
0.0
  0
LINE
  5
14D
330
1F
100
AcDbEntity
  8
10
100
AcDbLine
 10
280.3698355816
 20
577.2971158484
 30
0.0
 11
280.3698355816
 21
537.2971158484
 31
0.0
  0
LINE
  5
14E
330
1F
100
AcDbEntity
  8
SLD-0
  6
Continuous
 62
   179
370
    25
100
AcDbLine
 10
347.859362396
 20
591.1971158484
 30
0.0
 11
408.346490021
 21
591.1971158484
 31
0.0
  0
LINE
  5
14F
330
1F
100
AcDbEntity
  8
SLD-0
  6
Continuous
 62
   179
370
    25
100
AcDbLine
 10
408.346490021
 20
595.1971158484
 30
0.0
 11
347.859362396
 21
595.1971158484
 31
0.0
  0
LINE
  5
150
330
1F
100
AcDbEntity
  8
SLD-0
  6
Continuous
 62
   179
370
    25
100
AcDbLine
 10
649.319438396
 20
551.1971158484
 30
0.0
 11
709.659362396
 21
551.1971158484
 31
0.0
  0
LINE
  5
151
330
1F
100
AcDbEntity
  8
SLD-0
  6
Continuous
 62
   179
370
    25
100
AcDbLine
 10
709.659362396
 20
555.1971158484
 30
0.0
 11
649.319438396
 21
555.1971158484
 31
0.0
  0
LINE
  5
152
330
1F
100
AcDbEntity
  8
SLD-0
  6
Continuous
 62
   179
370
    25
100
AcDbLine
 10
649.319438396
 20
591.1971158484
 30
0.0
 11
709.659362396
 21
591.1971158484
 31
0.0
  0
LINE
  5
153
330
1F
100
AcDbEntity
  8
SLD-0
  6
Continuous
 62
   179
370
    25
100
AcDbLine
 10
709.659362396
 20
595.1971158484
 30
0.0
 11
649.319438396
 21
595.1971158484
 31
0.0
  0
LINE
  5
154
330
1F
100
AcDbEntity
  8
SLD-0
  6
Continuous
 62
   179
370
    25
100
AcDbLine
 10
347.859362396
 20
581.1971158484
 30
0.0
 11
408.346490021
 21
581.1971158484
 31
0.0
  0
LINE
  5
155
330
1F
100
AcDbEntity
  8
SLD-0
  6
Continuous
 62
   179
370
    25
100
AcDbLine
 10
408.346490021
 20
585.1971158484
 30
0.0
 11
347.859362396
 21
585.1971158484
 31
0.0
  0
LINE
  5
156
330
1F
100
AcDbEntity
  8
SLD-0
  6
Continuous
 62
   179
370
    25
100
AcDbLine
 10
347.859362396
 20
571.1971158484
 30
0.0
 11
408.346490021
 21
571.1971158484
 31
0.0
  0
LINE
  5
157
330
1F
100
AcDbEntity
  8
SLD-0
  6
Continuous
 62
   179
370
    25
100
AcDbLine
 10
408.346490021
 20
575.1971158484
 30
0.0
 11
347.859362396
 21
575.1971158484
 31
0.0
  0
LINE
  5
158
330
1F
100
AcDbEntity
  8
SLD-0
  6
Continuous
 62
   179
370
    25
100
AcDbLine
 10
347.859362396
 20
561.1971158484
 30
0.0
 11
408.346490021
 21
561.1971158484
 31
0.0
  0
LINE
  5
159
330
1F
100
AcDbEntity
  8
SLD-0
  6
Continuous
 62
   179
370
    25
100
AcDbLine
 10
408.346490021
 20
565.1971158484
 30
0.0
 11
347.859362396
 21
565.1971158484
 31
0.0
  0
LINE
  5
15A
330
1F
100
AcDbEntity
  8
SLD-0
  6
Continuous
 62
   179
370
    25
100
AcDbLine
 10
649.319438396
 20
561.1971158484
 30
0.0
 11
709.659362396
 21
561.1971158484
 31
0.0
  0
LINE
  5
15B
330
1F
100
AcDbEntity
  8
SLD-0
  6
Continuous
 62
   179
370
    25
100
AcDbLine
 10
709.659362396
 20
565.1971158484
 30
0.0
 11
649.319438396
 21
565.1971158484
 31
0.0
  0
LINE
  5
15C
330
1F
100
AcDbEntity
  8
SLD-0
  6
Continuous
 62
   179
370
    25
100
AcDbLine
 10
649.319438396
 20
571.1971158484
 30
0.0
 11
709.659362396
 21
571.1971158484
 31
0.0
  0
LINE
  5
15D
330
1F
100
AcDbEntity
  8
SLD-0
  6
Continuous
 62
   179
370
    25
100
AcDbLine
 10
709.659362396
 20
575.1971158484
 30
0.0
 11
649.319438396
 21
575.1971158484
 31
0.0
  0
LINE
  5
15E
330
1F
100
AcDbEntity
  8
SLD-0
  6
Continuous
 62
   179
370
    25
100
AcDbLine
 10
649.319438396
 20
581.1971158484
 30
0.0
 11
709.659362396
 21
581.1971158484
 31
0.0
  0
LINE
  5
15F
330
1F
100
AcDbEntity
  8
SLD-0
  6
Continuous
 62
   179
370
    25
100
AcDbLine
 10
709.659362396
 20
585.1971158484
 30
0.0
 11
649.319438396
 21
585.1971158484
 31
0.0
  0
LINE
  5
160
330
1F
100
AcDbEntity
  8
SLD-0
  6
Continuous
 62
   179
370
    25
100
AcDbLine
 10
347.859362396
 20
551.1971158484
 30
0.0
 11
408.346490021
 21
551.1971158484
 31
0.0
  0
LINE
  5
161
330
1F
100
AcDbEntity
  8
SLD-0
  6
Continuous
 62
   179
370
    25
100
AcDbLine
 10
408.346490021
 20
555.1971158484
 30
0.0
 11
347.859362396
 21
555.1971158484
 31
0.0
  0
LINE
  5
162
330
1F
100
AcDbEntity
  8
SLD-0
  6
Continuous
 62
   179
370
    25
100
AcDbLine
 10
394.602338453
 20
431.9372638484
 30
0.0
 11
394.602338453
 21
509.2851158484
 31
0.0
  0
LINE
  5
163
330
1F
100
AcDbEntity
  8
10
100
AcDbLine
 10
725.259362396
 20
457.2971158484
 30
0.0
 11
725.259362396
 21
417.2971158484
 31
0.0
  0
LINE
  5
164
330
1F
100
AcDbEntity
  8
10
100
AcDbLine
 10
774.3605989812
 20
497.2971158484
 30
0.0
 11
774.3605989812
 21
537.2971158484
 31
0.0
  0
LINE
  5
165
330
1F
100
AcDbEntity
  8
10
100
AcDbLine
 10
721.659362396
 20
497.2971158484
 30
0.0
 11
721.659362396
 21
457.2971158484
 31
0.0
  0
LINE
  5
166
330
1F
100
AcDbEntity
  8
10
100
AcDbLine
 10
770.7605989812
 20
417.2971158484
 30
0.0
 11
770.7605989812
 21
375.4971158484
 31
0.0
  0
LINE
  5
167
330
1F
100
AcDbEntity
  8
10
100
AcDbLine
 10
774.3605989812
 20
577.2971158484
 30
0.0
 11
774.3605989812
 21
618.4971158484
 31
0.0
  0
LINE
  5
168
330
1F
100
AcDbEntity
  8
10
100
AcDbLine
 10
725.259362396
 20
537.2971158484
 30
0.0
 11
725.259362396
 21
497.2971158484
 31
0.0
  0
LINE
  5
169
330
1F
100
AcDbEntity
  8
10
100
AcDbLine
 10
233.5698355816
 20
375.4971158484
 30
0.0
 11
247.5698355816
 21
375.4971158484
 31
0.0
  0
LINE
  5
16A
330
1F
100
AcDbEntity
  8
10
100
AcDbLine
 10
247.5698355816
 20
615.0971158484
 30
0.0
 11
266.1698355816
 21
615.0971158484
 31
0.0
  0
LINE
  5
16B
330
1F
100
AcDbEntity
  8
10
100
AcDbLine
 10
247.5698355816
 20
376.0971158484
 30
0.0
 11
247.5698355816
 21
380.8971158484
 31
0.0
  0
LINE
  5
16C
330
1F
100
AcDbEntity
  8
10
100
AcDbLine
 10
266.1698355816
 20
376.0971158484
 30
0.0
 11
266.1698355816
 21
380.8971158484
 31
0.0
  0
LINE
  5
16D
330
1F
100
AcDbEntity
  8
10
100
AcDbLine
 10
774.3605989812
 20
497.2971158484
 30
0.0
 11
770.7605989812
 21
497.2971158484
 31
0.0
  0
LINE
  5
16E
330
1F
100
AcDbEntity
  8
10
100
AcDbLine
 10
774.3605989812
 20
457.2971158484
 30
0.0
 11
770.7605989812
 21
457.2971158484
 31
0.0
  0
LINE
  5
16F
330
1F
100
AcDbEntity
  8
SLD-0
  6
Continuous
 62
   179
370
    25
100
AcDbLine
 10
637.5193257406
 20
441.7147576808
 30
0.0
 11
637.5193257406
 21
451.7147576808
 31
0.0
  0
LINE
  5
170
330
1F
100
AcDbEntity
  8
10
100
AcDbLine
 10
774.3605989812
 20
417.2971158484
 30
0.0
 11
770.7605989812
 21
417.2971158484
 31
0.0
  0
LINE
  5
171
330
1F
100
AcDbEntity
  8
10
100
AcDbLine
 10
247.5698355816
 20
380.8971158484
 30
0.0
 11
266.1698355816
 21
380.8971158484
 31
0.0
  0
LINE
  5
172
330
1F
100
AcDbEntity
  8
10
100
AcDbLine
 10
721.659362396
 20
328.6449427093
 30
0.0
 11
725.259362396
 21
328.6449427093
 31
0.0
  0
LINE
  5
173
330
1F
100
AcDbEntity
  8
10
100
AcDbLine
 10
803.5605989812
 20
376.0971158484
 30
0.0
 11
803.5605989812
 21
380.8971158484
 31
0.0
  0
LINE
  5
174
330
1F
100
AcDbEntity
  8
10
100
AcDbLine
 10
784.9605989812
 20
376.0971158484
 30
0.0
 11
784.9605989812
 21
380.8971158484
 31
0.0
  0
LINE
  5
175
330
1F
100
AcDbEntity
  8
10
100
AcDbLine
 10
784.9605989812
 20
380.8971158484
 30
0.0
 11
803.5605989812
 21
380.8971158484
 31
0.0
  0
LINE
  5
176
330
1F
100
AcDbEntity
  8
10
100
AcDbLine
 10
332.6454427969
 20
328.6449427093
 30
0.0
 11
336.2454427969
 21
328.6449427093
 31
0.0
  0
LINE
  5
177
330
1F
100
AcDbEntity
  8
10
100
AcDbLine
 10
803.946679382
 20
618.4971158484
 30
0.0
 11
803.946679382
 21
615.0971158484
 31
0.0
  0
LINE
  5
178
330
1F
100
AcDbEntity
  8
10
100
AcDbLine
 10
785.346679382
 20
618.4971158484
 30
0.0
 11
785.346679382
 21
615.0971158484
 31
0.0
  0
LINE
  5
179
330
1F
100
AcDbEntity
  8
10
100
AcDbLine
 10
774.3605989812
 20
618.6971158484
 30
0.0
 11
785.346679382
 21
618.6971158484
 31
0.0
  0
LINE
  5
17A
330
1F
100
AcDbEntity
  8
10
100
AcDbLine
 10
785.346679382
 20
615.0971158484
 30
0.0
 11
803.946679382
 21
615.0971158484
 31
0.0
  0
LINE
  5
17B
330
1F
100
AcDbEntity
  8
10
100
AcDbLine
 10
721.659362396
 20
646.4365169299
 30
0.0
 11
725.259362396
 21
646.4365169299
 31
0.0
  0
LINE
  5
17C
330
1F
100
AcDbEntity
  8
10
100
AcDbLine
 10
336.2454427969
 20
328.6449427093
 30
0.0
 11
336.2454427969
 21
342.8449427093
 31
0.0
  0
LINE
  5
17D
330
1F
100
AcDbEntity
  8
10
100
AcDbLine
 10
721.659362396
 20
665.0365169299
 30
0.0
 11
721.659362396
 21
679.0365169299
 31
0.0
  0
LINE
  5
17E
330
1F
100
AcDbEntity
  8
10
100
AcDbLine
 10
721.659362396
 20
679.0365169299
 30
0.0
 11
721.659362396
 21
665.0365169299
 31
0.0
  0
LINE
  5
17F
330
1F
100
AcDbEntity
  8
10
100
AcDbLine
 10
721.659362396
 20
635.8365169299
 30
0.0
 11
721.659362396
 21
646.4365169299
 31
0.0
  0
LINE
  5
180
330
1F
100
AcDbEntity
  8
10
100
AcDbLine
 10
721.659362396
 20
310.0449427093
 30
0.0
 11
725.259362396
 21
310.0449427093
 31
0.0
  0
LINE
  5
181
330
1F
100
AcDbEntity
  8
10
100
AcDbLine
 10
724.659362396
 20
188.6449427093
 30
0.0
 11
724.659362396
 21
170.0449427093
 31
0.0
  0
LINE
  5
182
330
1F
100
AcDbEntity
  8
10
100
AcDbLine
 10
721.659362396
 20
296.0449427093
 30
0.0
 11
721.659362396
 21
310.0449427093
 31
0.0
  0
LINE
  5
183
330
1F
100
AcDbEntity
  8
10
100
AcDbLine
 10
721.659362396
 20
328.6449427093
 30
0.0
 11
721.659362396
 21
342.8449427093
 31
0.0
  0
LINE
  5
184
330
1F
100
AcDbEntity
  8
10
100
AcDbLine
 10
336.2454427969
 20
310.0449427093
 30
0.0
 11
336.2454427969
 21
296.0449427093
 31
0.0
  0
LINE
  5
185
330
1F
100
AcDbEntity
  8
10
100
AcDbLine
 10
770.7605989812
 20
577.2971158484
 30
0.0
 11
770.7605989812
 21
537.2971158484
 31
0.0
  0
LINE
  5
186
330
1F
100
AcDbEntity
  8
10
100
AcDbLine
 10
770.9605989812
 20
375.4971158484
 30
0.0
 11
770.7605989812
 21
375.4971158484
 31
0.0
  0
LINE
  5
187
330
1F
100
AcDbEntity
  8
10
100
AcDbLine
 10
648.9393623961
 20
202.2449427093
 30
0.0
 11
721.659362396
 21
202.2449427093
 31
0.0
  0
LINE
  5
188
330
1F
100
AcDbEntity
  8
10
100
AcDbLine
 10
336.2454427969
 20
452.2486994342
 30
0.0
 11
351.0706427969
 21
452.2486994342
 31
0.0
  0
LINE
  5
189
330
1F
100
AcDbEntity
  8
10
100
AcDbLine
 10
332.8454427969
 20
412.1399158484
 30
0.0
 11
351.0706427969
 21
412.1399158484
 31
0.0
  0
LINE
  5
18A
330
1F
100
AcDbEntity
  8
10
100
AcDbLine
 10
351.0706427969
 20
412.8311322626
 30
0.0
 11
351.0706427969
 21
412.1399158484
 31
0.0
  0
LINE
  5
18B
330
1F
100
AcDbEntity
  8
10
100
AcDbLine
 10
332.6454427969
 20
646.4365169299
 30
0.0
 11
336.2454427969
 21
646.4365169299
 31
0.0
  0
LINE
  5
18C
330
1F
100
AcDbEntity
  8
10
100
AcDbLine
 10
336.2454427969
 20
646.4365169299
 30
0.0
 11
336.2454427969
 21
635.8365169299
 31
0.0
  0
LINE
  5
18D
330
1F
100
AcDbEntity
  8
10
100
AcDbLine
 10
336.2454427969
 20
665.0365169299
 30
0.0
 11
336.2454427969
 21
679.0365169299
 31
0.0
  0
LINE
  5
18E
330
1F
100
AcDbEntity
  8
10
100
AcDbLine
 10
498.039362396
 20
156.0449427093
 30
0.0
 11
336.239362396
 21
156.0449427093
 31
0.0
  0
LINE
  5
18F
330
1F
100
AcDbEntity
  8
0
  6
Continuous
 62
   179
370
    25
100
AcDbLine
 10
448.279362396
 20
591.1971158484
 30
0.0
 11
508.766490021
 21
591.1971158484
 31
0.0
  0
LINE
  5
190
330
1F
100
AcDbEntity
  8
10
100
AcDbLine
 10
498.039362396
 20
156.0449427093
 30
0.0
 11
498.039362396
 21
178.0449427093
 31
0.0
  0
LINE
  5
191
330
1F
100
AcDbEntity
  8
10
100
AcDbLine
 10
498.039362396
 20
178.0449427093
 30
0.0
 11
565.839362396
 21
178.0449427093
 31
0.0
  0
LINE
  5
192
330
1F
100
AcDbEntity
  8
10
100
AcDbLine
 10
565.839362396
 20
156.0449427093
 30
0.0
 11
565.839362396
 21
178.0449427093
 31
0.0
  0
LINE
  5
193
330
1F
100
AcDbEntity
  8
0
  6
Continuous
 62
   179
370
    25
100
AcDbLine
 10
508.766490021
 20
555.1971158484
 30
0.0
 11
448.279362396
 21
555.1971158484
 31
0.0
  0
LINE
  5
194
330
1F
100
AcDbEntity
  8
10
100
AcDbLine
 10
333.2315231977
 20
618.6971158484
 30
0.0
 11
409.1454427969
 21
618.6971158484
 31
0.0
  0
LINE
  5
195
330
1F
100
AcDbEntity
  8
10
  6
Continuous
 62
   179
370
    25
100
AcDbLine
 10
548.752234771
 20
555.1971158484
 30
0.0
 11
609.239362396
 21
555.1971158484
 31
0.0
  0
LINE
  5
196
330
1F
100
AcDbEntity
  8
10
  6
Continuous
 62
   179
370
    25
100
AcDbLine
 10
609.239362396
 20
591.1971158484
 30
0.0
 11
548.752234771
 21
591.1971158484
 31
0.0
  0
LINE
  5
197
330
1F
100
AcDbEntity
  8
10
  6
Continuous
 62
   179
370
    25
100
AcDbLine
 10
609.239362396
 20
551.1971158484
 30
0.0
 11
548.752234771
 21
551.1971158484
 31
0.0
  0
LINE
  5
198
330
1F
100
AcDbEntity
  8
10
  6
Continuous
 62
   179
370
    25
100
AcDbLine
 10
548.752234771
 20
585.1971158484
 30
0.0
 11
609.239362396
 21
585.1971158484
 31
0.0
  0
LINE
  5
199
330
1F
100
AcDbEntity
  8
10
  6
Continuous
 62
   179
370
    25
100
AcDbLine
 10
548.752234771
 20
595.1971158484
 30
0.0
 11
609.239362396
 21
595.1971158484
 31
0.0
  0
LINE
  5
19A
330
1F
100
AcDbEntity
  8
10
  6
Continuous
 62
   179
370
    25
100
AcDbLine
 10
609.239362396
 20
561.1971158484
 30
0.0
 11
548.752234771
 21
561.1971158484
 31
0.0
  0
LINE
  5
19B
330
1F
100
AcDbEntity
  8
10
  6
Continuous
 62
   179
370
    25
100
AcDbLine
 10
548.752234771
 20
565.1971158484
 30
0.0
 11
609.239362396
 21
565.1971158484
 31
0.0
  0
LINE
  5
19C
330
1F
100
AcDbEntity
  8
10
  6
Continuous
 62
   179
370
    25
100
AcDbLine
 10
548.752234771
 20
575.1971158484
 30
0.0
 11
609.239362396
 21
575.1971158484
 31
0.0
  0
LINE
  5
19D
330
1F
100
AcDbEntity
  8
10
  6
Continuous
 62
   179
370
    25
100
AcDbLine
 10
609.239362396
 20
581.1971158484
 30
0.0
 11
548.752234771
 21
581.1971158484
 31
0.0
  0
LINE
  5
19E
330
1F
100
AcDbEntity
  8
10
  6
Continuous
 62
   179
370
    25
100
AcDbLine
 10
609.239362396
 20
571.1971158484
 30
0.0
 11
548.752234771
 21
571.1971158484
 31
0.0
  0
LINE
  5
19F
330
1F
100
AcDbEntity
  8
10
100
AcDbLine
 10
276.7698355816
 20
618.6971158484
 30
0.0
 11
266.1698355816
 21
618.6971158484
 31
0.0
  0
LINE
  5
1A0
330
1F
100
AcDbEntity
  8
10
100
AcDbLine
 10
233.5698355816
 20
618.4971158484
 30
0.0
 11
233.5698355816
 21
618.6971158484
 31
0.0
  0
LINE
  5
1A1
330
1F
100
AcDbEntity
  8
10
100
AcDbLine
 10
247.5698355816
 20
618.4971158484
 30
0.0
 11
247.5698355816
 21
618.6971158484
 31
0.0
  0
LINE
  5
1A2
330
1F
100
AcDbEntity
  8
10
100
AcDbLine
 10
266.1698355816
 20
618.4971158484
 30
0.0
 11
266.1698355816
 21
618.6971158484
 31
0.0
  0
LINE
  5
1A3
330
1F
100
AcDbEntity
  8
10
100
AcDbLine
 10
721.659362396
 20
188.6449427093
 30
0.0
 11
724.659362396
 21
188.6449427093
 31
0.0
  0
LINE
  5
1A4
330
1F
100
AcDbEntity
  8
10
100
AcDbLine
 10
648.9393623961
 20
198.8449427093
 30
0.0
 11
408.9393623961
 21
198.8449427093
 31
0.0
  0
LINE
  5
1A5
330
1F
100
AcDbEntity
  8
10
100
AcDbLine
 10
408.9393623961
 20
202.2449427093
 30
0.0
 11
408.9393623961
 21
198.8449427093
 31
0.0
  0
LINE
  5
1A6
330
1F
100
AcDbEntity
  8
10
100
AcDbLine
 10
721.659362396
 20
170.0449427093
 30
0.0
 11
724.659362396
 21
170.0449427093
 31
0.0
  0
LINE
  5
1A7
330
1F
100
AcDbEntity
  8
10
100
AcDbLine
 10
721.659362396
 20
188.6449427093
 30
0.0
 11
721.659362396
 21
202.2449427093
 31
0.0
  0
LINE
  5
1A8
330
1F
100
AcDbEntity
  8
0
  6
Continuous
 62
     7
370
    18
100
AcDbLine
 10
333.239362396
 20
188.6449427093
 30
0.0
 11
336.239362396
 21
188.6449427093
 31
0.0
  0
LINE
  5
1A9
330
1F
100
AcDbEntity
  8
10
100
AcDbLine
 10
721.659362396
 20
170.0449427093
 30
0.0
 11
721.659362396
 21
156.0449427093
 31
0.0
  0
LINE
  5
1AA
330
1F
100
AcDbEntity
  8
10
100
AcDbLine
 10
648.9393623961
 20
202.2449427093
 30
0.0
 11
648.9393623961
 21
198.8449427093
 31
0.0
  0
LINE
  5
1AB
330
1F
100
AcDbEntity
  8
10
100
AcDbLine
 10
127.7374987813
 20
614.3971158484
 30
0.0
 11
127.7374987813
 21
615.7971158484
 31
0.0
  0
LINE
  5
1AC
330
1F
100
AcDbEntity
  8
0
  6
Continuous
 62
     7
370
    18
100
AcDbLine
 10
591.839362396
 20
178.0449427093
 30
0.0
 11
591.839362396
 21
156.0449427093
 31
0.0
  0
LINE
  5
1AD
330
1F
100
AcDbEntity
  8
0
  6
Continuous
 62
     7
370
    18
100
AcDbLine
 10
591.839362396
 20
178.0449427093
 30
0.0
 11
661.839362396
 21
178.0449427093
 31
0.0
  0
LINE
  5
1AE
330
1F
100
AcDbEntity
  8
0
  6
Continuous
 62
     7
370
    18
100
AcDbLine
 10
336.239362396
 20
170.0449427093
 30
0.0
 11
336.239362396
 21
156.0449427093
 31
0.0
  0
LINE
  5
1AF
330
1F
100
AcDbEntity
  8
0
  6
Continuous
 62
     7
370
    18
100
AcDbLine
 10
336.239362396
 20
202.2449427093
 30
0.0
 11
408.9393623961
 21
202.2449427093
 31
0.0
  0
LINE
  5
1B0
330
1F
100
AcDbEntity
  8
0
  6
Continuous
 62
   179
370
    25
100
AcDbLine
 10
721.659362396
 20
156.0449427093
 30
0.0
 11
661.839362396
 21
156.0449427093
 31
0.0
  0
LINE
  5
1B1
330
1F
100
AcDbEntity
  8
0
  6
Continuous
 62
     7
370
    18
100
AcDbLine
 10
591.839362396
 20
156.0449427093
 30
0.0
 11
565.839362396
 21
156.0449427093
 31
0.0
  0
LINE
  5
1B2
330
1F
100
AcDbEntity
  8
0
  6
Continuous
 62
   179
370
    25
100
AcDbLine
 10
407.2343058344
 20
155.9199427093
 30
0.0
 11
407.2343058344
 21
156.0449427093
 31
0.0
  0
LINE
  5
1B3
330
1F
100
AcDbEntity
  8
0
  6
Continuous
 62
   179
370
    25
100
AcDbLine
 10
333.239362396
 20
170.0449427093
 30
0.0
 11
333.239362396
 21
188.6449427093
 31
0.0
  0
LINE
  5
1B4
330
1F
100
AcDbEntity
  8
10
100
AcDbLine
 10
133.1374987813
 20
614.3971158484
 30
0.0
 11
133.1374987813
 21
615.7971158484
 31
0.0
  0
LINE
  5
1B5
330
1F
100
AcDbEntity
  8
0
  6
Continuous
 62
     7
370
    18
100
AcDbLine
 10
661.839362396
 20
178.0449427093
 30
0.0
 11
661.839362396
 21
156.0449427093
 31
0.0
  0
LINE
  5
1B6
330
1F
100
AcDbEntity
  8
10
100
AcDbLine
 10
121.4374987813
 20
655.0971158484
 30
0.0
 11
151.4374987813
 21
655.0971158484
 31
0.0
  0
LINE
  5
1B7
330
1F
100
AcDbEntity
  8
10
100
AcDbLine
 10
121.4374987813
 20
655.0971158484
 30
0.0
 11
121.4374987813
 21
441.0971158484
 31
0.0
  0
LINE
  5
1B8
330
1F
100
AcDbEntity
  8
0
  6
Continuous
 62
     7
370
    18
100
AcDbLine
 10
333.239362396
 20
170.0449427093
 30
0.0
 11
336.239362396
 21
170.0449427093
 31
0.0
  0
LINE
  5
1B9
330
1F
100
AcDbEntity
  8
0
  6
Continuous
 62
     7
370
    18
100
AcDbLine
 10
336.239362396
 20
188.6449427093
 30
0.0
 11
336.239362396
 21
202.2449427093
 31
0.0
  0
LINE
  5
1BA
330
1F
100
AcDbEntity
  8
10
100
AcDbLine
 10
409.1454427969
 20
618.4971158484
 30
0.0
 11
409.1454427969
 21
618.6971158484
 31
0.0
  0
LINE
  5
1BB
330
1F
100
AcDbEntity
  8
10
100
AcDbLine
 10
489.1454427969
 20
618.4971158484
 30
0.0
 11
489.1454427969
 21
618.6971158484
 31
0.0
  0
LINE
  5
1BC
330
1F
100
AcDbEntity
  8
10
100
AcDbLine
 10
569.1454427969
 20
618.4971158484
 30
0.0
 11
569.1454427969
 21
618.6971158484
 31
0.0
  0
LINE
  5
1BD
330
1F
100
AcDbEntity
  8
10
100
AcDbLine
 10
649.1454427969
 20
618.4971158484
 30
0.0
 11
649.1454427969
 21
618.6971158484
 31
0.0
  0
LINE
  5
1BE
330
1F
100
AcDbEntity
  8
10
100
AcDbLine
 10
121.4374987813
 20
441.0971158484
 30
0.0
 11
151.4374987813
 21
441.0971158484
 31
0.0
  0
LINE
  5
1BF
330
1F
100
AcDbEntity
  8
10
100
AcDbLine
 10
774.3605989812
 20
618.4971158484
 30
0.0
 11
774.3605989812
 21
618.6971158484
 31
0.0
  0
LINE
  5
1C0
330
1F
100
AcDbEntity
  8
10
100
AcDbLine
 10
785.346679382
 20
618.4971158484
 30
0.0
 11
785.346679382
 21
618.6971158484
 31
0.0
  0
LINE
  5
1C1
330
1F
100
AcDbEntity
  8
10
100
AcDbLine
 10
803.946679382
 20
618.4971158484
 30
0.0
 11
803.946679382
 21
618.6971158484
 31
0.0
  0
LINE
  5
1C2
330
1F
100
AcDbEntity
  8
10
100
AcDbLine
 10
817.5605989812
 20
618.4971158484
 30
0.0
 11
817.5605989812
 21
618.6971158484
 31
0.0
  0
LINE
  5
1C3
330
1F
100
AcDbEntity
  8
10
100
AcDbLine
 10
817.5605989812
 20
376.0971158484
 30
0.0
 11
817.5605989812
 21
375.4971158484
 31
0.0
  0
LINE
  5
1C4
330
1F
100
AcDbEntity
  8
10
100
AcDbLine
 10
803.5605989812
 20
376.0971158484
 30
0.0
 11
803.5605989812
 21
375.4971158484
 31
0.0
  0
LINE
  5
1C5
330
1F
100
AcDbEntity
  8
10
100
AcDbLine
 10
784.9605989812
 20
376.0971158484
 30
0.0
 11
784.9605989812
 21
375.4971158484
 31
0.0
  0
LINE
  5
1C6
330
1F
100
AcDbEntity
  8
10
100
AcDbLine
 10
151.4374987813
 20
655.0971158484
 30
0.0
 11
151.4374987813
 21
441.0971158484
 31
0.0
  0
LINE
  5
1C7
330
1F
100
AcDbEntity
  8
0
  6
Continuous
 62
     7
370
    18
100
AcDbLine
 10
139.7323667855
 20
614.3971158484
 30
0.0
 11
139.7323667855
 21
615.7971158484
 31
0.0
  0
LINE
  5
1C8
330
1F
100
AcDbEntity
  8
0
  6
Continuous
 62
     7
370
    18
100
AcDbLine
 10
145.1323667855
 20
614.3971158484
 30
0.0
 11
145.1323667855
 21
615.7971158484
 31
0.0
  0
LINE
  5
1C9
330
1F
100
AcDbEntity
  8
10
100
AcDbLine
 10
187.7374987813
 20
614.3971158484
 30
0.0
 11
187.7374987813
 21
615.7971158484
 31
0.0
  0
LINE
  5
1CA
330
1F
100
AcDbEntity
  8
10
100
AcDbLine
 10
266.1698355816
 20
376.0971158484
 30
0.0
 11
266.1698355816
 21
375.4971158484
 31
0.0
  0
LINE
  5
1CB
330
1F
100
AcDbEntity
  8
10
100
AcDbLine
 10
247.5698355816
 20
376.0971158484
 30
0.0
 11
247.5698355816
 21
375.4971158484
 31
0.0
  0
LINE
  5
1CC
330
1F
100
AcDbEntity
  8
10
100
AcDbLine
 10
233.5698355816
 20
376.0971158484
 30
0.0
 11
233.5698355816
 21
375.4971158484
 31
0.0
  0
LINE
  5
1CD
330
1F
100
AcDbEntity
  8
10
100
AcDbLine
 10
193.1374987813
 20
614.3971158484
 30
0.0
 11
193.1374987813
 21
615.7971158484
 31
0.0
  0
LINE
  5
1CE
330
1F
100
AcDbEntity
  8
10
100
AcDbLine
 10
333.2315231977
 20
618.6971158484
 30
0.0
 11
332.6454427969
 21
618.6971158484
 31
0.0
  0
LINE
  5
1CF
330
1F
100
AcDbEntity
  8
10
100
AcDbLine
 10
332.8454427969
 20
577.2971158484
 30
0.0
 11
332.6454427969
 21
577.2971158484
 31
0.0
  0
LINE
  5
1D0
330
1F
100
AcDbEntity
  8
10
100
AcDbLine
 10
332.8454427969
 20
537.2971158484
 30
0.0
 11
332.6454427969
 21
537.2971158484
 31
0.0
  0
LINE
  5
1D1
330
1F
100
AcDbEntity
  8
10
100
AcDbLine
 10
332.8454427969
 20
497.2971158484
 30
0.0
 11
332.6454427969
 21
497.2971158484
 31
0.0
  0
LINE
  5
1D2
330
1F
100
AcDbEntity
  8
10
100
AcDbLine
 10
332.8454427969
 20
412.1399158484
 30
0.0
 11
332.6454427969
 21
412.1399158484
 31
0.0
  0
LINE
  5
1D3
330
1F
100
AcDbEntity
  8
10
100
AcDbLine
 10
332.8454427969
 20
394.1399158484
 30
0.0
 11
332.6454427969
 21
394.1399158484
 31
0.0
  0
LINE
  5
1D4
330
1F
100
AcDbEntity
  8
10
100
AcDbLine
 10
181.4374987813
 20
655.0971158484
 30
0.0
 11
211.4374987813
 21
655.0971158484
 31
0.0
  0
LINE
  5
1D5
330
1F
100
AcDbEntity
  8
10
100
AcDbLine
 10
181.4374987813
 20
655.0971158484
 30
0.0
 11
181.4374987813
 21
441.0971158484
 31
0.0
  0
LINE
  5
1D6
330
1F
100
AcDbEntity
  8
10
100
AcDbLine
 10
725.259362396
 20
665.0365169299
 30
0.0
 11
725.259362396
 21
646.4365169299
 31
0.0
  0
LINE
  5
1D7
330
1F
100
AcDbEntity
  8
10
100
AcDbLine
 10
181.4374987813
 20
441.0971158484
 30
0.0
 11
211.4374987813
 21
441.0971158484
 31
0.0
  0
LINE
  5
1D8
330
1F
100
AcDbEntity
  8
10
100
AcDbLine
 10
280.1698355816
 20
452.1399158484
 30
0.0
 11
280.3698355816
 21
452.1399158484
 31
0.0
  0
LINE
  5
1D9
330
1F
100
AcDbEntity
  8
10
100
AcDbLine
 10
211.4374987813
 20
655.0971158484
 30
0.0
 11
211.4374987813
 21
441.0971158484
 31
0.0
  0
LINE
  5
1DA
330
1F
100
AcDbEntity
  8
0
  6
Continuous
 62
     7
370
    18
100
AcDbLine
 10
199.7323667855
 20
614.3971158484
 30
0.0
 11
199.7323667855
 21
615.7971158484
 31
0.0
  0
LINE
  5
1DB
330
1F
100
AcDbEntity
  8
0
  6
Continuous
 62
     7
370
    18
100
AcDbLine
 10
205.1323667855
 20
614.3971158484
 30
0.0
 11
205.1323667855
 21
615.7971158484
 31
0.0
  0
LINE
  5
1DC
330
1F
100
AcDbEntity
  8
10
100
AcDbLine
 10
725.059362396
 20
417.2971158484
 30
0.0
 11
725.059562396
 21
417.2971158484
 31
0.0
  0
LINE
  5
1DD
330
1F
100
AcDbEntity
  8
5
 62
     7
370
    25
100
AcDbLine
 10
0.0
 20
10.0
 30
0.0
 11
1179.0
 21
10.0
 31
0.0
  0
LINE
  5
1DE
330
1F
100
AcDbEntity
  8
5
 62
     7
370
    25
100
AcDbLine
 10
1179.0
 20
10.0
 30
0.0
 11
1179.0
 21
831.0500990257
 31
0.0
  0
LINE
  5
1DF
330
1F
100
AcDbEntity
  8
5
 62
     7
370
    25
100
AcDbLine
 10
1179.0
 20
831.0500990257
 30
0.0
 11
25.0
 21
831.0500990257
 31
0.0
  0
LINE
  5
1E0
330
1F
100
AcDbEntity
  8
5
 62
     7
370
    25
100
AcDbLine
 10
25.0
 20
831.0500990257
 30
0.0
 11
25.0
 21
10.0
 31
0.0
  0
LINE
  5
1E1
330
1F
100
AcDbEntity
  8
5
 62
     7
370
    25
100
AcDbLine
 10
25.0
 20
819.0
 30
0.0
 11
85.0
 21
819.0
 31
0.0
  0
LINE
  5
1E2
330
1F
100
AcDbEntity
  8
5
 62
     7
370
    25
100
AcDbLine
 10
85.0
 20
819.0
 30
0.0
 11
85.0
 21
831.0
 31
0.0
  0
LINE
  5
1E3
330
1F
100
AcDbEntity
  8
5
 62
     7
100
AcDbLine
 10
0.0
 20
0.0
 30
0.0
 11
1189.0
 21
0.0
 31
0.0
  0
LINE
  5
1E4
330
1F
100
AcDbEntity
  8
5
370
    25
100
AcDbLine
 10
602.0
 20
841.0
 30
0.0
 11
602.0
 21
826.0
 31
0.0
  0
LINE
  5
1E5
330
1F
100
AcDbEntity
  8
5
370
    25
100
AcDbLine
 10
602.0
 20
0.0
 30
0.0
 11
602.0
 21
15.0
 31
0.0
  0
LINE
  5
1E6
330
1F
100
AcDbEntity
  8
5
 62
     7
100
AcDbLine
 10
1189.0
 20
0.0
 30
0.0
 11
1189.0
 21
841.0
 31
0.0
  0
LINE
  5
1E7
330
1F
100
AcDbEntity
  8
5
370
    25
100
AcDbLine
 10
0.0
 20
420.5
 30
0.0
 11
30.0
 21
420.5
 31
0.0
  0
LINE
  5
1E8
330
1F
100
AcDbEntity
  8
5
370
    25
100
AcDbLine
 10
1189.0
 20
420.5
 30
0.0
 11
1174.0
 21
420.5
 31
0.0
  0
LINE
  5
1E9
330
1F
100
AcDbEntity
  8
5
 62
     7
100
AcDbLine
 10
1189.0
 20
841.0
 30
0.0
 11
0.0
 21
841.0
 31
0.0
  0
LINE
  5
1EA
330
1F
100
AcDbEntity
  8
5
100
AcDbLine
 10
52.0
 20
841.0
 30
0.0
 11
52.0
 21
831.0500990257
 31
0.0
  0
LINE
  5
1EB
330
1F
100
AcDbEntity
  8
5
100
AcDbLine
 10
102.0
 20
841.0
 30
0.0
 11
102.0
 21
831.0500990257
 31
0.0
  0
LINE
  5
1EC
330
1F
100
AcDbEntity
  8
5
 62
     7
100
AcDbLine
 10
0.0
 20
841.0
 30
0.0
 11
0.0
 21
0.0
 31
0.0
  0
LINE
  5
1ED
330
1F
100
AcDbEntity
  8
5
100
AcDbLine
 10
152.0
 20
841.0
 30
0.0
 11
152.0
 21
831.0500990257
 31
0.0
  0
LINE
  5
1EE
330
1F
100
AcDbEntity
  8
5
100
AcDbLine
 10
202.0
 20
841.0
 30
0.0
 11
202.0
 21
831.0500990257
 31
0.0
  0
LINE
  5
1EF
330
1F
100
AcDbEntity
  8
5
100
AcDbLine
 10
252.0
 20
841.0
 30
0.0
 11
252.0
 21
831.0500990257
 31
0.0
  0
LINE
  5
1F0
330
1F
100
AcDbEntity
  8
5
100
AcDbLine
 10
302.0
 20
841.0
 30
0.0
 11
302.0
 21
831.0500990257
 31
0.0
  0
LINE
  5
1F1
330
1F
100
AcDbEntity
  8
5
100
AcDbLine
 10
352.0
 20
841.0
 30
0.0
 11
352.0
 21
831.0500990257
 31
0.0
  0
LINE
  5
1F2
330
1F
100
AcDbEntity
  8
5
100
AcDbLine
 10
402.0
 20
841.0
 30
0.0
 11
402.0
 21
831.0500990257
 31
0.0
  0
LINE
  5
1F3
330
1F
100
AcDbEntity
  8
5
 62
     7
370
    25
100
AcDbLine
 10
1129.0
 20
38.0
 30
0.0
 11
1129.0
 21
10.0
 31
0.0
  0
LINE
  5
1F4
330
1F
100
AcDbEntity
  8
5
 62
     7
370
    25
100
AcDbLine
 10
1117.0
 20
48.0
 30
0.0
 11
1117.0
 21
28.0
 31
0.0
  0
LINE
  5
1F5
330
1F
100
AcDbEntity
  8
5
 62
     7
370
    25
100
AcDbLine
 10
1105.0
 20
48.0
 30
0.0
 11
1105.0
 21
28.0
 31
0.0
  0
LINE
  5
1F6
330
1F
100
AcDbEntity
  8
5
 62
     7
100
AcDbLine
 10
1098.5
 20
38.0
 30
0.0
 11
1098.5
 21
28.0
 31
0.0
  0
LINE
  5
1F7
330
1F
100
AcDbEntity
  8
5
 62
     7
100
AcDbLine
 10
1092.0
 20
38.0
 30
0.0
 11
1092.0
 21
28.0
 31
0.0
  0
LINE
  5
1F8
330
1F
100
AcDbEntity
  8
5
 62
     7
100
AcDbLine
 10
1085.5
 20
38.0
 30
0.0
 11
1085.5
 21
28.0
 31
0.0
  0
LINE
  5
1F9
330
1F
100
AcDbEntity
  8
5
 62
     7
370
    25
100
AcDbLine
 10
1079.0
 20
48.0
 30
0.0
 11
1179.0
 21
48.0
 31
0.0
  0
LINE
  5
1FA
330
1F
100
AcDbEntity
  8
5
 62
     7
370
    25
100
AcDbLine
 10
1079.0
 20
28.0
 30
0.0
 11
1179.0
 21
28.0
 31
0.0
  0
LINE
  5
1FB
330
1F
100
AcDbEntity
  8
5
 62
     7
370
    25
100
AcDbLine
 10
1079.0060750003
 20
18.9824004212
 30
0.0
 11
1179.0
 21
18.9824004212
 31
0.0
  0
LINE
  5
1FC
330
1F
100
AcDbEntity
  8
5
 62
     7
370
    25
100
AcDbLine
 10
1035.0
 20
66.0
 30
0.0
 11
1035.0
 21
38.0
 31
0.0
  0
LINE
  5
1FD
330
1F
100
AcDbEntity
  8
5
 62
     7
370
    25
100
AcDbLine
 10
1019.0
 20
66.0
 30
0.0
 11
1019.0
 21
38.0
 31
0.0
  0
LINE
  5
1FE
330
1F
100
AcDbEntity
  8
5
 62
     7
370
    25
100
AcDbLine
 10
1009.0
 20
66.0
 30
0.0
 11
1009.0
 21
38.0
 31
0.0
  0
LINE
  5
1FF
330
1F
100
AcDbEntity
  8
5
 62
     7
370
    25
100
AcDbLine
 10
1129.0
 20
66.0
 30
0.0
 11
1129.0
 21
38.0
 31
0.0
  0
LINE
  5
200
330
1F
100
AcDbEntity
  8
5
 62
     7
370
    25
100
AcDbLine
 10
1079.0
 20
66.0
 30
0.0
 11
1079.0
 21
10.0
 31
0.0
  0
LINE
  5
201
330
1F
100
AcDbEntity
  8
5
 62
     7
370
    25
100
AcDbLine
 10
1063.0
 20
66.0
 30
0.0
 11
1063.0
 21
10.0
 31
0.0
  0
LINE
  5
202
330
1F
100
AcDbEntity
  8
5
 62
     7
370
    25
100
AcDbLine
 10
1051.0
 20
66.0
 30
0.0
 11
1051.0
 21
10.0
 31
0.0
  0
LINE
  5
203
330
1F
100
AcDbEntity
  8
5
 62
     7
370
    25
100
AcDbLine
 10
1039.0
 20
38.0
 30
0.0
 11
1039.0
 21
10.0
 31
0.0
  0
LINE
  5
204
330
1F
100
AcDbEntity
  8
5
 62
     7
370
    25
100
AcDbLine
 10
1023.0
 20
38.0
 30
0.0
 11
1023.0
 21
10.0
 31
0.0
  0
LINE
  5
205
330
1F
100
AcDbEntity
  8
5
 62
     7
370
    25
100
AcDbLine
 10
1011.0
 20
38.0
 30
0.0
 11
1011.0
 21
10.0
 31
0.0
  0
LINE
  5
206
330
1F
100
AcDbEntity
  8
5
 62
     7
100
AcDbLine
 10
999.0
 20
59.0
 30
0.0
 11
1079.0
 21
59.0
 31
0.0
  0
LINE
  5
207
330
1F
100
AcDbEntity
  8
5
 62
     7
100
AcDbLine
 10
999.0
 20
52.0
 30
0.0
 11
1079.0
 21
52.0
 31
0.0
  0
LINE
  5
208
330
1F
100
AcDbEntity
  8
5
 62
     7
370
    25
100
AcDbLine
 10
999.0
 20
45.0
 30
0.0
 11
1079.0
 21
45.0
 31
0.0
  0
LINE
  5
209
330
1F
100
AcDbEntity
  8
5
 62
     7
370
    25
100
AcDbLine
 10
999.0
 20
38.0
 30
0.0
 11
1129.0
 21
38.0
 31
0.0
  0
LINE
  5
20A
330
1F
100
AcDbEntity
  8
5
 62
     7
370
    25
100
AcDbLine
 10
999.0
 20
31.0
 30
0.0
 11
1079.0
 21
31.0
 31
0.0
  0
LINE
  5
20B
330
1F
100
AcDbEntity
  8
5
 62
     7
370
    25
100
AcDbLine
 10
999.0
 20
24.0
 30
0.0
 11
1079.0
 21
24.0
 31
0.0
  0
LINE
  5
20C
330
1F
100
AcDbEntity
  8
5
 62
     7
370
    25
100
AcDbLine
 10
999.0
 20
17.0
 30
0.0
 11
1079.0
 21
17.0
 31
0.0
  0
LINE
  5
20D
330
1F
100
AcDbEntity
  8
5
 62
     7
370
    25
100
AcDbLine
 10
999.0
 20
66.0
 30
0.0
 11
1179.0
 21
66.0
 31
0.0
  0
LINE
  5
20E
330
1F
100
AcDbEntity
  8
5
 62
     7
370
    25
100
AcDbLine
 10
999.0
 20
66.0
 30
0.0
 11
999.0
 21
10.0
 31
0.0
  0
LINE
  5
20F
330
1F
100
AcDbEntity
  8
5
 62
     7
100
AcDbLine
 10
0.0
 20
96.0
 30
0.0
 11
25.0
 21
96.0
 31
0.0
  0
LINE
  5
210
330
1F
100
AcDbEntity
  8
5
 62
     7
100
AcDbLine
 10
0.0
 20
101.0
 30
0.0
 11
25.0
 21
101.0
 31
0.0
  0
LINE
  5
211
330
1F
100
AcDbEntity
  8
5
 62
     7
100
AcDbLine
 10
0.0
 20
83.0
 30
0.0
 11
25.0
 21
83.0
 31
0.0
  0
LINE
  5
212
330
1F
100
AcDbEntity
  8
5
 62
     7
100
AcDbLine
 10
0.0
 20
88.0
 30
0.0
 11
25.0
 21
88.0
 31
0.0
  0
LINE
  5
213
330
1F
100
AcDbEntity
  8
5
 62
     7
100
AcDbLine
 10
0.0
 20
70.0
 30
0.0
 11
25.0
 21
70.0
 31
0.0
  0
LINE
  5
214
330
1F
100
AcDbEntity
  8
5
 62
     7
100
AcDbLine
 10
0.0
 20
75.0
 30
0.0
 11
25.0
 21
75.0
 31
0.0
  0
LINE
  5
215
330
1F
100
AcDbEntity
  8
5
 62
     7
100
AcDbLine
 10
0.0
 20
57.0
 30
0.0
 11
25.0
 21
57.0
 31
0.0
  0
LINE
  5
216
330
1F
100
AcDbEntity
  8
5
 62
     7
100
AcDbLine
 10
0.0
 20
62.0
 30
0.0
 11
25.0
 21
62.0
 31
0.0
  0
LINE
  5
217
330
1F
100
AcDbEntity
  8
5
 62
     7
100
AcDbLine
 10
0.0
 20
44.0
 30
0.0
 11
25.0
 21
44.0
 31
0.0
  0
LINE
  5
218
330
1F
100
AcDbEntity
  8
5
 62
     7
100
AcDbLine
 10
0.0
 20
49.0
 30
0.0
 11
25.0
 21
49.0
 31
0.0
  0
LINE
  5
219
330
1F
100
AcDbEntity
  8
5
 62
     7
100
AcDbLine
 10
0.0
 20
31.0
 30
0.0
 11
25.0
 21
31.0
 31
0.0
  0
LINE
  5
21A
330
1F
100
AcDbEntity
  8
5
 62
     7
100
AcDbLine
 10
0.0
 20
36.0
 30
0.0
 11
25.0
 21
36.0
 31
0.0
  0
LINE
  5
21B
330
1F
100
AcDbEntity
  8
5
 62
     7
100
AcDbLine
 10
0.0
 20
23.0
 30
0.0
 11
25.0
 21
23.0
 31
0.0
  0
LINE
  5
21C
330
1F
100
AcDbEntity
  8
5
 62
     7
100
AcDbLine
 10
0.0
 20
18.0
 30
0.0
 11
25.0
 21
18.0
 31
0.0
  0
LINE
  5
21D
330
1F
100
AcDbEntity
  8
5
 62
     7
100
AcDbLine
 10
0.0
 20
109.0
 30
0.0
 11
25.0
 21
109.0
 31
0.0
  0
LINE
  5
21E
330
1F
100
AcDbEntity
  8
5
 62
     7
100
AcDbLine
 10
0.0
 20
114.0
 30
0.0
 11
25.0
 21
114.0
 31
0.0
  0
LINE
  5
21F
330
1F
100
AcDbEntity
  8
5
100
AcDbLine
 10
452.0
 20
841.0
 30
0.0
 11
452.0
 21
831.0500990257
 31
0.0
  0
LINE
  5
220
330
1F
100
AcDbEntity
  8
5
100
AcDbLine
 10
502.0
 20
841.0
 30
0.0
 11
502.0
 21
831.0500990257
 31
0.0
  0
LINE
  5
221
330
1F
100
AcDbEntity
  8
5
100
AcDbLine
 10
552.0
 20
841.0
 30
0.0
 11
552.0
 21
831.0500990257
 31
0.0
  0
LINE
  5
222
330
1F
100
AcDbEntity
  8
5
100
AcDbLine
 10
652.0
 20
841.0
 30
0.0
 11
652.0
 21
831.0500990257
 31
0.0
  0
LINE
  5
223
330
1F
100
AcDbEntity
  8
5
100
AcDbLine
 10
702.0
 20
841.0
 30
0.0
 11
702.0
 21
831.0500990257
 31
0.0
  0
LINE
  5
224
330
1F
100
AcDbEntity
  8
5
100
AcDbLine
 10
752.0
 20
841.0
 30
0.0
 11
752.0
 21
831.0500990257
 31
0.0
  0
LINE
  5
225
330
1F
100
AcDbEntity
  8
5
100
AcDbLine
 10
802.0
 20
841.0
 30
0.0
 11
802.0
 21
831.0500990257
 31
0.0
  0
LINE
  5
226
330
1F
100
AcDbEntity
  8
5
100
AcDbLine
 10
852.0
 20
841.0
 30
0.0
 11
852.0
 21
831.0500990257
 31
0.0
  0
LINE
  5
227
330
1F
100
AcDbEntity
  8
5
100
AcDbLine
 10
902.0
 20
841.0
 30
0.0
 11
902.0
 21
831.0500990257
 31
0.0
  0
LINE
  5
228
330
1F
100
AcDbEntity
  8
5
100
AcDbLine
 10
952.0
 20
841.0
 30
0.0
 11
952.0
 21
831.0500990257
 31
0.0
  0
LINE
  5
229
330
1F
100
AcDbEntity
  8
5
100
AcDbLine
 10
1002.0
 20
841.0
 30
0.0
 11
1002.0
 21
831.0500990257
 31
0.0
  0
LINE
  5
22A
330
1F
100
AcDbEntity
  8
5
100
AcDbLine
 10
1052.0
 20
841.0
 30
0.0
 11
1052.0
 21
831.0500990257
 31
0.0
  0
LINE
  5
22B
330
1F
100
AcDbEntity
  8
5
100
AcDbLine
 10
1102.0
 20
841.0
 30
0.0
 11
1102.0
 21
831.0500990257
 31
0.0
  0
LINE
  5
22C
330
1F
100
AcDbEntity
  8
5
100
AcDbLine
 10
1152.0
 20
841.0
 30
0.0
 11
1152.0
 21
831.0500990257
 31
0.0
  0
LINE
  5
22D
330
1F
100
AcDbEntity
  8
5
100
AcDbLine
 10
1189.0
 20
770.5
 30
0.0
 11
1179.0
 21
770.5
 31
0.0
  0
LINE
  5
22E
330
1F
100
AcDbEntity
  8
5
100
AcDbLine
 10
1189.0
 20
720.5
 30
0.0
 11
1179.0
 21
720.5
 31
0.0
  0
LINE
  5
22F
330
1F
100
AcDbEntity
  8
5
370
    25
100
AcDbLine
 10
1105.0
 20
18.9824004212
 30
0.0
 11
1105.0
 21
10.0
 31
0.0
  0
LINE
  5
230
330
1F
100
AcDbEntity
  8
5
100
AcDbLine
 10
1189.0
 20
670.5
 30
0.0
 11
1179.0
 21
670.5
 31
0.0
  0
LINE
  5
231
330
1F
100
AcDbEntity
  8
5
100
AcDbLine
 10
1189.0
 20
620.5
 30
0.0
 11
1179.0
 21
620.5
 31
0.0
  0
LINE
  5
232
330
1F
100
AcDbEntity
  8
5
100
AcDbLine
 10
1189.0
 20
570.5
 30
0.0
 11
1179.0
 21
570.5
 31
0.0
  0
LINE
  5
233
330
1F
100
AcDbEntity
  8
5
100
AcDbLine
 10
1189.0
 20
520.5
 30
0.0
 11
1179.0
 21
520.5
 31
0.0
  0
LINE
  5
234
330
1F
100
AcDbEntity
  8
5
100
AcDbLine
 10
1189.0
 20
470.5
 30
0.0
 11
1179.0
 21
470.5
 31
0.0
  0
LINE
  5
235
330
1F
100
AcDbEntity
  8
5
100
AcDbLine
 10
1189.0
 20
370.5
 30
0.0
 11
1179.0
 21
370.5
 31
0.0
  0
LINE
  5
236
330
1F
100
AcDbEntity
  8
5
100
AcDbLine
 10
1189.0
 20
320.5
 30
0.0
 11
1179.0
 21
320.5
 31
0.0
  0
LINE
  5
237
330
1F
100
AcDbEntity
  8
5
100
AcDbLine
 10
1189.0
 20
270.5
 30
0.0
 11
1179.0
 21
270.5
 31
0.0
  0
LINE
  5
238
330
1F
100
AcDbEntity
  8
5
100
AcDbLine
 10
1189.0
 20
220.5
 30
0.0
 11
1179.0
 21
220.5
 31
0.0
  0
LINE
  5
239
330
1F
100
AcDbEntity
  8
5
100
AcDbLine
 10
1189.0
 20
170.5
 30
0.0
 11
1179.0
 21
170.5
 31
0.0
  0
LINE
  5
23A
330
1F
100
AcDbEntity
  8
5
100
AcDbLine
 10
1189.0
 20
120.5
 30
0.0
 11
1179.0
 21
120.5
 31
0.0
  0
LINE
  5
23B
330
1F
100
AcDbEntity
  8
5
100
AcDbLine
 10
1189.0
 20
70.5
 30
0.0
 11
1179.0
 21
70.5
 31
0.0
  0
LINE
  5
23C
330
1F
100
AcDbEntity
  8
5
100
AcDbLine
 10
1152.0
 20
0.0
 30
0.0
 11
1152.0
 21
10.0
 31
0.0
  0
LINE
  5
23D
330
1F
100
AcDbEntity
  8
5
100
AcDbLine
 10
1102.0
 20
0.0
 30
0.0
 11
1102.0
 21
10.0
 31
0.0
  0
LINE
  5
23E
330
1F
100
AcDbEntity
  8
5
100
AcDbLine
 10
1052.0
 20
0.0
 30
0.0
 11
1052.0
 21
10.0
 31
0.0
  0
LINE
  5
23F
330
1F
100
AcDbEntity
  8
5
100
AcDbLine
 10
1002.0
 20
0.0
 30
0.0
 11
1002.0
 21
10.0
 31
0.0
  0
LINE
  5
240
330
1F
100
AcDbEntity
  8
5
100
AcDbLine
 10
952.0
 20
0.0
 30
0.0
 11
952.0
 21
10.0
 31
0.0
  0
LINE
  5
241
330
1F
100
AcDbEntity
  8
5
100
AcDbLine
 10
902.0
 20
0.0
 30
0.0
 11
902.0
 21
10.0
 31
0.0
  0
LINE
  5
242
330
1F
100
AcDbEntity
  8
5
100
AcDbLine
 10
852.0
 20
0.0
 30
0.0
 11
852.0
 21
10.0
 31
0.0
  0
LINE
  5
243
330
1F
100
AcDbEntity
  8
5
100
AcDbLine
 10
802.0
 20
0.0
 30
0.0
 11
802.0
 21
10.0
 31
0.0
  0
LINE
  5
244
330
1F
100
AcDbEntity
  8
5
100
AcDbLine
 10
752.0
 20
0.0
 30
0.0
 11
752.0
 21
10.0
 31
0.0
  0
LINE
  5
245
330
1F
100
AcDbEntity
  8
5
100
AcDbLine
 10
702.0
 20
0.0
 30
0.0
 11
702.0
 21
10.0
 31
0.0
  0
LINE
  5
246
330
1F
100
AcDbEntity
  8
5
100
AcDbLine
 10
652.0
 20
0.0
 30
0.0
 11
652.0
 21
10.0
 31
0.0
  0
LINE
  5
247
330
1F
100
AcDbEntity
  8
5
100
AcDbLine
 10
552.0
 20
0.0
 30
0.0
 11
552.0
 21
10.0
 31
0.0
  0
LINE
  5
248
330
1F
100
AcDbEntity
  8
5
100
AcDbLine
 10
502.0
 20
0.0
 30
0.0
 11
502.0
 21
10.0
 31
0.0
  0
LINE
  5
249
330
1F
100
AcDbEntity
  8
5
100
AcDbLine
 10
452.0
 20
0.0
 30
0.0
 11
452.0
 21
10.0
 31
0.0
  0
LINE
  5
24A
330
1F
100
AcDbEntity
  8
5
100
AcDbLine
 10
402.0
 20
0.0
 30
0.0
 11
402.0
 21
10.0
 31
0.0
  0
LINE
  5
24B
330
1F
100
AcDbEntity
  8
5
100
AcDbLine
 10
352.0
 20
0.0
 30
0.0
 11
352.0
 21
10.0
 31
0.0
  0
LINE
  5
24C
330
1F
100
AcDbEntity
  8
5
100
AcDbLine
 10
302.0
 20
0.0
 30
0.0
 11
302.0
 21
10.0
 31
0.0
  0
LINE
  5
24D
330
1F
100
AcDbEntity
  8
5
100
AcDbLine
 10
252.0
 20
0.0
 30
0.0
 11
252.0
 21
10.0
 31
0.0
  0
LINE
  5
24E
330
1F
100
AcDbEntity
  8
5
100
AcDbLine
 10
202.0
 20
0.0
 30
0.0
 11
202.0
 21
10.0
 31
0.0
  0
LINE
  5
24F
330
1F
100
AcDbEntity
  8
5
100
AcDbLine
 10
152.0
 20
0.0
 30
0.0
 11
152.0
 21
10.0
 31
0.0
  0
LINE
  5
250
330
1F
100
AcDbEntity
  8
5
100
AcDbLine
 10
102.0
 20
0.0
 30
0.0
 11
102.0
 21
10.0
 31
0.0
  0
LINE
  5
251
330
1F
100
AcDbEntity
  8
5
100
AcDbLine
 10
52.0
 20
0.0
 30
0.0
 11
52.0
 21
10.0
 31
0.0
  0
LINE
  5
252
330
1F
100
AcDbEntity
  8
5
100
AcDbLine
 10
0.0
 20
120.5
 30
0.0
 11
25.0
 21
120.5
 31
0.0
  0
LINE
  5
253
330
1F
100
AcDbEntity
  8
5
100
AcDbLine
 10
0.0
 20
170.5
 30
0.0
 11
25.0
 21
170.5
 31
0.0
  0
LINE
  5
254
330
1F
100
AcDbEntity
  8
5
100
AcDbLine
 10
0.0
 20
220.5
 30
0.0
 11
25.0
 21
220.5
 31
0.0
  0
LINE
  5
255
330
1F
100
AcDbEntity
  8
5
100
AcDbLine
 10
0.0
 20
270.5
 30
0.0
 11
25.0
 21
270.5
 31
0.0
  0
LINE
  5
256
330
1F
100
AcDbEntity
  8
5
100
AcDbLine
 10
0.0
 20
320.5
 30
0.0
 11
25.0
 21
320.5
 31
0.0
  0
LINE
  5
257
330
1F
100
AcDbEntity
  8
5
100
AcDbLine
 10
0.0
 20
370.5
 30
0.0
 11
25.0
 21
370.5
 31
0.0
  0
LINE
  5
258
330
1F
100
AcDbEntity
  8
5
100
AcDbLine
 10
0.0
 20
470.5
 30
0.0
 11
25.0
 21
470.5
 31
0.0
  0
LINE
  5
259
330
1F
100
AcDbEntity
  8
5
100
AcDbLine
 10
0.0
 20
520.5
 30
0.0
 11
25.0
 21
520.5
 31
0.0
  0
LINE
  5
25A
330
1F
100
AcDbEntity
  8
5
100
AcDbLine
 10
0.0
 20
570.5
 30
0.0
 11
25.0
 21
570.5
 31
0.0
  0
LINE
  5
25B
330
1F
100
AcDbEntity
  8
5
100
AcDbLine
 10
0.0
 20
620.5
 30
0.0
 11
25.0
 21
620.5
 31
0.0
  0
LINE
  5
25C
330
1F
100
AcDbEntity
  8
5
100
AcDbLine
 10
0.0
 20
670.5
 30
0.0
 11
25.0
 21
670.5
 31
0.0
  0
LINE
  5
25D
330
1F
100
AcDbEntity
  8
5
100
AcDbLine
 10
0.0
 20
720.5
 30
0.0
 11
25.0
 21
720.5
 31
0.0
  0
LINE
  5
25E
330
1F
100
AcDbEntity
  8
5
100
AcDbLine
 10
0.0
 20
770.5
 30
0.0
 11
25.0
 21
770.5
 31
0.0
  0
CIRCLE
  5
25F
330
1F
100
AcDbEntity
  8
10
100
AcDbCircle
 10
404.159362396
 20
389.7971158484
 30
0.0
 40
2.699999999999939
  0
CIRCLE
  5
260
330
1F
100
AcDbEntity
  8
0
  6
Continuous
 62
     7
370
    18
100
AcDbCircle
 10
416.159362396
 20
389.7971158484
 30
0.0
 40
2.699999999999939
  0
CIRCLE
  5
261
330
1F
100
AcDbEntity
  8
10
  6
Continuous
 62
     7
370
    18
100
AcDbCircle
 10
641.359362396
 20
389.7971158484
 30
0.0
 40
2.699999999999977
  0
CIRCLE
  5
262
330
1F
100
AcDbEntity
  8
10
  6
Continuous
 62
     7
370
    18
100
AcDbCircle
 10
653.359362396
 20
389.7971158484
 30
0.0
 40
2.69999999999996
  0
CIRCLE
  5
263
330
1F
100
AcDbEntity
  8
SLD-0
  6
Continuous
 62
   179
370
    25
100
AcDbCircle
 10
786.9605989812
 20
506.5466958484
 30
0.0
 40
2.000000000000049
  0
ARC
  5
264
330
1F
100
AcDbEntity
  8
10
100
AcDbCircle
 10
130.4374987813
 20
615.7971158484
 30
0.0
 40
2.69999999999996
100
AcDbArc
 50
0.0
 51
180.0
  0
ARC
  5
265
330
1F
100
AcDbEntity
  8
10
100
AcDbCircle
 10
190.4374987813
 20
615.7971158484
 30
0.0
 40
2.69999999999996
100
AcDbArc
 50
0.0
 51
180.0
  0
ARC
  5
266
330
1F
100
AcDbEntity
  8
10
100
AcDbCircle
 10
130.4374987813
 20
614.3971158484
 30
0.0
 40
2.699999999999989
100
AcDbArc
 50
180.0
 51
0.0
  0
ARC
  5
267
330
1F
100
AcDbEntity
  8
0
  6
Continuous
 62
     7
370
    18
100
AcDbCircle
 10
142.4323667855
 20
615.7971158484
 30
0.0
 40
2.69999999999996
100
AcDbArc
 50
0.0
 51
180.0
  0
ARC
  5
268
330
1F
100
AcDbEntity
  8
0
  6
Continuous
 62
     7
370
    18
100
AcDbCircle
 10
142.4323667855
 20
614.3971158484
 30
0.0
 40
2.69999999999996
100
AcDbArc
 50
180.0
 51
0.0
  0
ARC
  5
269
330
1F
100
AcDbEntity
  8
SLD-0
  6
Continuous
 62
   179
370
    25
100
AcDbCircle
 10
433.1994383956
 20
516.9079358484
 30
0.0
 40
7.99999999960005
100
AcDbArc
 50
90.0
 51
180.0
  0
ARC
  5
26A
330
1F
100
AcDbEntity
  8
SLD-0
  6
Continuous
 62
   179
370
    25
100
AcDbCircle
 10
433.205082396
 20
418.9079358478
 30
0.0
 40
7.999999999599993
100
AcDbArc
 50
180.0
 51
270.0
  0
ARC
  5
26B
330
1F
100
AcDbEntity
  8
SLD-0
  6
Continuous
 62
   179
370
    25
100
AcDbCircle
 10
347.859362396
 20
593.1971158484
 30
0.0
 40
2.0
100
AcDbArc
 50
90.0
 51
270.0
  0
ARC
  5
26C
330
1F
100
AcDbEntity
  8
SLD-0
  6
Continuous
 62
   179
370
    25
100
AcDbCircle
 10
408.346490021
 20
593.1971158484
 30
0.0
 40
2.0
100
AcDbArc
 50
270.0
 51
90.0
  0
ARC
  5
26D
330
1F
100
AcDbEntity
  8
SLD-0
  6
Continuous
 62
   179
370
    25
100
AcDbCircle
 10
649.319438396
 20
553.1971158484
 30
0.0
 40
2.0
100
AcDbArc
 50
90.0
 51
270.0
  0
ARC
  5
26E
330
1F
100
AcDbEntity
  8
SLD-0
  6
Continuous
 62
   179
370
    25
100
AcDbCircle
 10
709.659362396
 20
553.1971158484
 30
0.0
 40
2.0
100
AcDbArc
 50
270.0
 51
90.0
  0
ARC
  5
26F
330
1F
100
AcDbEntity
  8
SLD-0
  6
Continuous
 62
   179
370
    25
100
AcDbCircle
 10
649.319438396
 20
593.1971158484
 30
0.0
 40
2.0
100
AcDbArc
 50
90.0
 51
270.0
  0
ARC
  5
270
330
1F
100
AcDbEntity
  8
SLD-0
  6
Continuous
 62
   179
370
    25
100
AcDbCircle
 10
709.659362396
 20
593.1971158484
 30
0.0
 40
2.0
100
AcDbArc
 50
270.0
 51
90.0
  0
ARC
  5
271
330
1F
100
AcDbEntity
  8
SLD-0
  6
Continuous
 62
   179
370
    25
100
AcDbCircle
 10
347.859362396
 20
583.1971158484
 30
0.0
 40
2.000000000000114
100
AcDbArc
 50
90.0
 51
270.0
  0
ARC
  5
272
330
1F
100
AcDbEntity
  8
SLD-0
  6
Continuous
 62
   179
370
    25
100
AcDbCircle
 10
408.346490021
 20
583.1971158484
 30
0.0
 40
2.000000000000114
100
AcDbArc
 50
270.0
 51
90.0
  0
ARC
  5
273
330
1F
100
AcDbEntity
  8
SLD-0
  6
Continuous
 62
   179
370
    25
100
AcDbCircle
 10
347.859362396
 20
573.1971158484
 30
0.0
 40
2.0
100
AcDbArc
 50
90.0
 51
270.0
  0
ARC
  5
274
330
1F
100
AcDbEntity
  8
SLD-0
  6
Continuous
 62
   179
370
    25
100
AcDbCircle
 10
408.346490021
 20
573.1971158484
 30
0.0
 40
2.0
100
AcDbArc
 50
270.0
 51
90.0
  0
ARC
  5
275
330
1F
100
AcDbEntity
  8
SLD-0
  6
Continuous
 62
   179
370
    25
100
AcDbCircle
 10
347.859362396
 20
563.1971158484
 30
0.0
 40
2.0
100
AcDbArc
 50
90.0
 51
270.0
  0
ARC
  5
276
330
1F
100
AcDbEntity
  8
SLD-0
  6
Continuous
 62
   179
370
    25
100
AcDbCircle
 10
408.346490021
 20
563.1971158484
 30
0.0
 40
2.0
100
AcDbArc
 50
270.0
 51
90.0
  0
ARC
  5
277
330
1F
100
AcDbEntity
  8
SLD-0
  6
Continuous
 62
   179
370
    25
100
AcDbCircle
 10
649.319438396
 20
563.1971158484
 30
0.0
 40
2.0
100
AcDbArc
 50
90.0
 51
270.0
  0
ARC
  5
278
330
1F
100
AcDbEntity
  8
SLD-0
  6
Continuous
 62
   179
370
    25
100
AcDbCircle
 10
709.659362396
 20
563.1971158484
 30
0.0
 40
2.0
100
AcDbArc
 50
270.0
 51
90.0
  0
ARC
  5
279
330
1F
100
AcDbEntity
  8
SLD-0
  6
Continuous
 62
   179
370
    25
100
AcDbCircle
 10
649.319438396
 20
573.1971158484
 30
0.0
 40
2.0
100
AcDbArc
 50
90.0
 51
270.0
  0
ARC
  5
27A
330
1F
100
AcDbEntity
  8
SLD-0
  6
Continuous
 62
   179
370
    25
100
AcDbCircle
 10
709.659362396
 20
573.1971158484
 30
0.0
 40
2.0
100
AcDbArc
 50
270.0
 51
90.0
  0
ARC
  5
27B
330
1F
100
AcDbEntity
  8
SLD-0
  6
Continuous
 62
   179
370
    25
100
AcDbCircle
 10
649.319438396
 20
583.1971158484
 30
0.0
 40
2.000000000000114
100
AcDbArc
 50
90.0
 51
270.0
  0
ARC
  5
27C
330
1F
100
AcDbEntity
  8
SLD-0
  6
Continuous
 62
   179
370
    25
100
AcDbCircle
 10
709.659362396
 20
583.1971158484
 30
0.0
 40
2.000000000000114
100
AcDbArc
 50
270.0
 51
90.0
  0
ARC
  5
27D
330
1F
100
AcDbEntity
  8
SLD-0
  6
Continuous
 62
   179
370
    25
100
AcDbCircle
 10
347.859362396
 20
553.1971158484
 30
0.0
 40
2.0
100
AcDbArc
 50
90.0
 51
270.0
  0
ARC
  5
27E
330
1F
100
AcDbEntity
  8
SLD-0
  6
Continuous
 62
   179
370
    25
100
AcDbCircle
 10
408.346490021
 20
553.1971158484
 30
0.0
 40
2.0
100
AcDbArc
 50
270.0
 51
90.0
  0
CIRCLE
  5
27F
330
1F
100
AcDbEntity
  8
10
100
AcDbCircle
 10
413.762338453
 20
517.0051158484
 30
0.0
 40
2.70000000000001
  0
CIRCLE
  5
280
330
1F
100
AcDbEntity
  8
10
100
AcDbCircle
 10
643.759438396
 20
517.0051158484
 30
0.0
 40
2.70000000000001
  0
ARC
  5
281
330
1F
100
AcDbEntity
  8
0
  6
Continuous
 62
   179
370
    25
100
AcDbCircle
 10
508.766490021
 20
593.1971158484
 30
0.0
 40
2.0
100
AcDbArc
 50
270.0
 51
90.0
  0
ARC
  5
282
330
1F
100
AcDbEntity
  8
0
  6
Continuous
 62
   179
370
    25
100
AcDbCircle
 10
508.766490021
 20
563.1971158484
 30
0.0
 40
2.0
100
AcDbArc
 50
270.0
 51
90.0
  0
ARC
  5
283
330
1F
100
AcDbEntity
  8
0
  6
Continuous
 62
   179
370
    25
100
AcDbCircle
 10
448.279362396
 20
573.1971158484
 30
0.0
 40
2.0
100
AcDbArc
 50
90.0
 51
270.0
  0
ARC
  5
284
330
1F
100
AcDbEntity
  8
0
  6
Continuous
 62
   179
370
    25
100
AcDbCircle
 10
448.279362396
 20
583.1971158484
 30
0.0
 40
2.000000000000114
100
AcDbArc
 50
90.0
 51
270.0
  0
ARC
  5
285
330
1F
100
AcDbEntity
  8
0
  6
Continuous
 62
   179
370
    25
100
AcDbCircle
 10
448.279362396
 20
553.1971158484
 30
0.0
 40
2.0
100
AcDbArc
 50
90.0
 51
270.0
  0
ARC
  5
286
330
1F
100
AcDbEntity
  8
0
  6
Continuous
 62
   179
370
    25
100
AcDbCircle
 10
448.279362396
 20
563.1971158484
 30
0.0
 40
2.0
100
AcDbArc
 50
90.0
 51
270.0
  0
ARC
  5
287
330
1F
100
AcDbEntity
  8
0
  6
Continuous
 62
   179
370
    25
100
AcDbCircle
 10
508.766490021
 20
583.1971158484
 30
0.0
 40
2.000000000000114
100
AcDbArc
 50
270.0
 51
90.0
  0
ARC
  5
288
330
1F
100
AcDbEntity
  8
0
  6
Continuous
 62
   179
370
    25
100
AcDbCircle
 10
508.766490021
 20
553.1971158484
 30
0.0
 40
2.0
100
AcDbArc
 50
270.0
 51
90.0
  0
ARC
  5
289
330
1F
100
AcDbEntity
  8
0
  6
Continuous
 62
   179
370
    25
100
AcDbCircle
 10
448.279362396
 20
593.1971158484
 30
0.0
 40
2.0
100
AcDbArc
 50
90.0
 51
270.0
  0
ARC
  5
28A
330
1F
100
AcDbEntity
  8
0
  6
Continuous
 62
   179
370
    25
100
AcDbCircle
 10
508.766490021
 20
573.1971158484
 30
0.0
 40
2.0
100
AcDbArc
 50
270.0
 51
90.0
  0
ARC
  5
28B
330
1F
100
AcDbEntity
  8
10
  6
Continuous
 62
   179
370
    25
100
AcDbCircle
 10
548.752234771
 20
573.1971158484
 30
0.0
 40
2.0
100
AcDbArc
 50
90.0
 51
270.0
  0
ARC
  5
28C
330
1F
100
AcDbEntity
  8
10
  6
Continuous
 62
   179
370
    25
100
AcDbCircle
 10
609.239362396
 20
593.1971158484
 30
0.0
 40
2.0
100
AcDbArc
 50
270.0
 51
90.0
  0
ARC
  5
28D
330
1F
100
AcDbEntity
  8
10
  6
Continuous
 62
   179
370
    25
100
AcDbCircle
 10
548.752234771
 20
553.1971158484
 30
0.0
 40
2.0
100
AcDbArc
 50
90.0
 51
270.0
  0
ARC
  5
28E
330
1F
100
AcDbEntity
  8
10
  6
Continuous
 62
   179
370
    25
100
AcDbCircle
 10
548.752234771
 20
583.1971158484
 30
0.0
 40
2.0
100
AcDbArc
 50
90.0
 51
270.0
  0
ARC
  5
28F
330
1F
100
AcDbEntity
  8
10
  6
Continuous
 62
   179
370
    25
100
AcDbCircle
 10
609.239362396
 20
563.1971158484
 30
0.0
 40
2.0
100
AcDbArc
 50
270.0
 51
90.0
  0
ARC
  5
290
330
1F
100
AcDbEntity
  8
10
  6
Continuous
 62
   179
370
    25
100
AcDbCircle
 10
609.239362396
 20
553.1971158484
 30
0.0
 40
2.0
100
AcDbArc
 50
270.0
 51
90.0
  0
ARC
  5
291
330
1F
100
AcDbEntity
  8
10
  6
Continuous
 62
   179
370
    25
100
AcDbCircle
 10
609.239362396
 20
583.1971158484
 30
0.0
 40
2.0
100
AcDbArc
 50
270.0
 51
90.0
  0
ARC
  5
292
330
1F
100
AcDbEntity
  8
10
  6
Continuous
 62
   179
370
    25
100
AcDbCircle
 10
609.239362396
 20
573.1971158484
 30
0.0
 40
2.0
100
AcDbArc
 50
270.0
 51
90.0
  0
ARC
  5
293
330
1F
100
AcDbEntity
  8
10
  6
Continuous
 62
   179
370
    25
100
AcDbCircle
 10
548.752234771
 20
563.1971158484
 30
0.0
 40
2.0
100
AcDbArc
 50
90.0
 51
270.0
  0
ARC
  5
294
330
1F
100
AcDbEntity
  8
10
  6
Continuous
 62
   179
370
    25
100
AcDbCircle
 10
548.752234771
 20
593.1971158484
 30
0.0
 40
2.0
100
AcDbArc
 50
90.0
 51
270.0
  0
ARC
  5
295
330
1F
100
AcDbEntity
  8
10
100
AcDbCircle
 10
190.4374987813
 20
614.3971158484
 30
0.0
 40
2.699999999999989
100
AcDbArc
 50
180.0
 51
0.0
  0
ARC
  5
296
330
1F
100
AcDbEntity
  8
0
  6
Continuous
 62
     7
370
    18
100
AcDbCircle
 10
202.4323667855
 20
615.7971158484
 30
0.0
 40
2.69999999999996
100
AcDbArc
 50
0.0
 51
180.0
  0
ARC
  5
297
330
1F
100
AcDbEntity
  8
0
  6
Continuous
 62
     7
370
    18
100
AcDbCircle
 10
202.4323667855
 20
614.3971158484
 30
0.0
 40
2.69999999999996
100
AcDbArc
 50
180.0
 51
0.0
  0
DIMENSION
  5
298
330
1F
100
AcDbEntity
  8
10
100
AcDbDimension
  2
_D
 10
725.259362396
 20
687.0866807618
 30
0.0
 11
526.3105568029
 21
687.0866807618
 31
0.0
 70
   160
  1
<>
 71
     2
 42
-1.0
  3
SLDDIMSTYLE0
100
AcDbAlignedDimension
 13
332.6454427969
 23
665.0365169299
 33
0.0
 14
725.259362396
 24
665.0365169299
 34
0.0
100
AcDbRotatedDimension
  0
DIMENSION
  5
2A4
330
1F
100
AcDbEntity
  8
0
  6
Continuous
 62
     7
370
    18
100
AcDbDimension
  2
_D_1
 10
157.7374987813
 20
614.3971158484
 30
0.0
 11
157.7374987813
 21
614.3971158484
 31
0.0
 70
   160
  1
<>
 71
     1
 42
-1.0
  3
SLDDIMSTYLE1
100
AcDbAlignedDimension
 13
127.7374987813
 23
614.3971158484
 33
0.0
 14
187.7374987813
 24
614.3971158484
 34
0.0
 50
90.0
100
AcDbRotatedDimension
  0
INSERT
  5
2B4
330
1F
100
AcDbEntity
  8
10
100
AcDbBlockReference
  2
SW_NOTE_0
 10
752.3459052808
 20
337.7112389822
 30
0.0
  0
INSERT
  5
2BA
330
1F
100
AcDbEntity
  8
10
100
AcDbBlockReference
  2
SW_NOTE_1
 10
739.2127877053
 20
162.5041103135
 30
0.0
  0
MTEXT
  5
2BB
330
1F
100
AcDbEntity
  8
9
 62
     7
100
AcDbMText
 10
1046.4436859831
 20
15.2155137155
 30
0.0
 40
3.5
 41
0.0
 71
     2
 72
     1
  1
\M+194E1\M+18F79
  7
SLDTEXTSTYLE1
 73
     1
 44
1.0
  0
MTEXT
  5
2BC
330
1F
100
AcDbEntity
  8
9
 62
     7
100
AcDbMText
 10
1047.2390852894
 20
36.3583589522
 30
0.0
 40
3.5
 41
0.0
 71
     2
 72
     1
  1
标\M+18F79\M+189BB
  7
SLDTEXTSTYLE1
 73
     1
 44
1.0
  0
MTEXT
  5
2BD
330
1F
100
AcDbEntity
  8
9
 62
     7
100
AcDbMText
 10
1046.4622190695
 20
29.2301244306
 30
0.0
 40
3.5
 41
0.0
 71
     2
 72
     1
  1
\M+18D48艺
  7
SLDTEXTSTYLE1
 73
     1
 44
1.0
  0
MTEXT
  5
2BE
330
1F
100
AcDbEntity
  8
9
 62
     7
100
AcDbMText
 10
1046.4616113815
 20
22.2492697953
 30
0.0
 40
3.5
 41
0.0
 71
     2
 72
     1
  1
审\M+18A6A
  7
SLDTEXTSTYLE1
 73
     1
 44
1.0
  0
MTEXT
  5
2BF
330
1F
100
AcDbEntity
  8
9
 62
     7
100
AcDbMText
 10
1007.0092117198
 20
36.7666981282
 30
0.0
 40
3.5
 41
0.0
 71
     2
 72
     1
  1
设计
  7
SLDTEXTSTYLE1
 73
     1
 44
1.0
  0
MTEXT
  5
2C1
330
1F
100
AcDbEntity
  8
9
 62
     7
100
AcDbMText
 10
1099.45667993
 20
16.1881260123
 30
0.0
 40
3.5
 41
0.0
 71
     2
 72
     1
  1
\M+191E6  张
  7
SLDTEXTSTYLE2
 73
     1
 44
1.0
  0
MTEXT
  5
2C2
330
1F
100
AcDbEntity
  8
9
 62
     7
100
AcDbMText
 10
1087.4712234894
 20
16.1881260123
 30
0.0
 40
3.5
 41
0.0
 71
     2
 72
     1
  1
\M+18BA4  张
  7
SLDTEXTSTYLE2
 73
     1
 44
1.0
  0
MTEXT
  5
2C3
330
1F
100
AcDbEntity
  8
9
 62
     7
100
AcDbMText
 10
1125.0762467547
 20
44.8102693929
 30
0.0
 40
3.5
 41
0.0
 71
     2
 72
     1
  1
\M+194E4\M+197E1
  7
SLDTEXTSTYLE1
 73
     1
 44
1.0
  0
MTEXT
  5
2C4
330
1F
100
AcDbEntity
  8
9
 62
     7
100
AcDbMText
 10
1113.1827978509
 20
44.8102693929
 30
0.0
 40
3.5
 41
0.0
 71
     2
 72
     1
  1
\M+18F64\M+197CA
  7
SLDTEXTSTYLE1
 73
     1
 44
1.0
  0
MTEXT
  5
2C6
330
1F
100
AcDbEntity
  8
9
 62
     7
100
AcDbMText
 10
1095.0986969926
 20
44.8102693929
 30
0.0
 40
3.5
 41
0.0
 71
     2
 72
     1
  1
阶 \M+19269 标 记
  7
SLDTEXTSTYLE3
 73
     1
 44
1.0
  0
MTEXT
  5
2C8
330
1F
100
AcDbEntity
  8
9
 62
     7
100
AcDbMText
 10
1073.5807945129
 20
43.3061813932
 30
0.0
 40
3.5
 41
0.0
 71
     2
 72
     1
  1
\M+1944E \M+18C8E \M+193FA
  7
SLDTEXTSTYLE4
 73
     1
 44
1.0
  0
MTEXT
  5
2C9
330
1F
100
AcDbEntity
  8
9
 62
     7
100
AcDbMText
 10
1058.926533798
 20
43.3061813932
 30
0.0
 40
3.5
 41
0.0
 71
     2
 72
     1
  1
签\M+196BC
  7
SLDTEXTSTYLE1
 73
     1
 44
1.0
  0
MTEXT
  5
2CA
330
1F
100
AcDbEntity
  8
9
 62
     7
100
AcDbMText
 10
1046.9258887117
 20
43.3061813932
 30
0.0
 40
3.5
 41
0.0
 71
     2
 72
     1
  1
\M+18D58\M+189FC\M+195B6\M+18C8F\M+18D86
  7
SLDTEXTSTYLE1
 73
     1
 44
1.0
  0
MTEXT
  5
2CB
330
1F
100
AcDbEntity
  8
9
 62
     7
100
AcDbMText
 10
1028.6970802806
 20
43.3061813932
 30
0.0
 40
3.5
 41
0.0
 71
     2
 72
     1
  1
\M+195AA\M+18BE6
  7
SLDTEXTSTYLE1
 73
     1
 44
1.0
  0
MTEXT
  5
2CC
330
1F
100
AcDbEntity
  8
9
 62
     7
100
AcDbMText
 10
1015.540130016
 20
43.3061813932
 30
0.0
 40
3.5
 41
0.0
 71
     2
 72
     1
  1
处\M+19094
  7
SLDTEXTSTYLE1
 73
     1
 44
1.0
  0
MTEXT
  5
2CD
330
1F
100
AcDbEntity
  8
9
 62
     7
100
AcDbMText
 10
1005.6023040699
 20
43.3061813932
 30
0.0
 40
3.5
 41
0.0
 71
     2
 72
     1
  1
标记
  7
SLDTEXTSTYLE1
 73
     1
 44
1.0
  0
MTEXT
  5
2CE
330
1F
100
AcDbEntity
  8
9
 62
     7
100
AcDbMText
 10
4.2121999812
 20
48.4330616174
 30
0.0
 40
3.5
 41
0.0
 71
     1
 72
     1
  1
\M+192EA 图 总 \M+18D86
  7
SLDTEXTSTYLE3
 73
     1
 44
1.0
  0
MTEXT
  5
2CF
330
1F
100
AcDbEntity
  8
9
 62
     7
100
AcDbMText
 10
5.4590751331
 20
61.2005834783
 30
0.0
 40
3.5
 41
0.0
 71
     1
 72
     1
  1
\M+18B8C\M+192EA图总\M+18D86
  7
SLDTEXTSTYLE1
 73
     1
 44
1.0
  0
MTEXT
  5
2D0
330
1F
100
AcDbEntity
  8
9
 62
     7
100
AcDbMText
 10
2.9328244653
 20
100.2755981402
 30
0.0
 40
3.5
 41
0.0
 71
     1
 72
     1
  1
\M+18ED8(\M+192CA)\M+19770\M+18C8F\M+1936F记
  7
SLDTEXTSTYLE1
 73
     1
 44
1.0
  0
MTEXT
  5
2D2
330
1F
100
AcDbEntity
  8
9
 62
     7
100
AcDbMText
 10
14.1330338855
 20
87.1759998354
 30
0.0
 40
3.5
 41
0.0
 71
     2
 72
     1
  1
\M+19560    图
  7
SLDTEXTSTYLE5
 73
     1
 44
1.0
  0
MTEXT
  5
2D3
330
1F
100
AcDbEntity
  8
9
 62
     7
100
AcDbMText
 10
14.1005251397
 20
74.136513557
 30
0.0
 40
3.5
 41
0.0
 71
     2
 72
     1
  1
\M+19560    \M+18D5A
  7
SLDTEXTSTYLE5
 73
     1
 44
1.0
  0
MTEXT
  5
2D4
330
1F
100
AcDbEntity
  8
9
 62
     7
100
AcDbMText
 10
13.4869135908
 20
35.1925537595
 30
0.0
 40
3.5
 41
0.0
 71
     2
 72
     1
  1
签    \M+18E9A
  7
SLDTEXTSTYLE5
 73
     1
 44
1.0
  0
MTEXT
  5
2D5
330
1F
100
AcDbEntity
  8
9
 62
     7
100
AcDbMText
 10
13.564083445
 20
22.2333025367
 30
0.0
 40
3.5
 41
0.0
 71
     2
 72
     1
  1
\M+193FA    \M+18AFA
  7
SLDTEXTSTYLE5
 73
     1
 44
1.0
  0
MTEXT
  5
2D6
330
1F
100
AcDbEntity
  8
9
 62
     7
100
AcDbMText
 10
4.4821997088
 20
113.3598943616
 30
0.0
 40
3.5
 41
0.0
 71
     1
 72
     1
  1
\M+197EB \M+18C8F \M+191E3 \M+18D86
  7
SLDTEXTSTYLE3
 73
     1
 44
1.0
  0
MTEXT
  5
2D7
330
1F
100
AcDbEntity
  8
SLD-0
100
AcDbMText
 10
1130.8513100353
 20
16.1881257212
 30
0.0
 40
3.5
 41
0.0
 71
     1
 72
     1
  1
\M+191D6\M+191E3
  7
SLDTEXTSTYLE1
 73
     1
 44
1.0
  0
MTEXT
  5
2D8
330
1F
100
AcDbEntity
  8
10
 62
     7
100
AcDbMText
 10
1112.3076438363
 20
16.1881257212
 30
0.0
 40
3.5
 41
0.0
 71
     2
 72
     1
  1
\M+194C5\M+1967B
  7
SLDTEXTSTYLE1
 73
     1
 44
1.0
  0
MTEXT
  5
2D9
330
1F
100
AcDbEntity
  8
SLD-0
100
AcDbMText
 10
1124.4373146309
 20
35.1578012796
 30
0.0
 40
3.5
 41
0.0
 71
     2
 72
     1
  1
2:1
  7
SLDTEXTSTYLE0
 73
     1
 44
1.0
  0
MTEXT
  5
2DA
330
1F
100
AcDbEntity
  8
10
100
AcDbMText
 10
1006.9572585884
 20
29.8567954363
 30
0.0
 40
3.5
 41
0.0
 71
     2
 72
     1
  1
\M+18D5A\M+18A6A
  7
SLDTEXTSTYLE1
 73
     1
 44
1.0
  0
MTEXT
  5
2DB
330
1F
100
AcDbEntity
  8
10
100
AcDbMText
 10
1008.4885086685
 20
22.8296678056
 30
0.0
 40
3.5
 41
0.0
 71
     2
 72
     1
  1
\M+18EE5\M+18AC7设计
  7
SLDTEXTSTYLE1
 73
     1
 44
1.0
  0
MTEXT
  5
2DC
330
1F
100
AcDbEntity
  8
10
100
AcDbMText
 10
26.5444444427
 20
7.0433827706
 30
0.0
 40
3.5
 41
0.0
 71
     2
 72
     1
  1
1
  7
SLDTEXTSTYLE0
 73
     1
 44
1.0
  0
MTEXT
  5
2DD
330
1F
100
AcDbEntity
  8
10
100
AcDbMText
 10
77.5444444427
 20
7.0433827706
 30
0.0
 40
3.5
 41
0.0
 71
     2
 72
     1
  1
2
  7
SLDTEXTSTYLE0
 73
     1
 44
1.0
  0
MTEXT
  5
2DE
330
1F
100
AcDbEntity
  8
10
100
AcDbMText
 10
1128.0888888855
 20
7.0433827706
 30
0.0
 40
3.5
 41
0.0
 71
     2
 72
     1
  1
23
  7
SLDTEXTSTYLE0
 73
     1
 44
1.0
  0
MTEXT
  5
2DF
330
1F
100
AcDbEntity
  8
10
100
AcDbMText
 10
1078.0888888855
 20
7.0433827706
 30
0.0
 40
3.5
 41
0.0
 71
     2
 72
     1
  1
22
  7
SLDTEXTSTYLE0
 73
     1
 44
1.0
  0
MTEXT
  5
2E0
330
1F
100
AcDbEntity
  8
10
100
AcDbMText
 10
1028.0888888855
 20
7.0433827706
 30
0.0
 40
3.5
 41
0.0
 71
     2
 72
     1
  1
21
  7
SLDTEXTSTYLE0
 73
     1
 44
1.0
  0
MTEXT
  5
2E1
330
1F
100
AcDbEntity
  8
10
100
AcDbMText
 10
978.0888888855
 20
7.0433827706
 30
0.0
 40
3.5
 41
0.0
 71
     2
 72
     1
  1
20
  7
SLDTEXTSTYLE0
 73
     1
 44
1.0
  0
MTEXT
  5
2E2
330
1F
100
AcDbEntity
  8
10
100
AcDbMText
 10
928.0913194045
 20
7.0433827706
 30
0.0
 40
3.5
 41
0.0
 71
     2
 72
     1
  1
19
  7
SLDTEXTSTYLE0
 73
     1
 44
1.0
  0
MTEXT
  5
2E3
330
1F
100
AcDbEntity
  8
10
100
AcDbMText
 10
878.0913194045
 20
7.0433827706
 30
0.0
 40
3.5
 41
0.0
 71
     2
 72
     1
  1
18
  7
SLDTEXTSTYLE0
 73
     1
 44
1.0
  0
MTEXT
  5
2E4
330
1F
100
AcDbEntity
  8
10
100
AcDbMText
 10
828.0913194045
 20
7.0433827706
 30
0.0
 40
3.5
 41
0.0
 71
     2
 72
     1
  1
17
  7
SLDTEXTSTYLE0
 73
     1
 44
1.0
  0
MTEXT
  5
2E5
330
1F
100
AcDbEntity
  8
10
100
AcDbMText
 10
778.0913194045
 20
7.0433827706
 30
0.0
 40
3.5
 41
0.0
 71
     2
 72
     1
  1
16
  7
SLDTEXTSTYLE0
 73
     1
 44
1.0
  0
MTEXT
  5
2E6
330
1F
100
AcDbEntity
  8
10
100
AcDbMText
 10
728.0888888855
 20
7.0433827706
 30
0.0
 40
3.5
 41
0.0
 71
     2
 72
     1
  1
15
  7
SLDTEXTSTYLE0
 73
     1
 44
1.0
  0
MTEXT
  5
2E7
330
1F
100
AcDbEntity
  8
10
100
AcDbMText
 10
678.0888888855
 20
7.0433827706
 30
0.0
 40
3.5
 41
0.0
 71
     2
 72
     1
  1
14
  7
SLDTEXTSTYLE0
 73
     1
 44
1.0
  0
MTEXT
  5
2E8
330
1F
100
AcDbEntity
  8
10
100
AcDbMText
 10
628.0888888855
 20
7.0433827706
 30
0.0
 40
3.5
 41
0.0
 71
     2
 72
     1
  1
13
  7
SLDTEXTSTYLE0
 73
     1
 44
1.0
  0
MTEXT
  5
2E9
330
1F
100
AcDbEntity
  8
10
100
AcDbMText
 10
578.0888888855
 20
7.0433827706
 30
0.0
 40
3.5
 41
0.0
 71
     2
 72
     1
  1
12
  7
SLDTEXTSTYLE0
 73
     1
 44
1.0
  0
MTEXT
  5
2EA
330
1F
100
AcDbEntity
  8
10
100
AcDbMText
 10
528.0888888855
 20
7.0433827706
 30
0.0
 40
3.5
 41
0.0
 71
     2
 72
     1
  1
11
  7
SLDTEXTSTYLE0
 73
     1
 44
1.0
  0
MTEXT
  5
2EB
330
1F
100
AcDbEntity
  8
10
100
AcDbMText
 10
478.0888888855
 20
7.0433827706
 30
0.0
 40
3.5
 41
0.0
 71
     2
 72
     1
  1
10
  7
SLDTEXTSTYLE0
 73
     1
 44
1.0
  0
MTEXT
  5
2EC
330
1F
100
AcDbEntity
  8
10
100
AcDbMText
 10
427.54687502
 20
7.0433827706
 30
0.0
 40
3.5
 41
0.0
 71
     2
 72
     1
  1
9
  7
SLDTEXTSTYLE0
 73
     1
 44
1.0
  0
MTEXT
  5
2ED
330
1F
100
AcDbEntity
  8
10
100
AcDbMText
 10
377.54687502
 20
7.0433827706
 30
0.0
 40
3.5
 41
0.0
 71
     2
 72
     1
  1
8
  7
SLDTEXTSTYLE0
 73
     1
 44
1.0
  0
MTEXT
  5
2EE
330
1F
100
AcDbEntity
  8
10
100
AcDbMText
 10
327.54687502
 20
7.0433827706
 30
0.0
 40
3.5
 41
0.0
 71
     2
 72
     1
  1
7
  7
SLDTEXTSTYLE0
 73
     1
 44
1.0
  0
MTEXT
  5
2EF
330
1F
100
AcDbEntity
  8
10
100
AcDbMText
 10
277.54687502
 20
7.0433827706
 30
0.0
 40
3.5
 41
0.0
 71
     2
 72
     1
  1
6
  7
SLDTEXTSTYLE0
 73
     1
 44
1.0
  0
MTEXT
  5
2F0
330
1F
100
AcDbEntity
  8
10
100
AcDbMText
 10
227.5444444427
 20
7.0433827706
 30
0.0
 40
3.5
 41
0.0
 71
     2
 72
     1
  1
5
  7
SLDTEXTSTYLE0
 73
     1
 44
1.0
  0
MTEXT
  5
2F1
330
1F
100
AcDbEntity
  8
10
100
AcDbMText
 10
177.5444444427
 20
7.0433827706
 30
0.0
 40
3.5
 41
0.0
 71
     2
 72
     1
  1
4
  7
SLDTEXTSTYLE0
 73
     1
 44
1.0
  0
MTEXT
  5
2F2
330
1F
100
AcDbEntity
  8
10
100
AcDbMText
 10
127.5444444427
 20
7.0433827706
 30
0.0
 40
3.5
 41
0.0
 71
     2
 72
     1
  1
3
  7
SLDTEXTSTYLE0
 73
     1
 44
1.0
  0
MTEXT
  5
2F3
330
1F
100
AcDbEntity
  8
10
100
AcDbMText
 10
1171.5888888855
 20
7.0433827706
 30
0.0
 40
3.5
 41
0.0
 71
     2
 72
     1
  1
24
  7
SLDTEXTSTYLE0
 73
     1
 44
1.0
  0
MTEXT
  5
2F4
330
1F
100
AcDbEntity
  8
10
100
AcDbMText
 10
1128.0888888855
 20
837.9858453713
 30
0.0
 40
3.5
 41
0.0
 71
     2
 72
     1
  1
23
  7
SLDTEXTSTYLE0
 73
     1
 44
1.0
  0
MTEXT
  5
2F5
330
1F
100
AcDbEntity
  8
10
100
AcDbMText
 10
878.0913194045
 20
837.9858453713
 30
0.0
 40
3.5
 41
0.0
 71
     2
 72
     1
  1
18
  7
SLDTEXTSTYLE0
 73
     1
 44
1.0
  0
MTEXT
  5
2F6
330
1F
100
AcDbEntity
  8
10
100
AcDbMText
 10
478.0888888855
 20
837.9858453713
 30
0.0
 40
3.5
 41
0.0
 71
     2
 72
     1
  1
10
  7
SLDTEXTSTYLE0
 73
     1
 44
1.0
  0
MTEXT
  5
2F7
330
1F
100
AcDbEntity
  8
10
100
AcDbMText
 10
828.0913194045
 20
837.9858453713
 30
0.0
 40
3.5
 41
0.0
 71
     2
 72
     1
  1
17
  7
SLDTEXTSTYLE0
 73
     1
 44
1.0
  0
MTEXT
  5
2F8
330
1F
100
AcDbEntity
  8
10
100
AcDbMText
 10
377.54687502
 20
837.9858453713
 30
0.0
 40
3.5
 41
0.0
 71
     2
 72
     1
  1
8
  7
SLDTEXTSTYLE0
 73
     1
 44
1.0
  0
MTEXT
  5
2F9
330
1F
100
AcDbEntity
  8
10
100
AcDbMText
 10
978.0888888855
 20
837.9858453713
 30
0.0
 40
3.5
 41
0.0
 71
     2
 72
     1
  1
20
  7
SLDTEXTSTYLE0
 73
     1
 44
1.0
  0
MTEXT
  5
2FA
330
1F
100
AcDbEntity
  8
10
100
AcDbMText
 10
277.54687502
 20
837.9858453713
 30
0.0
 40
3.5
 41
0.0
 71
     2
 72
     1
  1
6
  7
SLDTEXTSTYLE0
 73
     1
 44
1.0
  0
MTEXT
  5
2FB
330
1F
100
AcDbEntity
  8
10
100
AcDbMText
 10
26.5444444427
 20
837.9858453713
 30
0.0
 40
3.5
 41
0.0
 71
     2
 72
     1
  1
1
  7
SLDTEXTSTYLE0
 73
     1
 44
1.0
  0
MTEXT
  5
2FC
330
1F
100
AcDbEntity
  8
10
100
AcDbMText
 10
678.0888888855
 20
837.9858453713
 30
0.0
 40
3.5
 41
0.0
 71
     2
 72
     1
  1
14
  7
SLDTEXTSTYLE0
 73
     1
 44
1.0
  0
MTEXT
  5
2FD
330
1F
100
AcDbEntity
  8
10
100
AcDbMText
 10
177.5444444427
 20
837.9858453713
 30
0.0
 40
3.5
 41
0.0
 71
     2
 72
     1
  1
4
  7
SLDTEXTSTYLE0
 73
     1
 44
1.0
  0
MTEXT
  5
2FE
330
1F
100
AcDbEntity
  8
10
100
AcDbMText
 10
578.0888888855
 20
837.9858453713
 30
0.0
 40
3.5
 41
0.0
 71
     2
 72
     1
  1
12
  7
SLDTEXTSTYLE0
 73
     1
 44
1.0
  0
MTEXT
  5
2FF
330
1F
100
AcDbEntity
  8
10
100
AcDbMText
 10
77.5444444427
 20
837.9858453713
 30
0.0
 40
3.5
 41
0.0
 71
     2
 72
     1
  1
2
  7
SLDTEXTSTYLE0
 73
     1
 44
1.0
  0
MTEXT
  5
300
330
1F
100
AcDbEntity
  8
10
100
AcDbMText
 10
728.0888888855
 20
837.9858453713
 30
0.0
 40
3.5
 41
0.0
 71
     2
 72
     1
  1
15
  7
SLDTEXTSTYLE0
 73
     1
 44
1.0
  0
MTEXT
  5
301
330
1F
100
AcDbEntity
  8
10
100
AcDbMText
 10
528.0888888855
 20
837.9858453713
 30
0.0
 40
3.5
 41
0.0
 71
     2
 72
     1
  1
11
  7
SLDTEXTSTYLE0
 73
     1
 44
1.0
  0
MTEXT
  5
302
330
1F
100
AcDbEntity
  8
10
100
AcDbMText
 10
427.54687502
 20
837.9858453713
 30
0.0
 40
3.5
 41
0.0
 71
     2
 72
     1
  1
9
  7
SLDTEXTSTYLE0
 73
     1
 44
1.0
  0
MTEXT
  5
303
330
1F
100
AcDbEntity
  8
10
100
AcDbMText
 10
1078.0888888855
 20
837.9858453713
 30
0.0
 40
3.5
 41
0.0
 71
     2
 72
     1
  1
22
  7
SLDTEXTSTYLE0
 73
     1
 44
1.0
  0
MTEXT
  5
304
330
1F
100
AcDbEntity
  8
10
100
AcDbMText
 10
327.54687502
 20
837.9858453713
 30
0.0
 40
3.5
 41
0.0
 71
     2
 72
     1
  1
7
  7
SLDTEXTSTYLE0
 73
     1
 44
1.0
  0
MTEXT
  5
305
330
1F
100
AcDbEntity
  8
10
100
AcDbMText
 10
928.0913194045
 20
837.9858453713
 30
0.0
 40
3.5
 41
0.0
 71
     2
 72
     1
  1
19
  7
SLDTEXTSTYLE0
 73
     1
 44
1.0
  0
MTEXT
  5
306
330
1F
100
AcDbEntity
  8
10
100
AcDbMText
 10
628.0888888855
 20
837.9858453713
 30
0.0
 40
3.5
 41
0.0
 71
     2
 72
     1
  1
13
  7
SLDTEXTSTYLE0
 73
     1
 44
1.0
  0
MTEXT
  5
307
330
1F
100
AcDbEntity
  8
10
100
AcDbMText
 10
227.5444444427
 20
837.9858453713
 30
0.0
 40
3.5
 41
0.0
 71
     2
 72
     1
  1
5
  7
SLDTEXTSTYLE0
 73
     1
 44
1.0
  0
MTEXT
  5
308
330
1F
100
AcDbEntity
  8
10
100
AcDbMText
 10
1028.0888888855
 20
837.9858453713
 30
0.0
 40
3.5
 41
0.0
 71
     2
 72
     1
  1
21
  7
SLDTEXTSTYLE0
 73
     1
 44
1.0
  0
MTEXT
  5
309
330
1F
100
AcDbEntity
  8
10
100
AcDbMText
 10
127.5444444427
 20
837.9858453713
 30
0.0
 40
3.5
 41
0.0
 71
     2
 72
     1
  1
3
  7
SLDTEXTSTYLE0
 73
     1
 44
1.0
  0
MTEXT
  5
30A
330
1F
100
AcDbEntity
  8
10
100
AcDbMText
 10
1171.5888888855
 20
837.9858453713
 30
0.0
 40
3.5
 41
0.0
 71
     2
 72
     1
  1
24
  7
SLDTEXTSTYLE0
 73
     1
 44
1.0
  0
MTEXT
  5
30B
330
1F
100
AcDbEntity
  8
10
100
AcDbMText
 10
778.0913194045
 20
837.9858453713
 30
0.0
 40
3.5
 41
0.0
 71
     2
 72
     1
  1
16
  7
SLDTEXTSTYLE0
 73
     1
 44
1.0
  0
MTEXT
  5
30C
330
1F
100
AcDbEntity
  8
10
100
AcDbMText
 10
13.32031252
 20
747.5433827706
 30
0.0
 40
3.5
 41
0.0
 71
     2
 72
     1
  1
B
  7
SLDTEXTSTYLE0
 73
     1
 44
1.0
  0
MTEXT
  5
30D
330
1F
100
AcDbEntity
  8
10
100
AcDbMText
 10
13.4272569427
 20
697.4858453713
 30
0.0
 40
3.5
 41
0.0
 71
     2
 72
     1
  1
C
  7
SLDTEXTSTYLE0
 73
     1
 44
1.0
  0
MTEXT
  5
30E
330
1F
100
AcDbEntity
  8
10
100
AcDbMText
 10
13.42968752
 20
647.5433827706
 30
0.0
 40
3.5
 41
0.0
 71
     2
 72
     1
  1
D
  7
SLDTEXTSTYLE0
 73
     1
 44
1.0
  0
MTEXT
  5
30F
330
1F
100
AcDbEntity
  8
10
100
AcDbMText
 10
13.3178819427
 20
597.4858453713
 30
0.0
 40
3.5
 41
0.0
 71
     2
 72
     1
  1
E
  7
SLDTEXTSTYLE0
 73
     1
 44
1.0
  0
MTEXT
  5
310
330
1F
100
AcDbEntity
  8
10
100
AcDbMText
 10
13.224305544
 20
547.5433827706
 30
0.0
 40
3.5
 41
0.0
 71
     2
 72
     1
  1
F
  7
SLDTEXTSTYLE0
 73
     1
 44
1.0
  0
MTEXT
  5
311
330
1F
100
AcDbEntity
  8
10
100
AcDbMText
 10
13.53906252
 20
497.4858453713
 30
0.0
 40
3.5
 41
0.0
 71
     2
 72
     1
  1
G
  7
SLDTEXTSTYLE0
 73
     1
 44
1.0
  0
MTEXT
  5
312
330
1F
100
AcDbEntity
  8
10
100
AcDbMText
 10
13.42968752
 20
447.5433827706
 30
0.0
 40
3.5
 41
0.0
 71
     2
 72
     1
  1
H
  7
SLDTEXTSTYLE0
 73
     1
 44
1.0
  0
MTEXT
  5
313
330
1F
100
AcDbEntity
  8
10
100
AcDbMText
 10
13.015277795
 20
397.4858453713
 30
0.0
 40
3.5
 41
0.0
 71
     2
 72
     1
  1
J
  7
SLDTEXTSTYLE0
 73
     1
 44
1.0
  0
MTEXT
  5
314
330
1F
100
AcDbEntity
  8
10
100
AcDbMText
 10
13.32031252
 20
347.5433827706
 30
0.0
 40
3.5
 41
0.0
 71
     2
 72
     1
  1
K
  7
SLDTEXTSTYLE0
 73
     1
 44
1.0
  0
MTEXT
  5
315
330
1F
100
AcDbEntity
  8
10
100
AcDbMText
 10
13.180555549
 20
297.4858453713
 30
0.0
 40
3.5
 41
0.0
 71
     2
 72
     1
  1
L
  7
SLDTEXTSTYLE0
 73
     1
 44
1.0
  0
MTEXT
  5
316
330
1F
100
AcDbEntity
  8
10
100
AcDbMText
 10
13.5973958042
 20
247.5433827706
 30
0.0
 40
3.5
 41
0.0
 71
     2
 72
     1
  1
M
  7
SLDTEXTSTYLE0
 73
     1
 44
1.0
  0
MTEXT
  5
317
330
1F
100
AcDbEntity
  8
10
100
AcDbMText
 10
13.5487847016
 20
197.4858453713
 30
0.0
 40
3.5
 41
0.0
 71
     2
 72
     1
  1
N
  7
SLDTEXTSTYLE0
 73
     1
 44
1.0
  0
MTEXT
  5
318
330
1F
100
AcDbEntity
  8
10
100
AcDbMText
 10
13.4442708562
 20
147.5433827706
 30
0.0
 40
3.5
 41
0.0
 71
     2
 72
     1
  1
P
  7
SLDTEXTSTYLE0
 73
     1
 44
1.0
  0
MTEXT
  5
319
330
1F
100
AcDbEntity
  8
10
100
AcDbMText
 10
13.32031252
 20
807.7358453713
 30
0.0
 40
3.5
 41
0.0
 71
     2
 72
     1
  1
A
  7
SLDTEXTSTYLE0
 73
     1
 44
1.0
  0
MTEXT
  5
31A
330
1F
100
AcDbEntity
  8
10
100
AcDbMText
 10
1184.65625002
 20
37.2933827706
 30
0.0
 40
3.5
 41
0.0
 71
     2
 72
     1
  1
T
  7
SLDTEXTSTYLE0
 73
     1
 44
1.0
  0
MTEXT
  5
31B
330
1F
100
AcDbEntity
  8
10
100
AcDbMText
 10
1184.92968752
 20
97.4858453713
 30
0.0
 40
3.5
 41
0.0
 71
     2
 72
     1
  1
R
  7
SLDTEXTSTYLE0
 73
     1
 44
1.0
  0
MTEXT
  5
31C
330
1F
100
AcDbEntity
  8
10
100
AcDbMText
 10
1184.9442708562
 20
147.5433827706
 30
0.0
 40
3.5
 41
0.0
 71
     2
 72
     1
  1
P
  7
SLDTEXTSTYLE0
 73
     1
 44
1.0
  0
MTEXT
  5
31D
330
1F
100
AcDbEntity
  8
10
100
AcDbMText
 10
1185.0487847016
 20
197.4858453713
 30
0.0
 40
3.5
 41
0.0
 71
     2
 72
     1
  1
N
  7
SLDTEXTSTYLE0
 73
     1
 44
1.0
  0
MTEXT
  5
31E
330
1F
100
AcDbEntity
  8
10
100
AcDbMText
 10
1185.0973958042
 20
247.5433827706
 30
0.0
 40
3.5
 41
0.0
 71
     2
 72
     1
  1
M
  7
SLDTEXTSTYLE0
 73
     1
 44
1.0
  0
MTEXT
  5
31F
330
1F
100
AcDbEntity
  8
10
100
AcDbMText
 10
1184.680555549
 20
297.4858453713
 30
0.0
 40
3.5
 41
0.0
 71
     2
 72
     1
  1
L
  7
SLDTEXTSTYLE0
 73
     1
 44
1.0
  0
MTEXT
  5
320
330
1F
100
AcDbEntity
  8
10
100
AcDbMText
 10
1184.82031252
 20
347.5433827706
 30
0.0
 40
3.5
 41
0.0
 71
     2
 72
     1
  1
K
  7
SLDTEXTSTYLE0
 73
     1
 44
1.0
  0
MTEXT
  5
321
330
1F
100
AcDbEntity
  8
10
100
AcDbMText
 10
1184.515277795
 20
397.4858453713
 30
0.0
 40
3.5
 41
0.0
 71
     2
 72
     1
  1
J
  7
SLDTEXTSTYLE0
 73
     1
 44
1.0
  0
MTEXT
  5
322
330
1F
100
AcDbEntity
  8
10
100
AcDbMText
 10
1184.92968752
 20
447.5433827706
 30
0.0
 40
3.5
 41
0.0
 71
     2
 72
     1
  1
H
  7
SLDTEXTSTYLE0
 73
     1
 44
1.0
  0
MTEXT
  5
323
330
1F
100
AcDbEntity
  8
10
100
AcDbMText
 10
1185.03906252
 20
497.4858453713
 30
0.0
 40
3.5
 41
0.0
 71
     2
 72
     1
  1
G
  7
SLDTEXTSTYLE0
 73
     1
 44
1.0
  0
MTEXT
  5
324
330
1F
100
AcDbEntity
  8
10
100
AcDbMText
 10
1184.724305544
 20
547.5433827706
 30
0.0
 40
3.5
 41
0.0
 71
     2
 72
     1
  1
F
  7
SLDTEXTSTYLE0
 73
     1
 44
1.0
  0
MTEXT
  5
325
330
1F
100
AcDbEntity
  8
10
100
AcDbMText
 10
1184.8178819427
 20
597.4858453713
 30
0.0
 40
3.5
 41
0.0
 71
     2
 72
     1
  1
E
  7
SLDTEXTSTYLE0
 73
     1
 44
1.0
  0
MTEXT
  5
326
330
1F
100
AcDbEntity
  8
10
100
AcDbMText
 10
1184.92968752
 20
647.5433827706
 30
0.0
 40
3.5
 41
0.0
 71
     2
 72
     1
  1
D
  7
SLDTEXTSTYLE0
 73
     1
 44
1.0
  0
MTEXT
  5
327
330
1F
100
AcDbEntity
  8
10
100
AcDbMText
 10
1184.9272569427
 20
697.4858453713
 30
0.0
 40
3.5
 41
0.0
 71
     2
 72
     1
  1
C
  7
SLDTEXTSTYLE0
 73
     1
 44
1.0
  0
MTEXT
  5
328
330
1F
100
AcDbEntity
  8
10
100
AcDbMText
 10
1184.82031252
 20
747.5433827706
 30
0.0
 40
3.5
 41
0.0
 71
     2
 72
     1
  1
B
  7
SLDTEXTSTYLE0
 73
     1
 44
1.0
  0
MTEXT
  5
329
330
1F
100
AcDbEntity
  8
10
100
AcDbMText
 10
1184.82031252
 20
807.7358453713
 30
0.0
 40
3.5
 41
0.0
 71
     2
 72
     1
  1
A
  7
SLDTEXTSTYLE0
 73
     1
 44
1.0
  0
ENDSEC
  0
SECTION
  2
OBJECTS
  0
DICTIONARY
  5
C
330
0
100
AcDbDictionary
281
     1
  3
ACAD_GROUP
350
D
  3
ACAD_LAYOUT
350
1A
  3
ACAD_MLINESTYLE
350
17
  3
ACAD_PLOTSETTINGS
350
19
  3
ACAD_PLOTSTYLENAME
350
E
  3
ACAD_SCALELIST
350
47
  0
DICTIONARY
  5
D
102
{ACAD_REACTORS
330
C
102
}
330
C
100
AcDbDictionary
281
     1
  0
DICTIONARY
  5
1A
102
{ACAD_REACTORS
330
C
102
}
330
C
100
AcDbDictionary
281
     1
  3
Layout1
350
1E
  3
Layout2
350
26
  3
Model
350
22
  0
DICTIONARY
  5
17
102
{ACAD_REACTORS
330
C
102
}
330
C
100
AcDbDictionary
281
     1
  3
Standard
350
18
  0
DICTIONARY
  5
19
102
{ACAD_REACTORS
330
C
102
}
330
C
100
AcDbDictionary
281
     1
  0
ACDBDICTIONARYWDFLT
  5
E
102
{ACAD_REACTORS
330
C
102
}
330
C
100
AcDbDictionary
281
     1
  3
Normal
350
F
100
AcDbDictionaryWithDefault
340
F
  0
DICTIONARY
  5
47
102
{ACAD_REACTORS
330
C
102
}
330
C
100
AcDbDictionary
281
     1
  3
A0
350
48
  3
A1
350
49
  3
A2
350
4A
  3
A3
350
4B
  3
A4
350
4C
  3
A5
350
4D
  3
A6
350
4E
  3
A7
350
4F
  3
A8
350
50
  3
A9
350
51
  3
B0
350
52
  3
B1
350
53
  3
B2
350
54
  3
B3
350
55
  3
B4
350
56
  3
B5
350
57
  3
B6
350
58
  3
B7
350
59
  3
B8
350
5A
  3
B9
350
5B
  3
C0
350
5C
  3
C1
350
5D
  3
C2
350
5E
  3
C3
350
5F
  3
C4
350
60
  3
C5
350
61
  3
C6
350
62
  3
C7
350
63
  3
C8
350
64
  3
C9
350
65
  3
D0
350
66
  3
D1
350
67
  3
D2
350
68
  0
LAYOUT
  5
1E
102
{ACAD_REACTORS
330
1A
102
}
330
1A
100
AcDbPlotSettings
  1

  2
none_device
  4

  6

 40
0.0
 41
0.0
 42
0.0
 43
0.0
 44
0.0
 45
0.0
 46
0.0
 47
0.0
 48
0.0
 49
0.0
140
0.0
141
0.0
142
1.0
143
1.0
 70
   688
 72
     1
 73
     0
 74
     5
  7

 75
    16
147
1.0
148
0.0
149
0.0
100
AcDbLayout
  1
Layout1
 70
     1
 71
     1
 10
0.0
 20
0.0
 11
420.0
 21
297.0
 12
0.0
 22
0.0
 32
0.0
 14
1.0000000000E+20
 24
1.0000000000E+20
 34
1.0000000000E+20
 15
-1.0000000000E+20
 25
-1.0000000000E+20
 35
-1.0000000000E+20
146
0.0
 13
0.0
 23
0.0
 33
0.0
 16
1.0
 26
0.0
 36
0.0
 17
0.0
 27
1.0
 37
0.0
 76
     0
330
1B
  0
LAYOUT
  5
26
102
{ACAD_REACTORS
330
1A
102
}
330
1A
100
AcDbPlotSettings
  1

  2
none_device
  4

  6

 40
0.0
 41
0.0
 42
0.0
 43
0.0
 44
0.0
 45
0.0
 46
0.0
 47
0.0
 48
0.0
 49
0.0
140
0.0
141
0.0
142
1.0
143
1.0
 70
   688
 72
     1
 73
     0
 74
     5
  7

 75
    16
147
1.0
148
0.0
149
0.0
100
AcDbLayout
  1
Layout2
 70
     1
 71
     2
 10
0.0
 20
0.0
 11
0.0
 21
0.0
 12
0.0
 22
0.0
 32
0.0
 14
0.0
 24
0.0
 34
0.0
 15
0.0
 25
0.0
 35
0.0
146
0.0
 13
0.0
 23
0.0
 33
0.0
 16
1.0
 26
0.0
 36
0.0
 17
0.0
 27
1.0
 37
0.0
 76
     0
330
23
  0
LAYOUT
  5
22
102
{ACAD_REACTORS
330
1A
102
}
330
1A
100
AcDbPlotSettings
  1

  2
none_device
  4
Letter_(8.50_x_11.00_Inches)
  6

 40
6.35
 41
6.35
 42
6.35000508
 43
6.35000508
 44
215.9
 45
279.4
 46
0.0
 47
0.0
 48
0.0
 49
0.0
140
0.0
141
0.0
142
1.0
143
1.0
 70
  1712
 72
     1
 73
     0
 74
     0
  7

 75
     0
147
1.0
148
0.0
149
0.0
100
AcDbLayout
  1
Model
 70
     1
 71
     0
 10
0.0
 20
0.0
 11
1189.0
 21
841.0
 12
0.0
 22
0.0
 32
0.0
 14
0.0
 24
0.0
 34
0.0
 15
1189.0
 25
841.0
 35
0.0
146
0.0
 13
0.0
 23
0.0
 33
0.0
 16
1.0
 26
0.0
 36
0.0
 17
0.0
 27
1.0
 37
0.0
 76
     0
330
1F
331
29
  0
MLINESTYLE
  5
18
102
{ACAD_REACTORS
330
17
102
}
330
17
100
AcDbMlineStyle
  2
Standard
 70
     0
  3

 62
   256
 51
90.0
 52
90.0
 71
     2
 49
0.5
 62
   256
  6
BYLAYER
 49
-0.5
 62
   256
  6
BYLAYER
  0
ACDBPLACEHOLDER
  5
F
102
{ACAD_REACTORS
330
E
102
}
330
E
  0
SCALE
  5
48
102
{ACAD_REACTORS
330
47
102
}
330
47
100
AcDbScale
 70
     0
300
1:1
140
1.0
141
1.0
290
     1
  0
SCALE
  5
49
102
{ACAD_REACTORS
330
47
102
}
330
47
100
AcDbScale
 70
     0
300
1:2
140
1.0
141
2.0
290
     0
  0
SCALE
  5
4A
102
{ACAD_REACTORS
330
47
102
}
330
47
100
AcDbScale
 70
     0
300
1:4
140
1.0
141
4.0
290
     0
  0
SCALE
  5
4B
102
{ACAD_REACTORS
330
47
102
}
330
47
100
AcDbScale
 70
     0
300
1:5
140
1.0
141
5.0
290
     0
  0
SCALE
  5
4C
102
{ACAD_REACTORS
330
47
102
}
330
47
100
AcDbScale
 70
     0
300
1:8
140
1.0
141
8.0
290
     0
  0
SCALE
  5
4D
102
{ACAD_REACTORS
330
47
102
}
330
47
100
AcDbScale
 70
     0
300
1:10
140
1.0
141
10.0
290
     0
  0
SCALE
  5
4E
102
{ACAD_REACTORS
330
47
102
}
330
47
100
AcDbScale
 70
     0
300
1:16
140
1.0
141
16.0
290
     0
  0
SCALE
  5
4F
102
{ACAD_REACTORS
330
47
102
}
330
47
100
AcDbScale
 70
     0
300
1:20
140
1.0
141
20.0
290
     0
  0
SCALE
  5
50
102
{ACAD_REACTORS
330
47
102
}
330
47
100
AcDbScale
 70
     0
300
1:30
140
1.0
141
30.0
290
     0
  0
SCALE
  5
51
102
{ACAD_REACTORS
330
47
102
}
330
47
100
AcDbScale
 70
     0
300
1:40
140
1.0
141
40.0
290
     0
  0
SCALE
  5
52
102
{ACAD_REACTORS
330
47
102
}
330
47
100
AcDbScale
 70
     0
300
1:50
140
1.0
141
50.0
290
     0
  0
SCALE
  5
53
102
{ACAD_REACTORS
330
47
102
}
330
47
100
AcDbScale
 70
     0
300
1:100
140
1.0
141
100.0
290
     0
  0
SCALE
  5
54
102
{ACAD_REACTORS
330
47
102
}
330
47
100
AcDbScale
 70
     0
300
2:1
140
2.0
141
1.0
290
     0
  0
SCALE
  5
55
102
{ACAD_REACTORS
330
47
102
}
330
47
100
AcDbScale
 70
     0
300
4:1
140
4.0
141
1.0
290
     0
  0
SCALE
  5
56
102
{ACAD_REACTORS
330
47
102
}
330
47
100
AcDbScale
 70
     0
300
8:1
140
8.0
141
1.0
290
     0
  0
SCALE
  5
57
102
{ACAD_REACTORS
330
47
102
}
330
47
100
AcDbScale
 70
     0
300
10:1
140
10.0
141
1.0
290
     0
  0
SCALE
  5
58
102
{ACAD_REACTORS
330
47
102
}
330
47
100
AcDbScale
 70
     0
300
100:1
140
100.0
141
1.0
290
     0
  0
SCALE
  5
59
102
{ACAD_REACTORS
330
47
102
}
330
47
100
AcDbScale
 70
     0
300
1/128" = 1'-0"
140
0.0078125
141
12.0
290
     0
  0
SCALE
  5
5A
102
{ACAD_REACTORS
330
47
102
}
330
47
100
AcDbScale
 70
     0
300
1/64" = 1'-0"
140
0.015625
141
12.0
290
     0
  0
SCALE
  5
5B
102
{ACAD_REACTORS
330
47
102
}
330
47
100
AcDbScale
 70
     0
300
1/32" = 1'-0"
140
0.03125
141
12.0
290
     0
  0
SCALE
  5
5C
102
{ACAD_REACTORS
330
47
102
}
330
47
100
AcDbScale
 70
     0
300
1/16" = 1'-0"
140
0.0625
141
12.0
290
     0
  0
SCALE
  5
5D
102
{ACAD_REACTORS
330
47
102
}
330
47
100
AcDbScale
 70
     0
300
3/32" = 1'-0"
140
0.09375
141
12.0
290
     0
  0
SCALE
  5
5E
102
{ACAD_REACTORS
330
47
102
}
330
47
100
AcDbScale
 70
     0
300
1/8" = 1'-0"
140
0.125
141
12.0
290
     0
  0
SCALE
  5
5F
102
{ACAD_REACTORS
330
47
102
}
330
47
100
AcDbScale
 70
     0
300
3/16" = 1'-0"
140
0.1875
141
12.0
290
     0
  0
SCALE
  5
60
102
{ACAD_REACTORS
330
47
102
}
330
47
100
AcDbScale
 70
     0
300
1/4" = 1'-0"
140
0.25
141
12.0
290
     0
  0
SCALE
  5
61
102
{ACAD_REACTORS
330
47
102
}
330
47
100
AcDbScale
 70
     0
300
3/8" = 1'-0"
140
0.375
141
12.0
290
     0
  0
SCALE
  5
62
102
{ACAD_REACTORS
330
47
102
}
330
47
100
AcDbScale
 70
     0
300
1/2" = 1'-0"
140
0.5
141
12.0
290
     0
  0
SCALE
  5
63
102
{ACAD_REACTORS
330
47
102
}
330
47
100
AcDbScale
 70
     0
300
3/4" = 1'-0"
140
0.75
141
12.0
290
     0
  0
SCALE
  5
64
102
{ACAD_REACTORS
330
47
102
}
330
47
100
AcDbScale
 70
     0
300
1" = 1'-0"
140
1.0
141
12.0
290
     0
  0
SCALE
  5
65
102
{ACAD_REACTORS
330
47
102
}
330
47
100
AcDbScale
 70
     0
300
1-1/2" = 1'-0"
140
1.5
141
12.0
290
     0
  0
SCALE
  5
66
102
{ACAD_REACTORS
330
47
102
}
330
47
100
AcDbScale
 70
     0
300
3" = 1'-0"
140
3.0
141
12.0
290
     0
  0
SCALE
  5
67
102
{ACAD_REACTORS
330
47
102
}
330
47
100
AcDbScale
 70
     0
300
6" = 1'-0"
140
6.0
141
12.0
290
     0
  0
SCALE
  5
68
102
{ACAD_REACTORS
330
47
102
}
330
47
100
AcDbScale
 70
     0
300
1'-0" = 1'-0"
140
12.0
141
12.0
290
     0
  0
ENDSEC
  0
EOF
